<svg width="77" height="20" viewBox="0 0 77 20" fill="none" xmlns="http://www.w3.org/2000/svg">
    <path d="M39.7188 3.625V5.1875H34.4297V15H32.4766V3.625H39.7188ZM33.8359 7.99219H36.6953C37.5599 7.99219 38.2995 8.13802 38.9141 8.42969C39.5286 8.71615 39.9974 9.11979 40.3203 9.64062C40.6432 10.1615 40.8047 10.7682 40.8047 11.4609C40.8047 11.9818 40.7135 12.4583 40.5312 12.8906C40.349 13.3229 40.0807 13.6979 39.7266 14.0156C39.3724 14.3281 38.9401 14.5703 38.4297 14.7422C37.9245 14.9141 37.3464 15 36.6953 15H32.4766V3.625H34.4453V13.4453H36.6953C37.1901 13.4453 37.5964 13.3542 37.9141 13.1719C38.2318 12.9844 38.4661 12.7396 38.6172 12.4375C38.7734 12.1354 38.8516 11.8047 38.8516 11.4453C38.8516 11.0964 38.7734 10.7786 38.6172 10.4922C38.4661 10.2057 38.2318 9.97656 37.9141 9.80469C37.5964 9.63281 37.1901 9.54688 36.6953 9.54688H33.8359V7.99219ZM47.1484 13.3047V9.27344C47.1484 8.97135 47.0938 8.71094 46.9844 8.49219C46.875 8.27344 46.7083 8.10417 46.4844 7.98438C46.2656 7.86458 45.9896 7.80469 45.6562 7.80469C45.349 7.80469 45.0833 7.85677 44.8594 7.96094C44.6354 8.0651 44.4609 8.20573 44.3359 8.38281C44.2109 8.5599 44.1484 8.76042 44.1484 8.98438H42.2734C42.2734 8.65104 42.3542 8.32812 42.5156 8.01562C42.6771 7.70312 42.9115 7.42448 43.2188 7.17969C43.526 6.9349 43.8932 6.74219 44.3203 6.60156C44.7474 6.46094 45.2266 6.39062 45.7578 6.39062C46.3932 6.39062 46.9557 6.4974 47.4453 6.71094C47.9401 6.92448 48.3281 7.2474 48.6094 7.67969C48.8958 8.10677 49.0391 8.64323 49.0391 9.28906V13.0469C49.0391 13.4323 49.0651 13.7786 49.1172 14.0859C49.1745 14.388 49.2552 14.651 49.3594 14.875V15H47.4297C47.3411 14.7969 47.2708 14.5391 47.2188 14.2266C47.1719 13.9089 47.1484 13.6016 47.1484 13.3047ZM47.4219 9.85938L47.4375 11.0234H46.0859C45.737 11.0234 45.4297 11.0573 45.1641 11.125C44.8984 11.1875 44.6771 11.2812 44.5 11.4062C44.3229 11.5312 44.1901 11.6823 44.1016 11.8594C44.013 12.0365 43.9688 12.237 43.9688 12.4609C43.9688 12.6849 44.0208 12.8906 44.125 13.0781C44.2292 13.2604 44.3802 13.4036 44.5781 13.5078C44.7812 13.612 45.026 13.6641 45.3125 13.6641C45.6979 13.6641 46.0339 13.5859 46.3203 13.4297C46.612 13.2682 46.8411 13.0729 47.0078 12.8438C47.1745 12.6094 47.263 12.388 47.2734 12.1797L47.8828 13.0156C47.8203 13.2292 47.7135 13.4583 47.5625 13.7031C47.4115 13.9479 47.2135 14.1823 46.9688 14.4062C46.7292 14.625 46.4401 14.8047 46.1016 14.9453C45.7682 15.0859 45.3828 15.1562 44.9453 15.1562C44.3932 15.1562 43.901 15.0469 43.4688 14.8281C43.0365 14.6042 42.6979 14.3047 42.4531 13.9297C42.2083 13.5495 42.0859 13.1198 42.0859 12.6406C42.0859 12.1927 42.1693 11.7969 42.3359 11.4531C42.5078 11.1042 42.7578 10.8125 43.0859 10.5781C43.4193 10.3438 43.8255 10.1667 44.3047 10.0469C44.7839 9.92188 45.3307 9.85938 45.9453 9.85938H47.4219ZM56.7812 10.0781V11.5625H52.4062V10.0781H56.7812ZM52.9531 6.54688V15H51.0703V6.54688H52.9531ZM58.1406 6.54688V15H56.2578V6.54688H58.1406ZM62.1797 6.54688V15H60.2969V6.54688H62.1797ZM67.6953 6.54688L63.8906 11.6328H61.7422L61.4922 9.92969H63.0625L65.3438 6.54688H67.6953ZM65.4922 15L62.9453 11.3125L64.4297 10.2422L67.9688 15H65.4922ZM73.7578 13.3047V9.27344C73.7578 8.97135 73.7031 8.71094 73.5938 8.49219C73.4844 8.27344 73.3177 8.10417 73.0938 7.98438C72.875 7.86458 72.599 7.80469 72.2656 7.80469C71.9583 7.80469 71.6927 7.85677 71.4688 7.96094C71.2448 8.0651 71.0703 8.20573 70.9453 8.38281C70.8203 8.5599 70.7578 8.76042 70.7578 8.98438H68.8828C68.8828 8.65104 68.9635 8.32812 69.125 8.01562C69.2865 7.70312 69.5208 7.42448 69.8281 7.17969C70.1354 6.9349 70.5026 6.74219 70.9297 6.60156C71.3568 6.46094 71.8359 6.39062 72.3672 6.39062C73.0026 6.39062 73.5651 6.4974 74.0547 6.71094C74.5495 6.92448 74.9375 7.2474 75.2188 7.67969C75.5052 8.10677 75.6484 8.64323 75.6484 9.28906V13.0469C75.6484 13.4323 75.6745 13.7786 75.7266 14.0859C75.7839 14.388 75.8646 14.651 75.9688 14.875V15H74.0391C73.9505 14.7969 73.8802 14.5391 73.8281 14.2266C73.7812 13.9089 73.7578 13.6016 73.7578 13.3047ZM74.0312 9.85938L74.0469 11.0234H72.6953C72.3464 11.0234 72.0391 11.0573 71.7734 11.125C71.5078 11.1875 71.2865 11.2812 71.1094 11.4062C70.9323 11.5312 70.7995 11.6823 70.7109 11.8594C70.6224 12.0365 70.5781 12.237 70.5781 12.4609C70.5781 12.6849 70.6302 12.8906 70.7344 13.0781C70.8385 13.2604 70.9896 13.4036 71.1875 13.5078C71.3906 13.612 71.6354 13.6641 71.9219 13.6641C72.3073 13.6641 72.6432 13.5859 72.9297 13.4297C73.2214 13.2682 73.4505 13.0729 73.6172 12.8438C73.7839 12.6094 73.8724 12.388 73.8828 12.1797L74.4922 13.0156C74.4297 13.2292 74.3229 13.4583 74.1719 13.7031C74.0208 13.9479 73.8229 14.1823 73.5781 14.4062C73.3385 14.625 73.0495 14.8047 72.7109 14.9453C72.3776 15.0859 71.9922 15.1562 71.5547 15.1562C71.0026 15.1562 70.5104 15.0469 70.0781 14.8281C69.6458 14.6042 69.3073 14.3047 69.0625 13.9297C68.8177 13.5495 68.6953 13.1198 68.6953 12.6406C68.6953 12.1927 68.7786 11.7969 68.9453 11.4531C69.1172 11.1042 69.3672 10.8125 69.6953 10.5781C70.0286 10.3438 70.4349 10.1667 70.9141 10.0469C71.3932 9.92188 71.9401 9.85938 72.5547 9.85938H74.0312Z" fill="#757575"/>
    <circle cx="10" cy="10" r="10" fill="#B8BECA"/>
    <path d="M4 7.97052L4.776 13.9212C4.84222 14.4289 5.0578 14.9054 5.39537 15.2904C5.73295 15.6753 6.1773 15.9513 6.672 16.0832V16.0832C8.852 16.6645 11.1473 16.6645 13.328 16.0832C13.8227 15.9513 14.267 15.6753 14.6046 15.2904C14.9422 14.9054 15.1578 14.4289 15.224 13.9212L16 7.97052" stroke="white" stroke-width="2" stroke-linecap="round" stroke-linejoin="round"/>
    <path d="M5.35667 6.81451C4.50867 7.07785 4 7.41385 4 7.77985C4 8.62185 6.68667 9.30385 10 9.30385C13.3133 9.30385 16 8.62185 16 7.77985C16 7.41318 15.4907 7.07718 14.642 6.81451" stroke="white" stroke-width="2" stroke-linecap="round" stroke-linejoin="round"/>
    <path d="M8 4.63717L6 4.97717C4.77267 5.21983 4 5.57517 4 5.9705C4 6.70717 6.68667 7.30383 10 7.30383C13.3133 7.30383 16 6.70717 16 5.9705C16 5.57583 15.2273 5.2205 14 4.97717L12 4.63717M12 4.63717C12 4.28354 11.8595 3.94441 11.6095 3.69436C11.3594 3.44431 11.0203 3.30383 10.6667 3.30383H9.33333C8.97971 3.30383 8.64057 3.44431 8.39052 3.69436C8.14048 3.94441 8 4.28354 8 4.63717V4.63717" stroke="white" stroke-width="2" stroke-linecap="round" stroke-linejoin="round"/>
</svg>
