<svg width="20" height="20" viewBox="0 0 20 20" fill="none" xmlns="http://www.w3.org/2000/svg">
    <circle cx="10" cy="10" r="10" fill="#B8BECA"/>
    <path d="M4 7.97046L4.776 13.9211C4.84222 14.4288 5.0578 14.9054 5.39537 15.2903C5.73295 15.6753 6.1773 15.9512 6.672 16.0831V16.0831C8.852 16.6645 11.1473 16.6645 13.328 16.0831C13.8227 15.9512 14.267 15.6753 14.6046 15.2903C14.9422 14.9054 15.1578 14.4288 15.224 13.9211L16 7.97046" stroke="white" stroke-width="2" stroke-linecap="round" stroke-linejoin="round"/>
    <path d="M5.35667 6.81445C4.50867 7.07779 4 7.41379 4 7.77979C4 8.62179 6.68667 9.30379 10 9.30379C13.3133 9.30379 16 8.62179 16 7.77979C16 7.41312 15.4907 7.07712 14.642 6.81445" stroke="white" stroke-width="2" stroke-linecap="round" stroke-linejoin="round"/>
    <path d="M8 4.63717L6 4.97717C4.77267 5.21983 4 5.57517 4 5.9705C4 6.70717 6.68667 7.30383 10 7.30383C13.3133 7.30383 16 6.70717 16 5.9705C16 5.57583 15.2273 5.2205 14 4.97717L12 4.63717M12 4.63717C12 4.28354 11.8595 3.94441 11.6095 3.69436C11.3594 3.44431 11.0203 3.30383 10.6667 3.30383H9.33333C8.97971 3.30383 8.64057 3.44431 8.39052 3.69436C8.14048 3.94441 8 4.28354 8 4.63717V4.63717" stroke="white" stroke-width="2" stroke-linecap="round" stroke-linejoin="round"/>
</svg>
