<svg width="154" height="44" viewBox="0 0 154 44" fill="none"
     xmlns="http://www.w3.org/2000/svg">
    <g filter="url(#filter0_d_151_511)">
        <rect x="2" y="1" width="150" height="40" rx="10" fill="#F8F8F8"/>
    </g>
    <path
            d="M26.2734 20.5469H24.5078V19.3047H25.9141C26.3255 19.3047 26.6589 19.2422 26.9141 19.1172C27.1693 18.987 27.3568 18.8047 27.4766 18.5703C27.5964 18.3359 27.6562 18.0599 27.6562 17.7422C27.6562 17.4818 27.5885 17.2422 27.4531 17.0234C27.3229 16.8047 27.1198 16.6302 26.8438 16.5C26.5677 16.3646 26.2161 16.2969 25.7891 16.2969C25.4661 16.2969 25.1719 16.3542 24.9062 16.4688C24.6406 16.5833 24.4297 16.7448 24.2734 16.9531C24.1172 17.1562 24.0391 17.4036 24.0391 17.6953H21.7031C21.7031 17.1953 21.8099 16.7474 22.0234 16.3516C22.2422 15.9505 22.5391 15.612 22.9141 15.3359C23.2943 15.0547 23.7318 14.8411 24.2266 14.6953C24.7214 14.5495 25.2422 14.4766 25.7891 14.4766C26.4297 14.4766 27.0078 14.5469 27.5234 14.6875C28.0391 14.8229 28.4818 15.026 28.8516 15.2969C29.2214 15.5677 29.5052 15.9036 29.7031 16.3047C29.901 16.7057 30 17.1719 30 17.7031C30 18.0938 29.9115 18.4609 29.7344 18.8047C29.5573 19.1484 29.3047 19.4505 28.9766 19.7109C28.6484 19.9714 28.2552 20.1771 27.7969 20.3281C27.3385 20.474 26.8307 20.5469 26.2734 20.5469ZM24.5078 19.8672H26.2734C26.8932 19.8672 27.4427 19.9323 27.9219 20.0625C28.4062 20.1927 28.8151 20.3828 29.1484 20.6328C29.487 20.8828 29.7422 21.1927 29.9141 21.5625C30.0911 21.9271 30.1797 22.3464 30.1797 22.8203C30.1797 23.3516 30.0703 23.8229 29.8516 24.2344C29.638 24.6458 29.3333 24.9948 28.9375 25.2812C28.5469 25.5677 28.0833 25.7839 27.5469 25.9297C27.0156 26.0755 26.4297 26.1484 25.7891 26.1484C25.2786 26.1484 24.7708 26.0859 24.2656 25.9609C23.7604 25.8307 23.3021 25.6328 22.8906 25.3672C22.4792 25.1016 22.151 24.7604 21.9062 24.3438C21.6615 23.9271 21.5391 23.4271 21.5391 22.8438H23.8906C23.8906 23.1198 23.9714 23.3724 24.1328 23.6016C24.2943 23.8255 24.5182 24.0052 24.8047 24.1406C25.0911 24.2708 25.4193 24.3359 25.7891 24.3359C26.2214 24.3359 26.5885 24.2682 26.8906 24.1328C27.1979 23.9974 27.4297 23.8125 27.5859 23.5781C27.7474 23.3385 27.8281 23.0755 27.8281 22.7891C27.8281 22.4818 27.7865 22.2214 27.7031 22.0078C27.6198 21.7943 27.4974 21.6198 27.3359 21.4844C27.1745 21.3438 26.974 21.2422 26.7344 21.1797C26.5 21.1172 26.2266 21.0859 25.9141 21.0859H24.5078V19.8672ZM36.3359 24.0938V20.3281C36.3359 20.0573 36.2917 19.8255 36.2031 19.6328C36.1146 19.4349 35.9766 19.2812 35.7891 19.1719C35.6068 19.0625 35.3698 19.0078 35.0781 19.0078C34.8281 19.0078 34.612 19.0521 34.4297 19.1406C34.2474 19.224 34.1068 19.3464 34.0078 19.5078C33.9089 19.6641 33.8594 19.849 33.8594 20.0625H31.6094C31.6094 19.7031 31.6927 19.362 31.8594 19.0391C32.026 18.7161 32.2682 18.4323 32.5859 18.1875C32.9036 17.9375 33.2812 17.7422 33.7188 17.6016C34.1615 17.4609 34.6562 17.3906 35.2031 17.3906C35.8594 17.3906 36.4427 17.5 36.9531 17.7188C37.4635 17.9375 37.8646 18.2656 38.1562 18.7031C38.4531 19.1406 38.6016 19.6875 38.6016 20.3438V23.9609C38.6016 24.4245 38.6302 24.8047 38.6875 25.1016C38.7448 25.3932 38.8281 25.6484 38.9375 25.8672V26H36.6641C36.5547 25.7708 36.4714 25.4844 36.4141 25.1406C36.362 24.7917 36.3359 24.4427 36.3359 24.0938ZM36.6328 20.8516L36.6484 22.125H35.3906C35.0938 22.125 34.8359 22.1589 34.6172 22.2266C34.3984 22.2943 34.2188 22.3906 34.0781 22.5156C33.9375 22.6354 33.8333 22.776 33.7656 22.9375C33.7031 23.099 33.6719 23.276 33.6719 23.4688C33.6719 23.6615 33.7161 23.8359 33.8047 23.9922C33.8932 24.1432 34.0208 24.263 34.1875 24.3516C34.3542 24.4349 34.5495 24.4766 34.7734 24.4766C35.112 24.4766 35.4062 24.4089 35.6562 24.2734C35.9062 24.138 36.099 23.9714 36.2344 23.7734C36.375 23.5755 36.4479 23.388 36.4531 23.2109L37.0469 24.1641C36.9635 24.3776 36.849 24.599 36.7031 24.8281C36.5625 25.0573 36.3828 25.2734 36.1641 25.4766C35.9453 25.6745 35.6823 25.8385 35.375 25.9688C35.0677 26.0938 34.7031 26.1562 34.2812 26.1562C33.7448 26.1562 33.2578 26.0495 32.8203 25.8359C32.388 25.6172 32.0443 25.3177 31.7891 24.9375C31.5391 24.5521 31.4141 24.1146 31.4141 23.625C31.4141 23.1823 31.4974 22.7891 31.6641 22.4453C31.8307 22.1016 32.0755 21.8125 32.3984 21.5781C32.7266 21.3385 33.1354 21.1589 33.625 21.0391C34.1146 20.9141 34.6823 20.8516 35.3281 20.8516H36.6328ZM45.5156 13.8281H47.3359C47.3359 14.25 47.2839 14.612 47.1797 14.9141C47.0755 15.2109 46.9089 15.4661 46.6797 15.6797C46.4505 15.888 46.1432 16.0651 45.7578 16.2109C45.3724 16.3568 44.8958 16.4818 44.3281 16.5859C43.8906 16.6745 43.5104 16.8203 43.1875 17.0234C42.8698 17.2266 42.6068 17.5052 42.3984 17.8594C42.1953 18.2083 42.0495 18.651 41.9609 19.1875C41.8724 19.7188 41.8411 20.3594 41.8672 21.1094V21.4844L40.1172 21.7266V21.3516C40.1224 20.3307 40.2135 19.4427 40.3906 18.6875C40.5729 17.9323 40.8307 17.2969 41.1641 16.7812C41.4974 16.2604 41.8984 15.8464 42.3672 15.5391C42.8359 15.2266 43.3568 15.0078 43.9297 14.8828C44.3151 14.7995 44.6224 14.7188 44.8516 14.6406C45.0859 14.5573 45.2552 14.4531 45.3594 14.3281C45.4635 14.2031 45.5156 14.0365 45.5156 13.8281ZM44.5312 18.0234C45.1042 18.0234 45.612 18.1224 46.0547 18.3203C46.4974 18.513 46.8698 18.7865 47.1719 19.1406C47.474 19.4948 47.7031 19.9115 47.8594 20.3906C48.0156 20.8698 48.0938 21.3932 48.0938 21.9609V22.125C48.0938 22.7031 48.0052 23.2396 47.8281 23.7344C47.6562 24.224 47.401 24.651 47.0625 25.0156C46.724 25.3802 46.3073 25.6641 45.8125 25.8672C45.3177 26.0651 44.7526 26.1641 44.1172 26.1641C43.4766 26.1641 42.9062 26.0573 42.4062 25.8438C41.9115 25.625 41.4922 25.3203 41.1484 24.9297C40.8099 24.5339 40.5521 24.0729 40.375 23.5469C40.2031 23.0156 40.1172 22.4375 40.1172 21.8125V21.6406C40.1172 21.5521 40.1562 21.4661 40.2344 21.3828C40.3177 21.2943 40.4141 21.1953 40.5234 21.0859C40.638 20.9766 40.7396 20.8385 40.8281 20.6719C41.1406 20.0938 41.4818 19.6094 41.8516 19.2188C42.2214 18.8229 42.625 18.526 43.0625 18.3281C43.5052 18.125 43.9948 18.0234 44.5312 18.0234ZM44.1016 19.7812C43.6797 19.7812 43.3411 19.8828 43.0859 20.0859C42.8307 20.2839 42.6458 20.5495 42.5312 20.8828C42.4219 21.2109 42.3672 21.5703 42.3672 21.9609V22.125C42.3672 22.4427 42.3984 22.7396 42.4609 23.0156C42.5234 23.2865 42.6224 23.5286 42.7578 23.7422C42.8932 23.9505 43.0729 24.1146 43.2969 24.2344C43.5208 24.349 43.7943 24.4062 44.1172 24.4062C44.4297 24.4062 44.6953 24.349 44.9141 24.2344C45.138 24.1146 45.3177 23.9505 45.4531 23.7422C45.5885 23.5286 45.6875 23.2865 45.75 23.0156C45.8125 22.7396 45.8438 22.4427 45.8438 22.125V21.9609C45.8438 21.6641 45.8125 21.3854 45.75 21.125C45.6875 20.8594 45.5885 20.6276 45.4531 20.4297C45.3177 20.2266 45.138 20.0677 44.9141 19.9531C44.6901 19.8385 44.4193 19.7812 44.1016 19.7812ZM51.9688 25.0469L54.2109 17.5469H56.625L53.2266 27.2734C53.1536 27.487 53.0547 27.7161 52.9297 27.9609C52.8099 28.2057 52.6458 28.4375 52.4375 28.6562C52.2344 28.8802 51.9766 29.0625 51.6641 29.2031C51.3568 29.3438 50.9792 29.4141 50.5312 29.4141C50.3177 29.4141 50.1432 29.401 50.0078 29.375C49.8724 29.349 49.7109 29.3125 49.5234 29.2656V27.6172C49.5807 27.6172 49.6406 27.6172 49.7031 27.6172C49.7656 27.6224 49.8255 27.625 49.8828 27.625C50.1797 27.625 50.4219 27.5911 50.6094 27.5234C50.7969 27.4557 50.9479 27.3516 51.0625 27.2109C51.1771 27.0755 51.2682 26.8984 51.3359 26.6797L51.9688 25.0469ZM51.0312 17.5469L52.8672 23.6719L53.1875 26.0547L51.6562 26.2188L48.6172 17.5469H51.0312ZM62.8828 17.5469V19.3125H58.7266V17.5469H62.8828ZM64.5312 17.5469V26H62.2812V17.5469H64.5312ZM58.1641 17.5469H60.375L60.1484 21.8125C60.1172 22.4219 60.0521 22.9583 59.9531 23.4219C59.8542 23.8854 59.7214 24.2812 59.5547 24.6094C59.3932 24.9375 59.1979 25.2057 58.9688 25.4141C58.7448 25.6172 58.4818 25.7656 58.1797 25.8594C57.8828 25.9531 57.5547 26 57.1953 26H56.5078L56.4844 24.2266L56.7734 24.1953C56.9401 24.1797 57.0859 24.1328 57.2109 24.0547C57.3411 23.9714 57.4505 23.8542 57.5391 23.7031C57.6328 23.5469 57.7109 23.3516 57.7734 23.1172C57.8359 22.8776 57.8854 22.5964 57.9219 22.2734C57.9635 21.9505 57.9922 21.5781 58.0078 21.1562L58.1641 17.5469ZM68.5156 22.8594L71.3516 17.5469H73.6016V26H71.3516V20.6797L68.5156 26H66.2656V17.5469H68.5156V22.8594ZM85.0078 17.5469V19.3125H80.9141V17.5469H85.0078ZM81.5625 17.5469V26H79.3125V17.5469H81.5625ZM86.6484 17.5469V26H84.3906V17.5469H86.6484ZM92.9453 24.0938V20.3281C92.9453 20.0573 92.901 19.8255 92.8125 19.6328C92.724 19.4349 92.5859 19.2812 92.3984 19.1719C92.2161 19.0625 91.9792 19.0078 91.6875 19.0078C91.4375 19.0078 91.2214 19.0521 91.0391 19.1406C90.8568 19.224 90.7161 19.3464 90.6172 19.5078C90.5182 19.6641 90.4688 19.849 90.4688 20.0625H88.2188C88.2188 19.7031 88.3021 19.362 88.4688 19.0391C88.6354 18.7161 88.8776 18.4323 89.1953 18.1875C89.513 17.9375 89.8906 17.7422 90.3281 17.6016C90.7708 17.4609 91.2656 17.3906 91.8125 17.3906C92.4688 17.3906 93.0521 17.5 93.5625 17.7188C94.0729 17.9375 94.474 18.2656 94.7656 18.7031C95.0625 19.1406 95.2109 19.6875 95.2109 20.3438V23.9609C95.2109 24.4245 95.2396 24.8047 95.2969 25.1016C95.3542 25.3932 95.4375 25.6484 95.5469 25.8672V26H93.2734C93.1641 25.7708 93.0807 25.4844 93.0234 25.1406C92.9714 24.7917 92.9453 24.4427 92.9453 24.0938ZM93.2422 20.8516L93.2578 22.125H92C91.7031 22.125 91.4453 22.1589 91.2266 22.2266C91.0078 22.2943 90.8281 22.3906 90.6875 22.5156C90.5469 22.6354 90.4427 22.776 90.375 22.9375C90.3125 23.099 90.2812 23.276 90.2812 23.4688C90.2812 23.6615 90.3255 23.8359 90.4141 23.9922C90.5026 24.1432 90.6302 24.263 90.7969 24.3516C90.9635 24.4349 91.1589 24.4766 91.3828 24.4766C91.7214 24.4766 92.0156 24.4089 92.2656 24.2734C92.5156 24.138 92.7083 23.9714 92.8438 23.7734C92.9844 23.5755 93.0573 23.388 93.0625 23.2109L93.6562 24.1641C93.5729 24.3776 93.4583 24.599 93.3125 24.8281C93.1719 25.0573 92.9922 25.2734 92.7734 25.4766C92.5547 25.6745 92.2917 25.8385 91.9844 25.9688C91.6771 26.0938 91.3125 26.1562 90.8906 26.1562C90.3542 26.1562 89.8672 26.0495 89.4297 25.8359C88.9974 25.6172 88.6536 25.3177 88.3984 24.9375C88.1484 24.5521 88.0234 24.1146 88.0234 23.625C88.0234 23.1823 88.1068 22.7891 88.2734 22.4453C88.4401 22.1016 88.6849 21.8125 89.0078 21.5781C89.3359 21.3385 89.7448 21.1589 90.2344 21.0391C90.724 20.9141 91.2917 20.8516 91.9375 20.8516H93.2422ZM99.1953 19.1719V29.25H96.9453V17.5469H99.0312L99.1953 19.1719ZM104.547 21.6797V21.8438C104.547 22.4583 104.474 23.0286 104.328 23.5547C104.188 24.0807 103.979 24.5391 103.703 24.9297C103.427 25.3151 103.083 25.6172 102.672 25.8359C102.266 26.0495 101.797 26.1562 101.266 26.1562C100.75 26.1562 100.302 26.0521 99.9219 25.8438C99.5417 25.6354 99.2214 25.3438 98.9609 24.9688C98.7057 24.5885 98.5 24.1484 98.3438 23.6484C98.1875 23.1484 98.0677 22.612 97.9844 22.0391V21.6094C98.0677 20.9948 98.1875 20.4323 98.3438 19.9219C98.5 19.4062 98.7057 18.9609 98.9609 18.5859C99.2214 18.2057 99.5391 17.9115 99.9141 17.7031C100.294 17.4948 100.74 17.3906 101.25 17.3906C101.786 17.3906 102.258 17.4922 102.664 17.6953C103.076 17.8984 103.419 18.1901 103.695 18.5703C103.977 18.9505 104.188 19.4036 104.328 19.9297C104.474 20.4557 104.547 21.0391 104.547 21.6797ZM102.289 21.8438V21.6797C102.289 21.3203 102.258 20.9896 102.195 20.6875C102.138 20.3802 102.044 20.112 101.914 19.8828C101.789 19.6536 101.622 19.4766 101.414 19.3516C101.211 19.2214 100.964 19.1562 100.672 19.1562C100.365 19.1562 100.102 19.2057 99.8828 19.3047C99.6693 19.4036 99.4948 19.5469 99.3594 19.7344C99.224 19.9219 99.1224 20.1458 99.0547 20.4062C98.987 20.6667 98.9453 20.9609 98.9297 21.2891V22.375C98.9557 22.7604 99.0286 23.1068 99.1484 23.4141C99.2682 23.7161 99.4531 23.9557 99.7031 24.1328C99.9531 24.3099 100.281 24.3984 100.688 24.3984C100.984 24.3984 101.234 24.3333 101.438 24.2031C101.641 24.0677 101.805 23.8828 101.93 23.6484C102.06 23.4141 102.151 23.1432 102.203 22.8359C102.26 22.5286 102.289 22.1979 102.289 21.8438ZM105.586 21.8594V21.6953C105.586 21.0755 105.674 20.5052 105.852 19.9844C106.029 19.4583 106.286 19.0026 106.625 18.6172C106.964 18.2318 107.38 17.9323 107.875 17.7188C108.37 17.5 108.938 17.3906 109.578 17.3906C110.219 17.3906 110.789 17.5 111.289 17.7188C111.789 17.9323 112.208 18.2318 112.547 18.6172C112.891 19.0026 113.151 19.4583 113.328 19.9844C113.505 20.5052 113.594 21.0755 113.594 21.6953V21.8594C113.594 22.474 113.505 23.0443 113.328 23.5703C113.151 24.0911 112.891 24.5469 112.547 24.9375C112.208 25.3229 111.792 25.6224 111.297 25.8359C110.802 26.0495 110.234 26.1562 109.594 26.1562C108.953 26.1562 108.383 26.0495 107.883 25.8359C107.388 25.6224 106.969 25.3229 106.625 24.9375C106.286 24.5469 106.029 24.0911 105.852 23.5703C105.674 23.0443 105.586 22.474 105.586 21.8594ZM107.836 21.6953V21.8594C107.836 22.2135 107.867 22.5443 107.93 22.8516C107.992 23.1589 108.091 23.4297 108.227 23.6641C108.367 23.8932 108.549 24.0729 108.773 24.2031C108.997 24.3333 109.271 24.3984 109.594 24.3984C109.906 24.3984 110.174 24.3333 110.398 24.2031C110.622 24.0729 110.802 23.8932 110.938 23.6641C111.073 23.4297 111.172 23.1589 111.234 22.8516C111.302 22.5443 111.336 22.2135 111.336 21.8594V21.6953C111.336 21.3516 111.302 21.0286 111.234 20.7266C111.172 20.4193 111.07 20.1484 110.93 19.9141C110.794 19.6745 110.615 19.487 110.391 19.3516C110.167 19.2161 109.896 19.1484 109.578 19.1484C109.26 19.1484 108.99 19.2161 108.766 19.3516C108.547 19.487 108.367 19.6745 108.227 19.9141C108.091 20.1484 107.992 20.4193 107.93 20.7266C107.867 21.0286 107.836 21.3516 107.836 21.6953ZM120.539 17.5469V19.3125H116.383V17.5469H120.539ZM122.188 17.5469V26H119.938V17.5469H122.188ZM115.82 17.5469H118.031L117.805 21.8125C117.773 22.4219 117.708 22.9583 117.609 23.4219C117.51 23.8854 117.378 24.2812 117.211 24.6094C117.049 24.9375 116.854 25.2057 116.625 25.4141C116.401 25.6172 116.138 25.7656 115.836 25.8594C115.539 25.9531 115.211 26 114.852 26H114.164L114.141 24.2266L114.43 24.1953C114.596 24.1797 114.742 24.1328 114.867 24.0547C114.997 23.9714 115.107 23.8542 115.195 23.7031C115.289 23.5469 115.367 23.3516 115.43 23.1172C115.492 22.8776 115.542 22.5964 115.578 22.2734C115.62 21.9505 115.648 21.5781 115.664 21.1562L115.82 17.5469ZM125.484 20.0547H127.938C128.708 20.0547 129.365 20.1823 129.906 20.4375C130.453 20.6875 130.87 21.0365 131.156 21.4844C131.448 21.9323 131.594 22.4505 131.594 23.0391C131.594 23.4661 131.51 23.862 131.344 24.2266C131.182 24.5859 130.945 24.8984 130.633 25.1641C130.32 25.4297 129.938 25.6354 129.484 25.7812C129.031 25.9271 128.516 26 127.938 26H124.078V17.5469H126.336V24.25H127.938C128.276 24.25 128.547 24.1953 128.75 24.0859C128.958 23.9714 129.109 23.8229 129.203 23.6406C129.302 23.4583 129.352 23.2604 129.352 23.0469C129.352 22.8229 129.302 22.6198 129.203 22.4375C129.109 22.25 128.958 22.099 128.75 21.9844C128.547 21.8698 128.276 21.8125 127.938 21.8125H125.484V20.0547Z"
            fill="#757575"/>
    <defs>
        <filter id="filter0_d_151_511" x="0" y="0" width="154" height="44"
                filterUnits="userSpaceOnUse" color-interpolation-filters="sRGB">
            <feFlood flood-opacity="0" result="BackgroundImageFix"/>
            <feColorMatrix in="SourceAlpha" type="matrix"
                           values="0 0 0 0 0 0 0 0 0 0 0 0 0 0 0 0 0 0 127 0"
                           result="hardAlpha"/>
            <feOffset dy="1"/>
            <feGaussianBlur stdDeviation="1"/>
            <feComposite in2="hardAlpha" operator="out"/>
            <feColorMatrix type="matrix"
                           values="0 0 0 0 0 0 0 0 0 0 0 0 0 0 0 0 0 0 0.25 0"/>
            <feBlend mode="normal" in2="BackgroundImageFix"
                     result="effect1_dropShadow_151_511"/>
            <feBlend mode="normal" in="SourceGraphic" in2="effect1_dropShadow_151_511"
                     result="shape"/>
        </filter>
    </defs>
</svg>