<svg width="154" height="44" viewBox="0 0 154 44" fill="none"
     xmlns="http://www.w3.org/2000/svg">
    <g filter="url(#filter0_d_151_510)">
        <rect x="2" y="1" width="150" height="40" rx="10" fill="#F8F8F8"/>
    </g>
    <path
            d="M35.4766 20.5469H33.7109V19.3047H35.1172C35.5286 19.3047 35.862 19.2422 36.1172 19.1172C36.3724 18.987 36.5599 18.8047 36.6797 18.5703C36.7995 18.3359 36.8594 18.0599 36.8594 17.7422C36.8594 17.4818 36.7917 17.2422 36.6562 17.0234C36.526 16.8047 36.3229 16.6302 36.0469 16.5C35.7708 16.3646 35.4193 16.2969 34.9922 16.2969C34.6693 16.2969 34.375 16.3542 34.1094 16.4688C33.8438 16.5833 33.6328 16.7448 33.4766 16.9531C33.3203 17.1562 33.2422 17.4036 33.2422 17.6953H30.9062C30.9062 17.1953 31.013 16.7474 31.2266 16.3516C31.4453 15.9505 31.7422 15.612 32.1172 15.3359C32.4974 15.0547 32.9349 14.8411 33.4297 14.6953C33.9245 14.5495 34.4453 14.4766 34.9922 14.4766C35.6328 14.4766 36.2109 14.5469 36.7266 14.6875C37.2422 14.8229 37.6849 15.026 38.0547 15.2969C38.4245 15.5677 38.7083 15.9036 38.9062 16.3047C39.1042 16.7057 39.2031 17.1719 39.2031 17.7031C39.2031 18.0938 39.1146 18.4609 38.9375 18.8047C38.7604 19.1484 38.5078 19.4505 38.1797 19.7109C37.8516 19.9714 37.4583 20.1771 37 20.3281C36.5417 20.474 36.0339 20.5469 35.4766 20.5469ZM33.7109 19.8672H35.4766C36.0964 19.8672 36.6458 19.9323 37.125 20.0625C37.6094 20.1927 38.0182 20.3828 38.3516 20.6328C38.6901 20.8828 38.9453 21.1927 39.1172 21.5625C39.2943 21.9271 39.3828 22.3464 39.3828 22.8203C39.3828 23.3516 39.2734 23.8229 39.0547 24.2344C38.8411 24.6458 38.5365 24.9948 38.1406 25.2812C37.75 25.5677 37.2865 25.7839 36.75 25.9297C36.2188 26.0755 35.6328 26.1484 34.9922 26.1484C34.4818 26.1484 33.974 26.0859 33.4688 25.9609C32.9635 25.8307 32.5052 25.6328 32.0938 25.3672C31.6823 25.1016 31.3542 24.7604 31.1094 24.3438C30.8646 23.9271 30.7422 23.4271 30.7422 22.8438H33.0938C33.0938 23.1198 33.1745 23.3724 33.3359 23.6016C33.4974 23.8255 33.7214 24.0052 34.0078 24.1406C34.2943 24.2708 34.6224 24.3359 34.9922 24.3359C35.4245 24.3359 35.7917 24.2682 36.0938 24.1328C36.401 23.9974 36.6328 23.8125 36.7891 23.5781C36.9505 23.3385 37.0312 23.0755 37.0312 22.7891C37.0312 22.4818 36.9896 22.2214 36.9062 22.0078C36.8229 21.7943 36.7005 21.6198 36.5391 21.4844C36.3776 21.3438 36.1771 21.2422 35.9375 21.1797C35.7031 21.1172 35.4297 21.0859 35.1172 21.0859H33.7109V19.8672ZM45.5391 24.0938V20.3281C45.5391 20.0573 45.4948 19.8255 45.4062 19.6328C45.3177 19.4349 45.1797 19.2812 44.9922 19.1719C44.8099 19.0625 44.5729 19.0078 44.2812 19.0078C44.0312 19.0078 43.8151 19.0521 43.6328 19.1406C43.4505 19.224 43.3099 19.3464 43.2109 19.5078C43.112 19.6641 43.0625 19.849 43.0625 20.0625H40.8125C40.8125 19.7031 40.8958 19.362 41.0625 19.0391C41.2292 18.7161 41.4714 18.4323 41.7891 18.1875C42.1068 17.9375 42.4844 17.7422 42.9219 17.6016C43.3646 17.4609 43.8594 17.3906 44.4062 17.3906C45.0625 17.3906 45.6458 17.5 46.1562 17.7188C46.6667 17.9375 47.0677 18.2656 47.3594 18.7031C47.6562 19.1406 47.8047 19.6875 47.8047 20.3438V23.9609C47.8047 24.4245 47.8333 24.8047 47.8906 25.1016C47.9479 25.3932 48.0312 25.6484 48.1406 25.8672V26H45.8672C45.7578 25.7708 45.6745 25.4844 45.6172 25.1406C45.5651 24.7917 45.5391 24.4427 45.5391 24.0938ZM45.8359 20.8516L45.8516 22.125H44.5938C44.2969 22.125 44.0391 22.1589 43.8203 22.2266C43.6016 22.2943 43.4219 22.3906 43.2812 22.5156C43.1406 22.6354 43.0365 22.776 42.9688 22.9375C42.9062 23.099 42.875 23.276 42.875 23.4688C42.875 23.6615 42.9193 23.8359 43.0078 23.9922C43.0964 24.1432 43.224 24.263 43.3906 24.3516C43.5573 24.4349 43.7526 24.4766 43.9766 24.4766C44.3151 24.4766 44.6094 24.4089 44.8594 24.2734C45.1094 24.138 45.3021 23.9714 45.4375 23.7734C45.5781 23.5755 45.651 23.388 45.6562 23.2109L46.25 24.1641C46.1667 24.3776 46.0521 24.599 45.9062 24.8281C45.7656 25.0573 45.5859 25.2734 45.3672 25.4766C45.1484 25.6745 44.8854 25.8385 44.5781 25.9688C44.2708 26.0938 43.9062 26.1562 43.4844 26.1562C42.9479 26.1562 42.4609 26.0495 42.0234 25.8359C41.5911 25.6172 41.2474 25.3177 40.9922 24.9375C40.7422 24.5521 40.6172 24.1146 40.6172 23.625C40.6172 23.1823 40.7005 22.7891 40.8672 22.4453C41.0339 22.1016 41.2786 21.8125 41.6016 21.5781C41.9297 21.3385 42.3385 21.1589 42.8281 21.0391C43.3177 20.9141 43.8854 20.8516 44.5312 20.8516H45.8359ZM55.2266 17.5469V19.3125H51.1328V17.5469H55.2266ZM51.7812 17.5469V26H49.5312V17.5469H51.7812ZM56.8672 17.5469V26H54.6094V17.5469H56.8672ZM63.1641 24.0938V20.3281C63.1641 20.0573 63.1198 19.8255 63.0312 19.6328C62.9427 19.4349 62.8047 19.2812 62.6172 19.1719C62.4349 19.0625 62.1979 19.0078 61.9062 19.0078C61.6562 19.0078 61.4401 19.0521 61.2578 19.1406C61.0755 19.224 60.9349 19.3464 60.8359 19.5078C60.737 19.6641 60.6875 19.849 60.6875 20.0625H58.4375C58.4375 19.7031 58.5208 19.362 58.6875 19.0391C58.8542 18.7161 59.0964 18.4323 59.4141 18.1875C59.7318 17.9375 60.1094 17.7422 60.5469 17.6016C60.9896 17.4609 61.4844 17.3906 62.0312 17.3906C62.6875 17.3906 63.2708 17.5 63.7812 17.7188C64.2917 17.9375 64.6927 18.2656 64.9844 18.7031C65.2812 19.1406 65.4297 19.6875 65.4297 20.3438V23.9609C65.4297 24.4245 65.4583 24.8047 65.5156 25.1016C65.5729 25.3932 65.6562 25.6484 65.7656 25.8672V26H63.4922C63.3828 25.7708 63.2995 25.4844 63.2422 25.1406C63.1901 24.7917 63.1641 24.4427 63.1641 24.0938ZM63.4609 20.8516L63.4766 22.125H62.2188C61.9219 22.125 61.6641 22.1589 61.4453 22.2266C61.2266 22.2943 61.0469 22.3906 60.9062 22.5156C60.7656 22.6354 60.6615 22.776 60.5938 22.9375C60.5312 23.099 60.5 23.276 60.5 23.4688C60.5 23.6615 60.5443 23.8359 60.6328 23.9922C60.7214 24.1432 60.849 24.263 61.0156 24.3516C61.1823 24.4349 61.3776 24.4766 61.6016 24.4766C61.9401 24.4766 62.2344 24.4089 62.4844 24.2734C62.7344 24.138 62.9271 23.9714 63.0625 23.7734C63.2031 23.5755 63.276 23.388 63.2812 23.2109L63.875 24.1641C63.7917 24.3776 63.6771 24.599 63.5312 24.8281C63.3906 25.0573 63.2109 25.2734 62.9922 25.4766C62.7734 25.6745 62.5104 25.8385 62.2031 25.9688C61.8958 26.0938 61.5312 26.1562 61.1094 26.1562C60.5729 26.1562 60.0859 26.0495 59.6484 25.8359C59.2161 25.6172 58.8724 25.3177 58.6172 24.9375C58.3672 24.5521 58.2422 24.1146 58.2422 23.625C58.2422 23.1823 58.3255 22.7891 58.4922 22.4453C58.6589 22.1016 58.9036 21.8125 59.2266 21.5781C59.5547 21.3385 59.9635 21.1589 60.4531 21.0391C60.9427 20.9141 61.5104 20.8516 62.1562 20.8516H63.4609ZM72.3047 23.4141L74.5234 17.5469H76.3594L73.0625 26H71.5469L68.2656 17.5469H70.1016L72.3047 23.4141ZM69.5625 17.5469V26H67.3125V17.5469H69.5625ZM75.1016 26V17.5469H77.3516V26H75.1016ZM81.375 14V15.1875C81.375 15.526 81.3099 15.875 81.1797 16.2344C81.0547 16.5938 80.8854 16.9349 80.6719 17.2578C80.4583 17.5755 80.224 17.8464 79.9688 18.0703L78.9141 17.4609C79.1068 17.1536 79.2708 16.8203 79.4062 16.4609C79.5417 16.0964 79.6094 15.6745 79.6094 15.1953V14H81.375ZM84.8125 21.7812H87.0938L84.7422 26H82.4688L84.8125 21.7812ZM86.3281 17.5469H90.0391V26H87.7891V19.2891H86.3281C86.0208 19.2891 85.7656 19.3464 85.5625 19.4609C85.3594 19.5703 85.2083 19.7135 85.1094 19.8906C85.0156 20.0625 84.9688 20.2396 84.9688 20.4219C84.9688 20.599 85.0156 20.7708 85.1094 20.9375C85.2031 21.1042 85.349 21.2422 85.5469 21.3516C85.7448 21.4609 85.9922 21.5156 86.2891 21.5156H88.625V23.0469H86.2891C85.7318 23.0469 85.2318 22.9792 84.7891 22.8438C84.3516 22.7083 83.9766 22.5208 83.6641 22.2812C83.3568 22.0365 83.1198 21.7526 82.9531 21.4297C82.7917 21.1016 82.7109 20.7422 82.7109 20.3516C82.7109 19.9453 82.7943 19.5729 82.9609 19.2344C83.1276 18.8958 83.3672 18.599 83.6797 18.3438C83.9922 18.0885 84.3698 17.8932 84.8125 17.7578C85.2604 17.6172 85.7656 17.5469 86.3281 17.5469ZM96.25 17.5469V26H93.9922V17.5469H96.25ZM98.9688 17.5469V19.2891H91.3125V17.5469H98.9688ZM104.555 24.0938V20.3281C104.555 20.0573 104.51 19.8255 104.422 19.6328C104.333 19.4349 104.195 19.2812 104.008 19.1719C103.826 19.0625 103.589 19.0078 103.297 19.0078C103.047 19.0078 102.831 19.0521 102.648 19.1406C102.466 19.224 102.326 19.3464 102.227 19.5078C102.128 19.6641 102.078 19.849 102.078 20.0625H99.8281C99.8281 19.7031 99.9115 19.362 100.078 19.0391C100.245 18.7161 100.487 18.4323 100.805 18.1875C101.122 17.9375 101.5 17.7422 101.938 17.6016C102.38 17.4609 102.875 17.3906 103.422 17.3906C104.078 17.3906 104.661 17.5 105.172 17.7188C105.682 17.9375 106.083 18.2656 106.375 18.7031C106.672 19.1406 106.82 19.6875 106.82 20.3438V23.9609C106.82 24.4245 106.849 24.8047 106.906 25.1016C106.964 25.3932 107.047 25.6484 107.156 25.8672V26H104.883C104.773 25.7708 104.69 25.4844 104.633 25.1406C104.581 24.7917 104.555 24.4427 104.555 24.0938ZM104.852 20.8516L104.867 22.125H103.609C103.312 22.125 103.055 22.1589 102.836 22.2266C102.617 22.2943 102.438 22.3906 102.297 22.5156C102.156 22.6354 102.052 22.776 101.984 22.9375C101.922 23.099 101.891 23.276 101.891 23.4688C101.891 23.6615 101.935 23.8359 102.023 23.9922C102.112 24.1432 102.24 24.263 102.406 24.3516C102.573 24.4349 102.768 24.4766 102.992 24.4766C103.331 24.4766 103.625 24.4089 103.875 24.2734C104.125 24.138 104.318 23.9714 104.453 23.7734C104.594 23.5755 104.667 23.388 104.672 23.2109L105.266 24.1641C105.182 24.3776 105.068 24.599 104.922 24.8281C104.781 25.0573 104.602 25.2734 104.383 25.4766C104.164 25.6745 103.901 25.8385 103.594 25.9688C103.286 26.0938 102.922 26.1562 102.5 26.1562C101.964 26.1562 101.477 26.0495 101.039 25.8359C100.607 25.6172 100.263 25.3177 100.008 24.9375C99.7578 24.5521 99.6328 24.1146 99.6328 23.625C99.6328 23.1823 99.7161 22.7891 99.8828 22.4453C100.049 22.1016 100.294 21.8125 100.617 21.5781C100.945 21.3385 101.354 21.1589 101.844 21.0391C102.333 20.9141 102.901 20.8516 103.547 20.8516H104.852ZM112.734 17.5469V26H110.477V17.5469H112.734ZM115.453 17.5469V19.2891H107.797V17.5469H115.453ZM118.844 22.8594L121.68 17.5469H123.93V26H121.68V20.6797L118.844 26H116.594V17.5469H118.844V22.8594Z"
            fill="#757575"/>
    <defs>
        <filter id="filter0_d_151_510" x="0" y="0" width="154" height="44"
                filterUnits="userSpaceOnUse" color-interpolation-filters="sRGB">
            <feFlood flood-opacity="0" result="BackgroundImageFix"/>
            <feColorMatrix in="SourceAlpha" type="matrix"
                           values="0 0 0 0 0 0 0 0 0 0 0 0 0 0 0 0 0 0 127 0"
                           result="hardAlpha"/>
            <feOffset dy="1"/>
            <feGaussianBlur stdDeviation="1"/>
            <feComposite in2="hardAlpha" operator="out"/>
            <feColorMatrix type="matrix"
                           values="0 0 0 0 0 0 0 0 0 0 0 0 0 0 0 0 0 0 0.25 0"/>
            <feBlend mode="normal" in2="BackgroundImageFix"
                     result="effect1_dropShadow_151_510"/>
            <feBlend mode="normal" in="SourceGraphic" in2="effect1_dropShadow_151_510"
                     result="shape"/>
        </filter>
    </defs>
</svg>