<svg width="122" height="20" viewBox="0 0 122 20" fill="none" xmlns="http://www.w3.org/2000/svg">
    <path d="M31.9922 3.625H33.7422L37.0312 12.3984L40.3125 3.625H42.0625L37.7188 15H36.3281L31.9922 3.625ZM31.1953 3.625H32.8594L33.1484 11.2188V15H31.1953V3.625ZM41.1953 3.625H42.8672V15H40.9062V11.2188L41.1953 3.625ZM46.8984 8.17188V18.25H45.0156V6.54688H46.75L46.8984 8.17188ZM52.4062 10.6953V10.8594C52.4062 11.474 52.3333 12.0443 52.1875 12.5703C52.0469 13.0911 51.8359 13.5469 51.5547 13.9375C51.2786 14.3229 50.9375 14.6224 50.5312 14.8359C50.125 15.0495 49.6562 15.1562 49.125 15.1562C48.599 15.1562 48.138 15.0599 47.7422 14.8672C47.3516 14.6693 47.0208 14.3906 46.75 14.0312C46.4792 13.6719 46.2604 13.25 46.0938 12.7656C45.9323 12.276 45.8177 11.7396 45.75 11.1562V10.5234C45.8177 9.90365 45.9323 9.34115 46.0938 8.83594C46.2604 8.33073 46.4792 7.89583 46.75 7.53125C47.0208 7.16667 47.3516 6.88542 47.7422 6.6875C48.1328 6.48958 48.5885 6.39062 49.1094 6.39062C49.6406 6.39062 50.112 6.49479 50.5234 6.70312C50.9349 6.90625 51.2812 7.19792 51.5625 7.57812C51.8438 7.95312 52.0547 8.40625 52.1953 8.9375C52.3359 9.46354 52.4062 10.0495 52.4062 10.6953ZM50.5234 10.8594V10.6953C50.5234 10.3047 50.487 9.94271 50.4141 9.60938C50.3411 9.27083 50.2266 8.97396 50.0703 8.71875C49.9141 8.46354 49.7135 8.26562 49.4688 8.125C49.2292 7.97917 48.9401 7.90625 48.6016 7.90625C48.2682 7.90625 47.9818 7.96354 47.7422 8.07812C47.5026 8.1875 47.3021 8.34115 47.1406 8.53906C46.9792 8.73698 46.8542 8.96875 46.7656 9.23438C46.6771 9.49479 46.6146 9.77865 46.5781 10.0859V11.6016C46.6406 11.9766 46.7474 12.3203 46.8984 12.6328C47.0495 12.9453 47.263 13.1953 47.5391 13.3828C47.8203 13.5651 48.1797 13.6562 48.6172 13.6562C48.9557 13.6562 49.2448 13.5833 49.4844 13.4375C49.724 13.2917 49.9193 13.0911 50.0703 12.8359C50.2266 12.5755 50.3411 12.276 50.4141 11.9375C50.487 11.599 50.5234 11.2396 50.5234 10.8594ZM56.0234 6.54688V15H54.1328V6.54688H56.0234ZM54.0078 4.32812C54.0078 4.04167 54.1016 3.80469 54.2891 3.61719C54.4818 3.42448 54.7474 3.32812 55.0859 3.32812C55.4193 3.32812 55.6823 3.42448 55.875 3.61719C56.0677 3.80469 56.1641 4.04167 56.1641 4.32812C56.1641 4.60938 56.0677 4.84375 55.875 5.03125C55.6823 5.21875 55.4193 5.3125 55.0859 5.3125C54.7474 5.3125 54.4818 5.21875 54.2891 5.03125C54.1016 4.84375 54.0078 4.60938 54.0078 4.32812ZM63.0625 9.96094V11.4609H58.5312V9.96094H63.0625ZM60.1406 6.54688V15H58.2578V6.54688H60.1406ZM61.6719 10.8672V10.6875C61.6719 10.0781 61.7604 9.51302 61.9375 8.99219C62.1146 8.46615 62.3724 8.01042 62.7109 7.625C63.0495 7.23438 63.4609 6.93229 63.9453 6.71875C64.4297 6.5 64.9792 6.39062 65.5938 6.39062C66.2188 6.39062 66.7734 6.5 67.2578 6.71875C67.7474 6.93229 68.1615 7.23438 68.5 7.625C68.8385 8.01042 69.0964 8.46615 69.2734 8.99219C69.4505 9.51302 69.5391 10.0781 69.5391 10.6875V10.8672C69.5391 11.4766 69.4505 12.0417 69.2734 12.5625C69.0964 13.0833 68.8385 13.5391 68.5 13.9297C68.1667 14.3151 67.7552 14.6172 67.2656 14.8359C66.7812 15.0495 66.2292 15.1562 65.6094 15.1562C64.9896 15.1562 64.4375 15.0495 63.9531 14.8359C63.4688 14.6172 63.0547 14.3151 62.7109 13.9297C62.3724 13.5391 62.1146 13.0833 61.9375 12.5625C61.7604 12.0417 61.6719 11.4766 61.6719 10.8672ZM63.5625 10.6875V10.8672C63.5625 11.2474 63.6016 11.6068 63.6797 11.9453C63.7578 12.2839 63.8802 12.5807 64.0469 12.8359C64.2135 13.0911 64.4271 13.2917 64.6875 13.4375C64.9479 13.5833 65.2552 13.6562 65.6094 13.6562C65.9635 13.6562 66.2682 13.5833 66.5234 13.4375C66.7839 13.2917 66.9974 13.0911 67.1641 12.8359C67.3307 12.5807 67.4531 12.2839 67.5312 11.9453C67.6146 11.6068 67.6562 11.2474 67.6562 10.8672V10.6875C67.6562 10.3125 67.6146 9.95833 67.5312 9.625C67.4531 9.28646 67.3307 8.98698 67.1641 8.72656C66.9974 8.46615 66.7839 8.26302 66.5234 8.11719C66.263 7.96615 65.9531 7.89062 65.5938 7.89062C65.2448 7.89062 64.9401 7.96615 64.6797 8.11719C64.4245 8.26302 64.2135 8.46615 64.0469 8.72656C63.8802 8.98698 63.7578 9.28646 63.6797 9.625C63.6016 9.95833 63.5625 10.3125 63.5625 10.6875ZM75.0234 6.54688V15H73.1328V6.54688H75.0234ZM77.7969 6.54688V8.03125H70.4062V6.54688H77.7969ZM80.4531 9.23438H82.9453C83.6745 9.23438 84.2943 9.35677 84.8047 9.60156C85.3151 9.84635 85.7031 10.1875 85.9688 10.625C86.2396 11.0573 86.375 11.5521 86.375 12.1094C86.375 12.5208 86.2995 12.9036 86.1484 13.2578C85.9974 13.6068 85.7734 13.9115 85.4766 14.1719C85.1849 14.4323 84.8255 14.6354 84.3984 14.7812C83.9766 14.9271 83.4922 15 82.9453 15H79.2031V6.54688H81.0938V13.5078H82.9453C83.3203 13.5078 83.6198 13.4427 83.8438 13.3125C84.0677 13.1823 84.2292 13.013 84.3281 12.8047C84.4323 12.5964 84.4844 12.375 84.4844 12.1406C84.4844 11.901 84.4323 11.6745 84.3281 11.4609C84.2292 11.2474 84.0677 11.0729 83.8438 10.9375C83.6198 10.8021 83.3203 10.7344 82.9453 10.7344H80.4531V9.23438ZM93.3984 6.54688H95.2812L95.1875 9.52344C95.1615 10.388 95.0625 11.1302 94.8906 11.75C94.7188 12.3698 94.4948 12.8932 94.2188 13.3203C93.9427 13.7422 93.6302 14.0885 93.2812 14.3594C92.9375 14.6302 92.5755 14.8438 92.1953 15H91.6406V13.5156L91.9062 13.5C92.1302 13.2604 92.3229 13.0208 92.4844 12.7812C92.651 12.5365 92.7917 12.2682 92.9062 11.9766C93.0208 11.6797 93.1094 11.3333 93.1719 10.9375C93.2396 10.5417 93.2839 10.0703 93.3047 9.52344L93.3984 6.54688ZM93.8984 6.54688H99.2578V15H97.3828V8.14062H93.8984V6.54688ZM91.2109 13.5H100.414V17.5156H98.5312V15H93.1172V17.5156H91.2031L91.2109 13.5ZM103.773 6.54688V15H101.883V6.54688H103.773ZM101.758 4.32812C101.758 4.04167 101.852 3.80469 102.039 3.61719C102.232 3.42448 102.497 3.32812 102.836 3.32812C103.169 3.32812 103.432 3.42448 103.625 3.61719C103.818 3.80469 103.914 4.04167 103.914 4.32812C103.914 4.60938 103.818 4.84375 103.625 5.03125C103.432 5.21875 103.169 5.3125 102.836 5.3125C102.497 5.3125 102.232 5.21875 102.039 5.03125C101.852 4.84375 101.758 4.60938 101.758 4.32812ZM109.758 6.54688V15H107.867V6.54688H109.758ZM112.531 6.54688V8.03125H105.141V6.54688H112.531ZM115.734 12.25L119.055 6.54688H120.938V15H119.055V9.28906L115.734 15H113.852V6.54688H115.734V12.25Z" fill="#757575"/>
    <path d="M12.7778 9.72222C13.1667 9.72222 13.4952 9.58778 13.7633 9.31889C14.0322 9.05074 14.1667 8.72222 14.1667 8.33333C14.1667 7.94444 14.0322 7.61593 13.7633 7.34778C13.4952 7.07889 13.1667 6.94444 12.7778 6.94444C12.3889 6.94444 12.0604 7.07889 11.7922 7.34778C11.5233 7.61593 11.3889 7.94444 11.3889 8.33333C11.3889 8.72222 11.5233 9.05074 11.7922 9.31889C12.0604 9.58778 12.3889 9.72222 12.7778 9.72222ZM7.22222 9.72222C7.61111 9.72222 7.93963 9.58778 8.20778 9.31889C8.47667 9.05074 8.61111 8.72222 8.61111 8.33333C8.61111 7.94444 8.47667 7.61593 8.20778 7.34778C7.93963 7.07889 7.61111 6.94444 7.22222 6.94444C6.83333 6.94444 6.50482 7.07889 6.23667 7.34778C5.96778 7.61593 5.83333 7.94444 5.83333 8.33333C5.83333 8.72222 5.96778 9.05074 6.23667 9.31889C6.50482 9.58778 6.83333 9.72222 7.22222 9.72222ZM10 15.5556C11.1111 15.5556 12.1159 15.25 13.0144 14.6389C13.9122 14.0278 14.5741 13.2222 15 12.2222H5C5.42593 13.2222 6.08815 14.0278 6.98667 14.6389C7.88445 15.25 8.88889 15.5556 10 15.5556ZM10 20C8.61111 20 7.31037 19.7363 6.09778 19.2089C4.88444 18.6807 3.82889 17.9674 2.93111 17.0689C2.03259 16.1711 1.31926 15.1156 0.791111 13.9022C0.263704 12.6896 0 11.3889 0 10C0 8.61111 0.263704 7.31 0.791111 6.09667C1.31926 4.88407 2.03259 3.82852 2.93111 2.93C3.82889 2.03222 4.88444 1.31926 6.09778 0.791111C7.31037 0.263704 8.61111 0 10 0C11.3889 0 12.69 0.263704 13.9033 0.791111C15.1159 1.31926 16.1715 2.03222 17.07 2.93C17.9678 3.82852 18.6807 4.88407 19.2089 6.09667C19.7363 7.31 20 8.61111 20 10C20 11.3889 19.7363 12.6896 19.2089 13.9022C18.6807 15.1156 17.9678 16.1711 17.07 17.0689C16.1715 17.9674 15.1159 18.6807 13.9033 19.2089C12.69 19.7363 11.3889 20 10 20ZM10.4444 6.11111C10.7593 6.11111 11.1159 6.05074 11.5144 5.93C11.9122 5.81 12.1111 5.53704 12.1111 5.11111C12.1111 4.88889 12.037 4.69444 11.8889 4.52778C11.7407 4.36111 11.5556 4.27778 11.3333 4.27778C11.1852 4.27778 11.0415 4.30556 10.9022 4.36111C10.7637 4.41667 10.6111 4.44444 10.4444 4.44444C10.0556 4.44444 9.72667 4.31 9.45778 4.04111C9.18963 3.77296 9.05556 3.44444 9.05556 3.05556C9.05556 2.85185 9.08815 2.68037 9.15333 2.54111C9.21778 2.40259 9.31482 2.30556 9.44444 2.25C9.09259 2.28704 8.75 2.33333 8.41667 2.38889C8.08333 2.44444 7.75926 2.53704 7.44444 2.66667C7.42593 2.72222 7.41222 2.78704 7.40333 2.86111C7.3937 2.93519 7.38889 3 7.38889 3.05556C7.38889 3.88889 7.69 4.60667 8.29222 5.20889C8.8937 5.81037 9.61111 6.11111 10.4444 6.11111Z" fill="#B8BECA"/>
</svg>
