<svg width="20" height="20" viewBox="0 0 20 20" fill="none" xmlns="http://www.w3.org/2000/svg">
    <path d="M12.7778 9.72222C13.1667 9.72222 13.4952 9.58778 13.7633 9.31889C14.0322 9.05074 14.1667 8.72222 14.1667 8.33333C14.1667 7.94444 14.0322 7.61593 13.7633 7.34778C13.4952 7.07889 13.1667 6.94444 12.7778 6.94444C12.3889 6.94444 12.0604 7.07889 11.7922 7.34778C11.5233 7.61593 11.3889 7.94444 11.3889 8.33333C11.3889 8.72222 11.5233 9.05074 11.7922 9.31889C12.0604 9.58778 12.3889 9.72222 12.7778 9.72222ZM7.22222 9.72222C7.61111 9.72222 7.93963 9.58778 8.20778 9.31889C8.47667 9.05074 8.61111 8.72222 8.61111 8.33333C8.61111 7.94444 8.47667 7.61593 8.20778 7.34778C7.93963 7.07889 7.61111 6.94444 7.22222 6.94444C6.83333 6.94444 6.50482 7.07889 6.23667 7.34778C5.96778 7.61593 5.83333 7.94444 5.83333 8.33333C5.83333 8.72222 5.96778 9.05074 6.23667 9.31889C6.50482 9.58778 6.83333 9.72222 7.22222 9.72222ZM10 15.5556C11.1111 15.5556 12.1159 15.25 13.0144 14.6389C13.9122 14.0278 14.5741 13.2222 15 12.2222H5C5.42593 13.2222 6.08815 14.0278 6.98667 14.6389C7.88445 15.25 8.88889 15.5556 10 15.5556ZM10 20C8.61111 20 7.31037 19.7363 6.09778 19.2089C4.88444 18.6807 3.82889 17.9674 2.93111 17.0689C2.03259 16.1711 1.31926 15.1156 0.791111 13.9022C0.263704 12.6896 0 11.3889 0 10C0 8.61111 0.263704 7.31 0.791111 6.09667C1.31926 4.88407 2.03259 3.82852 2.93111 2.93C3.82889 2.03222 4.88444 1.31926 6.09778 0.791111C7.31037 0.263704 8.61111 0 10 0C11.3889 0 12.69 0.263704 13.9033 0.791111C15.1159 1.31926 16.1715 2.03222 17.07 2.93C17.9678 3.82852 18.6807 4.88407 19.2089 6.09667C19.7363 7.31 20 8.61111 20 10C20 11.3889 19.7363 12.6896 19.2089 13.9022C18.6807 15.1156 17.9678 16.1711 17.07 17.0689C16.1715 17.9674 15.1159 18.6807 13.9033 19.2089C12.69 19.7363 11.3889 20 10 20ZM10.4444 6.11111C10.7593 6.11111 11.1159 6.05074 11.5144 5.93C11.9122 5.81 12.1111 5.53704 12.1111 5.11111C12.1111 4.88889 12.037 4.69444 11.8889 4.52778C11.7407 4.36111 11.5556 4.27778 11.3333 4.27778C11.1852 4.27778 11.0415 4.30556 10.9022 4.36111C10.7637 4.41667 10.6111 4.44444 10.4444 4.44444C10.0556 4.44444 9.72667 4.31 9.45778 4.04111C9.18963 3.77296 9.05556 3.44444 9.05556 3.05556C9.05556 2.85185 9.08815 2.68037 9.15333 2.54111C9.21778 2.40259 9.31482 2.30556 9.44444 2.25C9.09259 2.28704 8.75 2.33333 8.41667 2.38889C8.08333 2.44444 7.75926 2.53704 7.44444 2.66667C7.42593 2.72222 7.41222 2.78704 7.40333 2.86111C7.3937 2.93519 7.38889 3 7.38889 3.05556C7.38889 3.88889 7.69 4.60667 8.29222 5.20889C8.8937 5.81037 9.61111 6.11111 10.4444 6.11111Z" fill="#B8BECA"/>
</svg>
