<svg width="20" height="20" viewBox="0 0 20 20" fill="none" xmlns="http://www.w3.org/2000/svg">
    <circle cx="10" cy="10" r="10" fill="#B8BECA"/>
    <path d="M10.7266 11.5234H8.73438C8.73958 11.0547 8.77604 10.651 8.84375 10.3125C8.91667 9.96875 9.03906 9.65885 9.21094 9.38281C9.38802 9.10677 9.6224 8.83333 9.91406 8.5625C10.1589 8.34375 10.3724 8.13542 10.5547 7.9375C10.737 7.73958 10.8802 7.53646 10.9844 7.32812C11.0885 7.11458 11.1406 6.8776 11.1406 6.61719C11.1406 6.3151 11.0938 6.0651 11 5.86719C10.9115 5.66406 10.776 5.51042 10.5938 5.40625C10.4167 5.30208 10.1927 5.25 9.92188 5.25C9.69792 5.25 9.48958 5.29948 9.29688 5.39844C9.10417 5.49219 8.94531 5.63802 8.82031 5.83594C8.70052 6.03385 8.63802 6.29427 8.63281 6.61719H6.36719C6.38281 5.90365 6.54688 5.3151 6.85938 4.85156C7.17708 4.38281 7.60156 4.03646 8.13281 3.8125C8.66406 3.58333 9.26042 3.46875 9.92188 3.46875C10.651 3.46875 11.276 3.58854 11.7969 3.82812C12.3177 4.0625 12.7161 4.40885 12.9922 4.86719C13.2682 5.32031 13.4062 5.8724 13.4062 6.52344C13.4062 6.97656 13.3177 7.38021 13.1406 7.73438C12.9635 8.08333 12.7318 8.40885 12.4453 8.71094C12.1589 9.01302 11.8438 9.32552 11.5 9.64844C11.2031 9.91406 11 10.1927 10.8906 10.4844C10.7865 10.776 10.7318 11.1224 10.7266 11.5234ZM8.5 13.9375C8.5 13.6042 8.61458 13.3281 8.84375 13.1094C9.07292 12.8854 9.38021 12.7734 9.76562 12.7734C10.1458 12.7734 10.4505 12.8854 10.6797 13.1094C10.9141 13.3281 11.0312 13.6042 11.0312 13.9375C11.0312 14.2604 10.9141 14.5339 10.6797 14.7578C10.4505 14.9818 10.1458 15.0938 9.76562 15.0938C9.38021 15.0938 9.07292 14.9818 8.84375 14.7578C8.61458 14.5339 8.5 14.2604 8.5 13.9375Z" fill="white"/>
</svg>
