<svg width="60" height="20" viewBox="0 0 60 20" fill="none" xmlns="http://www.w3.org/2000/svg">
    <path d="M34.1484 3.625V15H32.1875V3.625H34.1484ZM38.7891 8.60156V10.1562H33.6484V8.60156H38.7891ZM39.4375 3.625V5.1875H33.6484V3.625H39.4375ZM44.0391 5.14062L40.6406 15H38.5859L42.8672 3.625H44.1797L44.0391 5.14062ZM46.8828 15L43.4766 5.14062L43.3281 3.625H44.6484L48.9453 15H46.8828ZM46.7188 10.7812V12.3359H40.5312V10.7812H46.7188ZM56.1172 13.4844L59.1094 15.8594L57.8359 16.9766L54.8984 14.625L56.1172 13.4844ZM59.1328 9V9.625C59.1328 10.4844 59.0208 11.2552 58.7969 11.9375C58.5729 12.6198 58.2526 13.2005 57.8359 13.6797C57.4193 14.1589 56.9219 14.526 56.3438 14.7812C55.7656 15.0312 55.125 15.1562 54.4219 15.1562C53.724 15.1562 53.0859 15.0312 52.5078 14.7812C51.9349 14.526 51.4375 14.1589 51.0156 13.6797C50.5938 13.2005 50.2656 12.6198 50.0312 11.9375C49.8021 11.2552 49.6875 10.4844 49.6875 9.625V9C49.6875 8.14062 49.8021 7.3724 50.0312 6.69531C50.2604 6.01302 50.5833 5.43229 51 4.95312C51.4219 4.46875 51.9193 4.10156 52.4922 3.85156C53.0703 3.59635 53.7083 3.46875 54.4062 3.46875C55.1094 3.46875 55.75 3.59635 56.3281 3.85156C56.9115 4.10156 57.4115 4.46875 57.8281 4.95312C58.2448 5.43229 58.5651 6.01302 58.7891 6.69531C59.0182 7.3724 59.1328 8.14062 59.1328 9ZM57.1641 9.625V8.98438C57.1641 8.34896 57.1016 7.78906 56.9766 7.30469C56.8568 6.8151 56.6771 6.40625 56.4375 6.07812C56.2031 5.74479 55.9141 5.49479 55.5703 5.32812C55.2318 5.15625 54.8438 5.07031 54.4062 5.07031C53.9792 5.07031 53.5964 5.15625 53.2578 5.32812C52.9193 5.49479 52.6302 5.74479 52.3906 6.07812C52.151 6.40625 51.9688 6.8151 51.8438 7.30469C51.7188 7.78906 51.6562 8.34896 51.6562 8.98438V9.625C51.6562 10.2604 51.7188 10.8229 51.8438 11.3125C51.9688 11.8021 52.151 12.2161 52.3906 12.5547C52.6354 12.888 52.9271 13.1406 53.2656 13.3125C53.6094 13.4792 53.9948 13.5625 54.4219 13.5625C54.8594 13.5625 55.2474 13.4792 55.5859 13.3125C55.9245 13.1406 56.2109 12.888 56.4453 12.5547C56.6797 12.2161 56.8568 11.8021 56.9766 11.3125C57.1016 10.8229 57.1641 10.2604 57.1641 9.625Z" fill="#757575"/>
    <circle cx="10" cy="10" r="10" fill="#B8BECA"/>
    <path d="M10.7266 11.5234H8.73438C8.73958 11.0547 8.77604 10.651 8.84375 10.3125C8.91667 9.96875 9.03906 9.65885 9.21094 9.38281C9.38802 9.10677 9.6224 8.83333 9.91406 8.5625C10.1589 8.34375 10.3724 8.13542 10.5547 7.9375C10.737 7.73958 10.8802 7.53646 10.9844 7.32812C11.0885 7.11458 11.1406 6.8776 11.1406 6.61719C11.1406 6.3151 11.0938 6.0651 11 5.86719C10.9115 5.66406 10.776 5.51042 10.5938 5.40625C10.4167 5.30208 10.1927 5.25 9.92188 5.25C9.69792 5.25 9.48958 5.29948 9.29688 5.39844C9.10417 5.49219 8.94531 5.63802 8.82031 5.83594C8.70052 6.03385 8.63802 6.29427 8.63281 6.61719H6.36719C6.38281 5.90365 6.54688 5.3151 6.85938 4.85156C7.17708 4.38281 7.60156 4.03646 8.13281 3.8125C8.66406 3.58333 9.26042 3.46875 9.92188 3.46875C10.651 3.46875 11.276 3.58854 11.7969 3.82812C12.3177 4.0625 12.7161 4.40885 12.9922 4.86719C13.2682 5.32031 13.4062 5.8724 13.4062 6.52344C13.4062 6.97656 13.3177 7.38021 13.1406 7.73438C12.9635 8.08333 12.7318 8.40885 12.4453 8.71094C12.1589 9.01302 11.8438 9.32552 11.5 9.64844C11.2031 9.91406 11 10.1927 10.8906 10.4844C10.7865 10.776 10.7318 11.1224 10.7266 11.5234ZM8.5 13.9375C8.5 13.6042 8.61458 13.3281 8.84375 13.1094C9.07292 12.8854 9.38021 12.7734 9.76562 12.7734C10.1458 12.7734 10.4505 12.8854 10.6797 13.1094C10.9141 13.3281 11.0312 13.6042 11.0312 13.9375C11.0312 14.2604 10.9141 14.5339 10.6797 14.7578C10.4505 14.9818 10.1458 15.0938 9.76562 15.0938C9.38021 15.0938 9.07292 14.9818 8.84375 14.7578C8.61458 14.5339 8.5 14.2604 8.5 13.9375Z" fill="white"/>
</svg>
