<svg width="20" height="20" viewBox="0 0 20 20" fill="none" xmlns="http://www.w3.org/2000/svg">
    <path d="M6 14C6.55 14 7.021 13.804 7.413 13.412C7.80433 13.0207 8 12.55 8 12C8 11.45 7.80433 10.979 7.413 10.587C7.021 10.1957 6.55 10 6 10C5.45 10 4.97933 10.1957 4.588 10.587C4.196 10.979 4 11.45 4 12C4 12.55 4.196 13.0207 4.588 13.412C4.97933 13.804 5.45 14 6 14ZM14 14C14.55 14 15.021 13.804 15.413 13.412C15.8043 13.0207 16 12.55 16 12C16 11.45 15.8043 10.979 15.413 10.587C15.021 10.1957 14.55 10 14 10C13.45 10 12.9793 10.1957 12.588 10.587C12.196 10.979 12 11.45 12 12C12 12.55 12.196 13.0207 12.588 13.412C12.9793 13.804 13.45 14 14 14ZM10 8C10.55 8 11.021 7.804 11.413 7.412C11.8043 7.02067 12 6.55 12 6C12 5.45 11.8043 4.97933 11.413 4.588C11.021 4.196 10.55 4 10 4C9.45 4 8.97933 4.196 8.588 4.588C8.196 4.97933 8 5.45 8 6C8 6.55 8.196 7.02067 8.588 7.412C8.97933 7.804 9.45 8 10 8ZM10 20C8.61667 20 7.31667 19.7373 6.1 19.212C4.88333 18.6873 3.825 17.975 2.925 17.075C2.025 16.175 1.31267 15.1167 0.788 13.9C0.262667 12.6833 0 11.3833 0 10C0 8.61667 0.262667 7.31667 0.788 6.1C1.31267 4.88333 2.025 3.825 2.925 2.925C3.825 2.025 4.88333 1.31233 6.1 0.787C7.31667 0.262333 8.61667 0 10 0C11.3833 0 12.6833 0.262333 13.9 0.787C15.1167 1.31233 16.175 2.025 17.075 2.925C17.975 3.825 18.6873 4.88333 19.212 6.1C19.7373 7.31667 20 8.61667 20 10C20 11.3833 19.7373 12.6833 19.212 13.9C18.6873 15.1167 17.975 16.175 17.075 17.075C16.175 17.975 15.1167 18.6873 13.9 19.212C12.6833 19.7373 11.3833 20 10 20Z" fill="#B8BECA"/>
</svg>
