<svg width="115" height="20" viewBox="0 0 115 20" fill="none" xmlns="http://www.w3.org/2000/svg">
    <path d="M32.9531 3.625H34.7031L37.9922 12.3984L41.2734 3.625H43.0234L38.6797 15H37.2891L32.9531 3.625ZM32.1562 3.625H33.8203L34.1094 11.2188V15H32.1562V3.625ZM42.1562 3.625H43.8281V15H41.8672V11.2188L42.1562 3.625ZM45.6094 10.8672V10.6875C45.6094 10.0781 45.6979 9.51302 45.875 8.99219C46.0521 8.46615 46.3073 8.01042 46.6406 7.625C46.9792 7.23438 47.3906 6.93229 47.875 6.71875C48.3646 6.5 48.9167 6.39062 49.5312 6.39062C50.151 6.39062 50.7031 6.5 51.1875 6.71875C51.6771 6.93229 52.0911 7.23438 52.4297 7.625C52.7682 8.01042 53.026 8.46615 53.2031 8.99219C53.3802 9.51302 53.4688 10.0781 53.4688 10.6875V10.8672C53.4688 11.4766 53.3802 12.0417 53.2031 12.5625C53.026 13.0833 52.7682 13.5391 52.4297 13.9297C52.0911 14.3151 51.6797 14.6172 51.1953 14.8359C50.7109 15.0495 50.1615 15.1562 49.5469 15.1562C48.9271 15.1562 48.3724 15.0495 47.8828 14.8359C47.3984 14.6172 46.987 14.3151 46.6484 13.9297C46.3099 13.5391 46.0521 13.0833 45.875 12.5625C45.6979 12.0417 45.6094 11.4766 45.6094 10.8672ZM47.4922 10.6875V10.8672C47.4922 11.2474 47.5312 11.6068 47.6094 11.9453C47.6875 12.2839 47.8099 12.5807 47.9766 12.8359C48.1432 13.0911 48.3568 13.2917 48.6172 13.4375C48.8776 13.5833 49.1875 13.6562 49.5469 13.6562C49.8958 13.6562 50.1979 13.5833 50.4531 13.4375C50.7135 13.2917 50.9271 13.0911 51.0938 12.8359C51.2604 12.5807 51.3828 12.2839 51.4609 11.9453C51.5443 11.6068 51.5859 11.2474 51.5859 10.8672V10.6875C51.5859 10.3125 51.5443 9.95833 51.4609 9.625C51.3828 9.28646 51.2578 8.98698 51.0859 8.72656C50.9193 8.46615 50.7057 8.26302 50.4453 8.11719C50.1901 7.96615 49.8854 7.89062 49.5312 7.89062C49.1771 7.89062 48.8698 7.96615 48.6094 8.11719C48.3542 8.26302 48.1432 8.46615 47.9766 8.72656C47.8099 8.98698 47.6875 9.28646 47.6094 9.625C47.5312 9.95833 47.4922 10.3125 47.4922 10.6875ZM57.0859 6.54688V15H55.2031V6.54688H57.0859ZM53.3906 4.375C53.3906 4.11979 53.4792 3.90625 53.6562 3.73438C53.8333 3.55729 54.0677 3.46875 54.3594 3.46875C54.6562 3.46875 54.8932 3.55729 55.0703 3.73438C55.2474 3.90625 55.3359 4.11979 55.3359 4.375C55.3359 4.625 55.2474 4.83854 55.0703 5.01562C54.8932 5.1875 54.6562 5.27344 54.3594 5.27344C54.0677 5.27344 53.8333 5.1875 53.6562 5.01562C53.4792 4.83854 53.3906 4.625 53.3906 4.375ZM57.0078 4.38281C57.0078 4.1276 57.0964 3.91406 57.2734 3.74219C57.4505 3.5651 57.6875 3.47656 57.9844 3.47656C58.276 3.47656 58.5104 3.5651 58.6875 3.74219C58.8698 3.91406 58.9609 4.1276 58.9609 4.38281C58.9609 4.63281 58.8698 4.84635 58.6875 5.02344C58.5104 5.19531 58.276 5.28125 57.9844 5.28125C57.6875 5.28125 57.4505 5.19531 57.2734 5.02344C57.0964 4.84635 57.0078 4.63281 57.0078 4.38281ZM68.8438 6.54688V8.04688H65.1562V15H63.2734V6.54688H68.8438ZM71.8281 8.17188V18.25H69.9453V6.54688H71.6797L71.8281 8.17188ZM77.3359 10.6953V10.8594C77.3359 11.474 77.263 12.0443 77.1172 12.5703C76.9766 13.0911 76.7656 13.5469 76.4844 13.9375C76.2083 14.3229 75.8672 14.6224 75.4609 14.8359C75.0547 15.0495 74.5859 15.1562 74.0547 15.1562C73.5286 15.1562 73.0677 15.0599 72.6719 14.8672C72.2812 14.6693 71.9505 14.3906 71.6797 14.0312C71.4089 13.6719 71.1901 13.25 71.0234 12.7656C70.862 12.276 70.7474 11.7396 70.6797 11.1562V10.5234C70.7474 9.90365 70.862 9.34115 71.0234 8.83594C71.1901 8.33073 71.4089 7.89583 71.6797 7.53125C71.9505 7.16667 72.2812 6.88542 72.6719 6.6875C73.0625 6.48958 73.5182 6.39062 74.0391 6.39062C74.5703 6.39062 75.0417 6.49479 75.4531 6.70312C75.8646 6.90625 76.2109 7.19792 76.4922 7.57812C76.7734 7.95312 76.9844 8.40625 77.125 8.9375C77.2656 9.46354 77.3359 10.0495 77.3359 10.6953ZM75.4531 10.8594V10.6953C75.4531 10.3047 75.4167 9.94271 75.3438 9.60938C75.2708 9.27083 75.1562 8.97396 75 8.71875C74.8438 8.46354 74.6432 8.26562 74.3984 8.125C74.1589 7.97917 73.8698 7.90625 73.5312 7.90625C73.1979 7.90625 72.9115 7.96354 72.6719 8.07812C72.4323 8.1875 72.2318 8.34115 72.0703 8.53906C71.9089 8.73698 71.7839 8.96875 71.6953 9.23438C71.6068 9.49479 71.5443 9.77865 71.5078 10.0859V11.6016C71.5703 11.9766 71.6771 12.3203 71.8281 12.6328C71.9792 12.9453 72.1927 13.1953 72.4688 13.3828C72.75 13.5651 73.1094 13.6562 73.5469 13.6562C73.8854 13.6562 74.1745 13.5833 74.4141 13.4375C74.6536 13.2917 74.849 13.0911 75 12.8359C75.1562 12.5755 75.2708 12.276 75.3438 11.9375C75.4167 11.599 75.4531 11.2396 75.4531 10.8594ZM81.2969 14.0781L83.5938 6.54688H85.6094L82.2188 16.2891C82.1406 16.4974 82.0391 16.724 81.9141 16.9688C81.7891 17.2135 81.625 17.4453 81.4219 17.6641C81.224 17.888 80.9766 18.0677 80.6797 18.2031C80.3828 18.3438 80.0234 18.4141 79.6016 18.4141C79.4349 18.4141 79.2734 18.3984 79.1172 18.3672C78.9661 18.3411 78.8229 18.3125 78.6875 18.2812L78.6797 16.8438C78.7318 16.849 78.7943 16.8542 78.8672 16.8594C78.9453 16.8646 79.0078 16.8672 79.0547 16.8672C79.3672 16.8672 79.6276 16.8281 79.8359 16.75C80.0443 16.6771 80.2135 16.5573 80.3438 16.3906C80.4792 16.224 80.5938 16 80.6875 15.7188L81.2969 14.0781ZM80 6.54688L82.0078 12.875L82.3438 14.8594L81.0391 15.1953L77.9688 6.54688H80ZM92.3594 6.54688V8.04688H88.1875V6.54688H92.3594ZM88.6328 6.54688V15H86.75V6.54688H88.6328ZM93.8359 6.54688V15H91.9453V6.54688H93.8359ZM97.7734 12.25L101.094 6.54688H102.977V15H101.094V9.28906L97.7734 15H95.8906V6.54688H97.7734V12.25Z" fill="#757575"/>
    <path d="M6 14C6.55 14 7.021 13.804 7.413 13.412C7.80433 13.0207 8 12.55 8 12C8 11.45 7.80433 10.979 7.413 10.587C7.021 10.1957 6.55 10 6 10C5.45 10 4.97933 10.1957 4.588 10.587C4.196 10.979 4 11.45 4 12C4 12.55 4.196 13.0207 4.588 13.412C4.97933 13.804 5.45 14 6 14ZM14 14C14.55 14 15.021 13.804 15.413 13.412C15.8043 13.0207 16 12.55 16 12C16 11.45 15.8043 10.979 15.413 10.587C15.021 10.1957 14.55 10 14 10C13.45 10 12.9793 10.1957 12.588 10.587C12.196 10.979 12 11.45 12 12C12 12.55 12.196 13.0207 12.588 13.412C12.9793 13.804 13.45 14 14 14ZM10 8C10.55 8 11.021 7.804 11.413 7.412C11.8043 7.02067 12 6.55 12 6C12 5.45 11.8043 4.97933 11.413 4.588C11.021 4.196 10.55 4 10 4C9.45 4 8.97933 4.196 8.588 4.588C8.196 4.97933 8 5.45 8 6C8 6.55 8.196 7.02067 8.588 7.412C8.97933 7.804 9.45 8 10 8ZM10 20C8.61667 20 7.31667 19.7373 6.1 19.212C4.88333 18.6873 3.825 17.975 2.925 17.075C2.025 16.175 1.31267 15.1167 0.788 13.9C0.262667 12.6833 0 11.3833 0 10C0 8.61667 0.262667 7.31667 0.788 6.1C1.31267 4.88333 2.025 3.825 2.925 2.925C3.825 2.025 4.88333 1.31233 6.1 0.787C7.31667 0.262333 8.61667 0 10 0C11.3833 0 12.6833 0.262333 13.9 0.787C15.1167 1.31233 16.175 2.025 17.075 2.925C17.975 3.825 18.6873 4.88333 19.212 6.1C19.7373 7.31667 20 8.61667 20 10C20 11.3833 19.7373 12.6833 19.212 13.9C18.6873 15.1167 17.975 16.175 17.075 17.075C16.175 17.975 15.1167 18.6873 13.9 19.212C12.6833 19.7373 11.3833 20 10 20Z" fill="#B8BECA"/>
</svg>
