<svg width="82" height="20" viewBox="0 0 82 20" fill="none" xmlns="http://www.w3.org/2000/svg">
    <path d="M33.4609 3.625V15H31.5V3.625H33.4609ZM39.1641 13.6562C39.4714 13.6562 39.7474 13.5964 39.9922 13.4766C40.2422 13.3516 40.4427 13.1797 40.5938 12.9609C40.75 12.7422 40.8359 12.4896 40.8516 12.2031H42.625C42.6146 12.75 42.4531 13.2474 42.1406 13.6953C41.8281 14.1432 41.4141 14.5 40.8984 14.7656C40.3828 15.026 39.8125 15.1562 39.1875 15.1562C38.5417 15.1562 37.9792 15.0469 37.5 14.8281C37.0208 14.6042 36.6224 14.2969 36.3047 13.9062C35.987 13.5156 35.7474 13.0651 35.5859 12.5547C35.4297 12.0443 35.3516 11.4974 35.3516 10.9141V10.6406C35.3516 10.0573 35.4297 9.51042 35.5859 9C35.7474 8.48438 35.987 8.03125 36.3047 7.64062C36.6224 7.25 37.0208 6.94531 37.5 6.72656C37.9792 6.5026 38.5391 6.39062 39.1797 6.39062C39.8568 6.39062 40.4505 6.52604 40.9609 6.79688C41.4714 7.0625 41.8724 7.4349 42.1641 7.91406C42.4609 8.38802 42.6146 8.9401 42.625 9.57031H40.8516C40.8359 9.25781 40.7578 8.97656 40.6172 8.72656C40.4818 8.47135 40.2891 8.26823 40.0391 8.11719C39.7943 7.96615 39.5 7.89062 39.1562 7.89062C38.776 7.89062 38.4609 7.96875 38.2109 8.125C37.9609 8.27604 37.7656 8.48438 37.625 8.75C37.4844 9.01042 37.3828 9.30469 37.3203 9.63281C37.263 9.95573 37.2344 10.2917 37.2344 10.6406V10.9141C37.2344 11.263 37.263 11.6016 37.3203 11.9297C37.3776 12.2578 37.4766 12.5521 37.6172 12.8125C37.763 13.0677 37.9609 13.2734 38.2109 13.4297C38.4609 13.5807 38.7786 13.6562 39.1641 13.6562ZM47.9922 6.54688V15H46.1016V6.54688H47.9922ZM50.7656 6.54688V8.03125H43.375V6.54688H50.7656ZM51.3672 10.8672V10.6875C51.3672 10.0781 51.4557 9.51302 51.6328 8.99219C51.8099 8.46615 52.0651 8.01042 52.3984 7.625C52.737 7.23438 53.1484 6.93229 53.6328 6.71875C54.1224 6.5 54.6745 6.39062 55.2891 6.39062C55.9089 6.39062 56.4609 6.5 56.9453 6.71875C57.4349 6.93229 57.849 7.23438 58.1875 7.625C58.526 8.01042 58.7839 8.46615 58.9609 8.99219C59.138 9.51302 59.2266 10.0781 59.2266 10.6875V10.8672C59.2266 11.4766 59.138 12.0417 58.9609 12.5625C58.7839 13.0833 58.526 13.5391 58.1875 13.9297C57.849 14.3151 57.4375 14.6172 56.9531 14.8359C56.4688 15.0495 55.9193 15.1562 55.3047 15.1562C54.6849 15.1562 54.1302 15.0495 53.6406 14.8359C53.1562 14.6172 52.7448 14.3151 52.4062 13.9297C52.0677 13.5391 51.8099 13.0833 51.6328 12.5625C51.4557 12.0417 51.3672 11.4766 51.3672 10.8672ZM53.25 10.6875V10.8672C53.25 11.2474 53.2891 11.6068 53.3672 11.9453C53.4453 12.2839 53.5677 12.5807 53.7344 12.8359C53.901 13.0911 54.1146 13.2917 54.375 13.4375C54.6354 13.5833 54.9453 13.6562 55.3047 13.6562C55.6536 13.6562 55.9557 13.5833 56.2109 13.4375C56.4714 13.2917 56.6849 13.0911 56.8516 12.8359C57.0182 12.5807 57.1406 12.2839 57.2188 11.9453C57.3021 11.6068 57.3438 11.2474 57.3438 10.8672V10.6875C57.3438 10.3125 57.3021 9.95833 57.2188 9.625C57.1406 9.28646 57.0156 8.98698 56.8438 8.72656C56.6771 8.46615 56.4635 8.26302 56.2031 8.11719C55.9479 7.96615 55.6432 7.89062 55.2891 7.89062C54.9349 7.89062 54.6276 7.96615 54.3672 8.11719C54.112 8.26302 53.901 8.46615 53.7344 8.72656C53.5677 8.98698 53.4453 9.28646 53.3672 9.625C53.2891 9.95833 53.25 10.3125 53.25 10.6875ZM62.6953 8.17188V18.25H60.8125V6.54688H62.5469L62.6953 8.17188ZM68.2031 10.6953V10.8594C68.2031 11.474 68.1302 12.0443 67.9844 12.5703C67.8438 13.0911 67.6328 13.5469 67.3516 13.9375C67.0755 14.3229 66.7344 14.6224 66.3281 14.8359C65.9219 15.0495 65.4531 15.1562 64.9219 15.1562C64.3958 15.1562 63.9349 15.0599 63.5391 14.8672C63.1484 14.6693 62.8177 14.3906 62.5469 14.0312C62.276 13.6719 62.0573 13.25 61.8906 12.7656C61.7292 12.276 61.6146 11.7396 61.5469 11.1562V10.5234C61.6146 9.90365 61.7292 9.34115 61.8906 8.83594C62.0573 8.33073 62.276 7.89583 62.5469 7.53125C62.8177 7.16667 63.1484 6.88542 63.5391 6.6875C63.9297 6.48958 64.3854 6.39062 64.9062 6.39062C65.4375 6.39062 65.9089 6.49479 66.3203 6.70312C66.7318 6.90625 67.0781 7.19792 67.3594 7.57812C67.6406 7.95312 67.8516 8.40625 67.9922 8.9375C68.1328 9.46354 68.2031 10.0495 68.2031 10.6953ZM66.3203 10.8594V10.6953C66.3203 10.3047 66.2839 9.94271 66.2109 9.60938C66.138 9.27083 66.0234 8.97396 65.8672 8.71875C65.7109 8.46354 65.5104 8.26562 65.2656 8.125C65.026 7.97917 64.737 7.90625 64.3984 7.90625C64.0651 7.90625 63.7786 7.96354 63.5391 8.07812C63.2995 8.1875 63.099 8.34115 62.9375 8.53906C62.776 8.73698 62.651 8.96875 62.5625 9.23438C62.474 9.49479 62.4115 9.77865 62.375 10.0859V11.6016C62.4375 11.9766 62.5443 12.3203 62.6953 12.6328C62.8464 12.9453 63.0599 13.1953 63.3359 13.3828C63.6172 13.5651 63.9766 13.6562 64.4141 13.6562C64.7526 13.6562 65.0417 13.5833 65.2812 13.4375C65.5208 13.2917 65.7161 13.0911 65.8672 12.8359C66.0234 12.5755 66.138 12.276 66.2109 11.9375C66.2839 11.599 66.3203 11.2396 66.3203 10.8594ZM71.8203 6.54688V15H69.9297V6.54688H71.8203ZM69.8047 4.32812C69.8047 4.04167 69.8984 3.80469 70.0859 3.61719C70.2786 3.42448 70.5443 3.32812 70.8828 3.32812C71.2161 3.32812 71.4792 3.42448 71.6719 3.61719C71.8646 3.80469 71.9609 4.04167 71.9609 4.32812C71.9609 4.60938 71.8646 4.84375 71.6719 5.03125C71.4792 5.21875 71.2161 5.3125 70.8828 5.3125C70.5443 5.3125 70.2786 5.21875 70.0859 5.03125C69.8984 4.84375 69.8047 4.60938 69.8047 4.32812ZM75.6641 10.8672H77.6172L75.2188 15H73.2734L75.6641 10.8672ZM77.0391 6.54688H80.6641V15H78.7891V8.03125H77.0391C76.6849 8.03125 76.3932 8.09375 76.1641 8.21875C75.9349 8.33854 75.7656 8.4974 75.6562 8.69531C75.5469 8.88802 75.4922 9.08594 75.4922 9.28906C75.4922 9.49219 75.5417 9.6875 75.6406 9.875C75.7448 10.0625 75.9036 10.2161 76.1172 10.3359C76.3359 10.4557 76.6094 10.5156 76.9375 10.5156H79.4219V11.8906H76.9375C76.4167 11.8906 75.9505 11.8255 75.5391 11.6953C75.1276 11.5599 74.7786 11.375 74.4922 11.1406C74.2057 10.901 73.987 10.6224 73.8359 10.3047C73.6849 9.98177 73.6094 9.63021 73.6094 9.25C73.6094 8.85938 73.6875 8.5 73.8438 8.17188C74 7.84375 74.224 7.55729 74.5156 7.3125C74.8125 7.06771 75.1719 6.88021 75.5938 6.75C76.0208 6.61458 76.5026 6.54688 77.0391 6.54688Z" fill="#757575"/>
    <circle cx="10" cy="10" r="10" fill="#B8BECA"/>
    <path d="M10.4628 5.55349H9.54005C9.45564 5.55349 9.38657 5.62047 9.38657 5.70233V10.8242C9.38657 10.8726 9.4096 10.9172 9.44988 10.9451L12.6211 13.1907C12.6902 13.2391 12.7861 13.226 12.836 13.1591L13.3847 12.4335C13.4365 12.3647 13.4211 12.2716 13.3521 12.2251L10.6163 10.307V5.70233C10.6163 5.62047 10.5473 5.55349 10.4628 5.55349ZM14.6797 6.95256L17.6878 7.66512C17.7838 7.68744 17.8778 7.61675 17.8778 7.52186L17.8931 4.51721C17.8931 4.39256 17.7454 4.32186 17.6456 4.4L14.6221 6.69023C14.5993 6.70738 14.5819 6.73043 14.5719 6.75673C14.562 6.78304 14.5599 6.81153 14.5659 6.83893C14.5719 6.86634 14.5858 6.89154 14.6059 6.91164C14.626 6.93174 14.6516 6.94592 14.6797 6.95256ZM17.897 12.5544L16.8092 12.1916C16.7712 12.179 16.7297 12.1813 16.6935 12.198C16.6573 12.2147 16.6293 12.2445 16.6154 12.2809C16.579 12.3758 16.5406 12.4688 16.5003 12.5619C16.1588 13.3451 15.6696 14.0502 15.0442 14.6549C14.4257 15.2565 13.6927 15.7361 12.8859 16.067C12.0501 16.4097 11.1516 16.5856 10.2441 16.5842C9.3271 16.5842 8.43885 16.4112 7.60239 16.067C6.79555 15.7361 6.06258 15.2565 5.4441 14.6549C4.82059 14.0502 4.33138 13.3451 3.98797 12.5619C3.63654 11.7509 3.45648 10.8797 3.45847 10C3.45847 9.1107 3.63689 8.24744 3.99181 7.43628C4.3333 6.65303 4.82251 5.94791 5.44794 5.34326C6.06642 4.74162 6.79939 4.26206 7.60623 3.93116C8.43885 3.58698 9.32902 3.41396 10.2461 3.41396C11.1631 3.41396 12.0513 3.58698 12.8878 3.93116C13.6946 4.26206 14.4276 4.74162 15.0461 5.34326C15.2418 5.53489 15.426 5.73396 15.5948 5.94419L16.742 5.07349C15.2322 3.20186 12.882 1.99814 10.2422 2C5.64554 2.00186 1.95438 5.62233 2.00043 10.0819C2.04647 14.4633 5.72036 18 10.2461 18C13.8048 18 16.836 15.8121 17.991 12.7479C18.0197 12.6698 17.9775 12.5823 17.897 12.5544Z" fill="white"/>
</svg>

