<svg width="20" height="20" viewBox="0 0 20 20" fill="none" xmlns="http://www.w3.org/2000/svg">
    <circle cx="10" cy="10" r="10" fill="#B8BECA"/>
    <path d="M10.4628 5.55349H9.54005C9.45564 5.55349 9.38657 5.62047 9.38657 5.70233V10.8242C9.38657 10.8726 9.4096 10.9172 9.44988 10.9451L12.6211 13.1907C12.6902 13.2391 12.7861 13.226 12.836 13.1591L13.3847 12.4335C13.4365 12.3647 13.4211 12.2716 13.3521 12.2251L10.6163 10.307V5.70233C10.6163 5.62047 10.5473 5.55349 10.4628 5.55349ZM14.6797 6.95256L17.6878 7.66512C17.7838 7.68744 17.8778 7.61675 17.8778 7.52186L17.8931 4.51721C17.8931 4.39256 17.7454 4.32186 17.6456 4.4L14.6221 6.69023C14.5993 6.70738 14.5819 6.73043 14.5719 6.75673C14.562 6.78304 14.5599 6.81153 14.5659 6.83893C14.5719 6.86634 14.5858 6.89154 14.6059 6.91164C14.626 6.93174 14.6516 6.94592 14.6797 6.95256ZM17.897 12.5544L16.8092 12.1916C16.7712 12.179 16.7297 12.1813 16.6935 12.198C16.6573 12.2147 16.6293 12.2445 16.6154 12.2809C16.579 12.3758 16.5406 12.4688 16.5003 12.5619C16.1588 13.3451 15.6696 14.0502 15.0442 14.6549C14.4257 15.2565 13.6927 15.7361 12.8859 16.067C12.0501 16.4097 11.1516 16.5856 10.2441 16.5842C9.3271 16.5842 8.43885 16.4112 7.60239 16.067C6.79555 15.7361 6.06258 15.2565 5.4441 14.6549C4.82059 14.0502 4.33138 13.3451 3.98797 12.5619C3.63654 11.7509 3.45648 10.8797 3.45847 10C3.45847 9.1107 3.63689 8.24744 3.99181 7.43628C4.3333 6.65303 4.82251 5.94791 5.44794 5.34326C6.06642 4.74162 6.79939 4.26206 7.60623 3.93116C8.43885 3.58698 9.32902 3.41396 10.2461 3.41396C11.1631 3.41396 12.0513 3.58698 12.8878 3.93116C13.6946 4.26206 14.4276 4.74162 15.0461 5.34326C15.2418 5.53489 15.426 5.73396 15.5948 5.94419L16.742 5.07349C15.2322 3.20186 12.882 1.99814 10.2422 2C5.64554 2.00186 1.95438 5.62233 2.00043 10.0819C2.04647 14.4633 5.72036 18 10.2461 18C13.8048 18 16.836 15.8121 17.991 12.7479C18.0197 12.6698 17.9775 12.5823 17.897 12.5544Z" fill="white"/>
</svg>
