<svg width="40" height="40" viewBox="0 0 40 40" fill="none"
     xmlns="http://www.w3.org/2000/svg">
    <circle cx="20" cy="20" r="20" fill="white"/>
    <path
            d="M16.7344 13.625H19.0703V21.1406C19.0703 22.0156 18.8828 22.7526 18.5078 23.3516C18.138 23.9505 17.625 24.401 16.9688 24.7031C16.3177 25.0052 15.5677 25.1562 14.7188 25.1562C13.8698 25.1562 13.1146 25.0052 12.4531 24.7031C11.7969 24.401 11.2812 23.9505 10.9062 23.3516C10.5365 22.7526 10.3516 22.0156 10.3516 21.1406V13.625H12.6953V21.1406C12.6953 21.651 12.776 22.0677 12.9375 22.3906C13.099 22.7135 13.3307 22.9505 13.6328 23.1016C13.9401 23.2526 14.3021 23.3281 14.7188 23.3281C15.1458 23.3281 15.5078 23.2526 15.8047 23.1016C16.1068 22.9505 16.3359 22.7135 16.4922 22.3906C16.6536 22.0677 16.7344 21.651 16.7344 21.1406V13.625ZM25.4531 15.5703L22.3594 25H19.8672L24.0938 13.625H25.6797L25.4531 15.5703ZM28.0234 25L24.9219 15.5703L24.6719 13.625H26.2734L30.5234 25H28.0234ZM27.8828 20.7656V22.6016H21.875V20.7656H27.8828Z"
            fill="#757575"/>
</svg>