<svg width="40" height="40" viewBox="0 0 40 40" fill="none" xmlns="http://www.w3.org/2000/svg">
    <circle cx="20" cy="20" r="20" fill="white"/>
    <path d="M20.6517 21.1L18.1211 23.619C18.018 23.7213 17.9362 23.843 17.8803 23.977C17.8244 24.111 17.7957 24.2548 17.7957 24.4C17.7957 24.5452 17.8244 24.689 17.8803 24.8231C17.9362 24.9571 18.018 25.0788 18.1211 25.181C18.2234 25.2841 18.3451 25.366 18.4792 25.4218C18.6133 25.4777 18.7571 25.5064 18.9023 25.5064C19.0476 25.5064 19.1914 25.4777 19.3255 25.4218C19.4595 25.366 19.5812 25.2841 19.6835 25.181L24.0845 20.7811C24.1847 20.6764 24.2632 20.5531 24.3156 20.4181C24.4256 20.1502 24.4256 19.8499 24.3156 19.5821C24.2632 19.447 24.1847 19.3237 24.0845 19.2191L19.6835 14.8191C19.5809 14.7165 19.4591 14.6352 19.3251 14.5797C19.1911 14.5241 19.0474 14.4956 18.9023 14.4956C18.7572 14.4956 18.6136 14.5241 18.4796 14.5797C18.3455 14.6352 18.2237 14.7165 18.1211 14.8191C18.0186 14.9216 17.9372 15.0434 17.8817 15.1774C17.8261 15.3114 17.7976 15.455 17.7976 15.6001C17.7976 15.7451 17.8261 15.8887 17.8817 16.0227C17.9372 16.1568 18.0186 16.2785 18.1211 16.3811L20.6517 18.9001H10.1003C9.80845 18.9001 9.5286 19.016 9.32226 19.2222C9.11592 19.4285 9 19.7083 9 20.0001C9 20.2918 9.11592 20.5716 9.32226 20.7779C9.5286 20.9842 9.80845 21.1 10.1003 21.1H20.6517ZM20.0026 9.00011C17.9463 8.99093 15.9286 9.55804 14.1783 10.6371C12.4281 11.7162 11.0153 13.264 10.1003 15.1051C9.96895 15.3676 9.94734 15.6716 10.0402 15.9501C10.133 16.2286 10.3327 16.4588 10.5954 16.5901C10.858 16.7214 11.162 16.743 11.4406 16.6501C11.7191 16.5573 11.9494 16.3576 12.0807 16.0951C12.7763 14.6907 13.8344 13.4976 15.1455 12.6389C16.4567 11.7802 17.9735 11.2871 19.5391 11.2106C21.1047 11.1342 22.6623 11.4771 24.051 12.2039C25.4397 12.9307 26.609 14.015 27.4382 15.3449C28.2674 16.6747 28.7264 18.2018 28.7677 19.7684C28.809 21.3349 28.4311 22.8841 27.673 24.2557C26.915 25.6274 25.8044 26.7718 24.4559 27.5707C23.1074 28.3696 21.57 28.794 20.0026 28.8C18.362 28.8071 16.7526 28.3516 15.3592 27.4858C13.9657 26.62 12.8447 25.3789 12.1247 23.905C11.9934 23.6425 11.7632 23.4428 11.4846 23.35C11.206 23.2572 10.902 23.2788 10.6394 23.41C10.3768 23.5413 10.1771 23.7715 10.0842 24.05C9.99135 24.3285 10.013 24.6325 10.1443 24.895C11.0166 26.6501 12.3421 28.1403 13.9836 29.2115C15.6251 30.2826 17.5231 30.8959 19.4812 30.9879C21.4393 31.0798 23.3864 30.6471 25.1211 29.7345C26.8559 28.8218 28.3152 27.4624 29.3483 25.7968C30.3813 24.1313 30.9505 22.22 30.9969 20.2608C31.0434 18.3015 30.5654 16.3654 29.6125 14.6528C28.6596 12.9401 27.2663 11.5131 25.5768 10.5193C23.8873 9.52552 21.9628 9.00103 20.0026 9.00011Z" fill="#757575"/>
</svg>
