<svg width="70" height="20" viewBox="0 0 70 20" fill="none" xmlns="http://www.w3.org/2000/svg">
    <path d="M40.6406 3.625V15H38.6875V5.1875H33.6328V15H31.6797V3.625H40.6406ZM42.4531 10.8672V10.6875C42.4531 10.0781 42.5417 9.51302 42.7188 8.99219C42.8958 8.46615 43.151 8.01042 43.4844 7.625C43.8229 7.23438 44.2344 6.93229 44.7188 6.71875C45.2083 6.5 45.7604 6.39062 46.375 6.39062C46.9948 6.39062 47.5469 6.5 48.0312 6.71875C48.5208 6.93229 48.9349 7.23438 49.2734 7.625C49.612 8.01042 49.8698 8.46615 50.0469 8.99219C50.224 9.51302 50.3125 10.0781 50.3125 10.6875V10.8672C50.3125 11.4766 50.224 12.0417 50.0469 12.5625C49.8698 13.0833 49.612 13.5391 49.2734 13.9297C48.9349 14.3151 48.5234 14.6172 48.0391 14.8359C47.5547 15.0495 47.0052 15.1562 46.3906 15.1562C45.7708 15.1562 45.2161 15.0495 44.7266 14.8359C44.2422 14.6172 43.8307 14.3151 43.4922 13.9297C43.1536 13.5391 42.8958 13.0833 42.7188 12.5625C42.5417 12.0417 42.4531 11.4766 42.4531 10.8672ZM44.3359 10.6875V10.8672C44.3359 11.2474 44.375 11.6068 44.4531 11.9453C44.5312 12.2839 44.6536 12.5807 44.8203 12.8359C44.987 13.0911 45.2005 13.2917 45.4609 13.4375C45.7214 13.5833 46.0312 13.6562 46.3906 13.6562C46.7396 13.6562 47.0417 13.5833 47.2969 13.4375C47.5573 13.2917 47.7708 13.0911 47.9375 12.8359C48.1042 12.5807 48.2266 12.2839 48.3047 11.9453C48.388 11.6068 48.4297 11.2474 48.4297 10.8672V10.6875C48.4297 10.3125 48.388 9.95833 48.3047 9.625C48.2266 9.28646 48.1016 8.98698 47.9297 8.72656C47.763 8.46615 47.5495 8.26302 47.2891 8.11719C47.0339 7.96615 46.7292 7.89062 46.375 7.89062C46.0208 7.89062 45.7135 7.96615 45.4531 8.11719C45.1979 8.26302 44.987 8.46615 44.8203 8.72656C44.6536 8.98698 44.5312 9.28646 44.4531 9.625C44.375 9.95833 44.3359 10.3125 44.3359 10.6875ZM52.8594 6.54688H54.7422L54.6484 9.52344C54.6224 10.388 54.5234 11.1302 54.3516 11.75C54.1797 12.3698 53.9557 12.8932 53.6797 13.3203C53.4036 13.7422 53.0911 14.0885 52.7422 14.3594C52.3984 14.6302 52.0365 14.8438 51.6562 15H51.1016V13.5156L51.3672 13.5C51.5911 13.2604 51.7839 13.0208 51.9453 12.7812C52.112 12.5365 52.2526 12.2682 52.3672 11.9766C52.4818 11.6797 52.5703 11.3333 52.6328 10.9375C52.7005 10.5417 52.7448 10.0703 52.7656 9.52344L52.8594 6.54688ZM53.3594 6.54688H58.7188V15H56.8438V8.14062H53.3594V6.54688ZM50.6719 13.5H59.875V17.5156H57.9922V15H52.5781V17.5156H50.6641L50.6719 13.5ZM63.2344 6.54688V15H61.3438V6.54688H63.2344ZM61.2188 4.32812C61.2188 4.04167 61.3125 3.80469 61.5 3.61719C61.6927 3.42448 61.9583 3.32812 62.2969 3.32812C62.6302 3.32812 62.8932 3.42448 63.0859 3.61719C63.2786 3.80469 63.375 4.04167 63.375 4.32812C63.375 4.60938 63.2786 4.84375 63.0859 5.03125C62.8932 5.21875 62.6302 5.3125 62.2969 5.3125C61.9583 5.3125 61.6927 5.21875 61.5 5.03125C61.3125 4.84375 61.2188 4.60938 61.2188 4.32812ZM67.3359 6.54688V15H65.4531V6.54688H67.3359ZM63.6406 4.375C63.6406 4.11979 63.7292 3.90625 63.9062 3.73438C64.0833 3.55729 64.3177 3.46875 64.6094 3.46875C64.9062 3.46875 65.1432 3.55729 65.3203 3.73438C65.4974 3.90625 65.5859 4.11979 65.5859 4.375C65.5859 4.625 65.4974 4.83854 65.3203 5.01562C65.1432 5.1875 64.9062 5.27344 64.6094 5.27344C64.3177 5.27344 64.0833 5.1875 63.9062 5.01562C63.7292 4.83854 63.6406 4.625 63.6406 4.375ZM67.2578 4.38281C67.2578 4.1276 67.3464 3.91406 67.5234 3.74219C67.7005 3.5651 67.9375 3.47656 68.2344 3.47656C68.526 3.47656 68.7604 3.5651 68.9375 3.74219C69.1198 3.91406 69.2109 4.1276 69.2109 4.38281C69.2109 4.63281 69.1198 4.84635 68.9375 5.02344C68.7604 5.19531 68.526 5.28125 68.2344 5.28125C67.9375 5.28125 67.7005 5.19531 67.5234 5.02344C67.3464 4.84635 67.2578 4.63281 67.2578 4.38281Z" fill="#757575"/>
    <circle cx="10" cy="10" r="10" fill="#B8BECA"/>
    <path d="M13.3333 9.3H6.66667V10.7H13.3333V9.3ZM14.6667 4.4H14V3H12.6667V4.4H7.33333V3H6V4.4H5.33333C4.59333 4.4 4.00667 5.03 4.00667 5.8L4 15.6C4 15.9713 4.14048 16.3274 4.39052 16.5899C4.64057 16.8525 4.97971 17 5.33333 17H14.6667C15.4 17 16 16.37 16 15.6V5.8C16 5.03 15.4 4.4 14.6667 4.4ZM14.6667 15.6H5.33333V7.9H14.6667V15.6ZM11.3333 12.1H6.66667V13.5H11.3333V12.1Z" fill="white"/>
</svg>
