<svg width="20" height="20" viewBox="0 0 20 20" fill="none" xmlns="http://www.w3.org/2000/svg">
    <circle cx="10" cy="10" r="10" fill="#B8BECA"/>
    <path d="M13.3333 9.3H6.66667V10.7H13.3333V9.3ZM14.6667 4.4H14V3H12.6667V4.4H7.33333V3H6V4.4H5.33333C4.59333 4.4 4.00667 5.03 4.00667 5.8L4 15.6C4 15.9713 4.14048 16.3274 4.39052 16.5899C4.64057 16.8525 4.97971 17 5.33333 17H14.6667C15.4 17 16 16.37 16 15.6V5.8C16 5.03 15.4 4.4 14.6667 4.4ZM14.6667 15.6H5.33333V7.9H14.6667V15.6ZM11.3333 12.1H6.66667V13.5H11.3333V12.1Z" fill="white"/>
</svg>
