<svg width="152" height="20" viewBox="0 0 152 20" fill="none" xmlns="http://www.w3.org/2000/svg">
    <path d="M32.9531 3.625H34.7031L37.9922 12.3984L41.2734 3.625H43.0234L38.6797 15H37.2891L32.9531 3.625ZM32.1562 3.625H33.8203L34.1094 11.2188V15H32.1562V3.625ZM42.1562 3.625H43.8281V15H41.8672V11.2188L42.1562 3.625ZM45.6094 10.8672V10.6875C45.6094 10.0781 45.6979 9.51302 45.875 8.99219C46.0521 8.46615 46.3073 8.01042 46.6406 7.625C46.9792 7.23438 47.3906 6.93229 47.875 6.71875C48.3646 6.5 48.9167 6.39062 49.5312 6.39062C50.151 6.39062 50.7031 6.5 51.1875 6.71875C51.6771 6.93229 52.0911 7.23438 52.4297 7.625C52.7682 8.01042 53.026 8.46615 53.2031 8.99219C53.3802 9.51302 53.4688 10.0781 53.4688 10.6875V10.8672C53.4688 11.4766 53.3802 12.0417 53.2031 12.5625C53.026 13.0833 52.7682 13.5391 52.4297 13.9297C52.0911 14.3151 51.6797 14.6172 51.1953 14.8359C50.7109 15.0495 50.1615 15.1562 49.5469 15.1562C48.9271 15.1562 48.3724 15.0495 47.8828 14.8359C47.3984 14.6172 46.987 14.3151 46.6484 13.9297C46.3099 13.5391 46.0521 13.0833 45.875 12.5625C45.6979 12.0417 45.6094 11.4766 45.6094 10.8672ZM47.4922 10.6875V10.8672C47.4922 11.2474 47.5312 11.6068 47.6094 11.9453C47.6875 12.2839 47.8099 12.5807 47.9766 12.8359C48.1432 13.0911 48.3568 13.2917 48.6172 13.4375C48.8776 13.5833 49.1875 13.6562 49.5469 13.6562C49.8958 13.6562 50.1979 13.5833 50.4531 13.4375C50.7135 13.2917 50.9271 13.0911 51.0938 12.8359C51.2604 12.5807 51.3828 12.2839 51.4609 11.9453C51.5443 11.6068 51.5859 11.2474 51.5859 10.8672V10.6875C51.5859 10.3125 51.5443 9.95833 51.4609 9.625C51.3828 9.28646 51.2578 8.98698 51.0859 8.72656C50.9193 8.46615 50.7057 8.26302 50.4453 8.11719C50.1901 7.96615 49.8854 7.89062 49.5312 7.89062C49.1771 7.89062 48.8698 7.96615 48.6094 8.11719C48.3542 8.26302 48.1432 8.46615 47.9766 8.72656C47.8099 8.98698 47.6875 9.28646 47.6094 9.625C47.5312 9.95833 47.4922 10.3125 47.4922 10.6875ZM57.0859 6.54688V15H55.2031V6.54688H57.0859ZM53.3906 4.375C53.3906 4.11979 53.4792 3.90625 53.6562 3.73438C53.8333 3.55729 54.0677 3.46875 54.3594 3.46875C54.6562 3.46875 54.8932 3.55729 55.0703 3.73438C55.2474 3.90625 55.3359 4.11979 55.3359 4.375C55.3359 4.625 55.2474 4.83854 55.0703 5.01562C54.8932 5.1875 54.6562 5.27344 54.3594 5.27344C54.0677 5.27344 53.8333 5.1875 53.6562 5.01562C53.4792 4.83854 53.3906 4.625 53.3906 4.375ZM57.0078 4.38281C57.0078 4.1276 57.0964 3.91406 57.2734 3.74219C57.4505 3.5651 57.6875 3.47656 57.9844 3.47656C58.276 3.47656 58.5104 3.5651 58.6875 3.74219C58.8698 3.91406 58.9609 4.1276 58.9609 4.38281C58.9609 4.63281 58.8698 4.84635 58.6875 5.02344C58.5104 5.19531 58.276 5.28125 57.9844 5.28125C57.6875 5.28125 57.4505 5.19531 57.2734 5.02344C57.0964 4.84635 57.0078 4.63281 57.0078 4.38281ZM66.6719 13.6562C66.9792 13.6562 67.2552 13.5964 67.5 13.4766C67.75 13.3516 67.9505 13.1797 68.1016 12.9609C68.2578 12.7422 68.3438 12.4896 68.3594 12.2031H70.1328C70.1224 12.75 69.9609 13.2474 69.6484 13.6953C69.3359 14.1432 68.9219 14.5 68.4062 14.7656C67.8906 15.026 67.3203 15.1562 66.6953 15.1562C66.0495 15.1562 65.487 15.0469 65.0078 14.8281C64.5286 14.6042 64.1302 14.2969 63.8125 13.9062C63.4948 13.5156 63.2552 13.0651 63.0938 12.5547C62.9375 12.0443 62.8594 11.4974 62.8594 10.9141V10.6406C62.8594 10.0573 62.9375 9.51042 63.0938 9C63.2552 8.48438 63.4948 8.03125 63.8125 7.64062C64.1302 7.25 64.5286 6.94531 65.0078 6.72656C65.487 6.5026 66.0469 6.39062 66.6875 6.39062C67.3646 6.39062 67.9583 6.52604 68.4688 6.79688C68.9792 7.0625 69.3802 7.4349 69.6719 7.91406C69.9688 8.38802 70.1224 8.9401 70.1328 9.57031H68.3594C68.3438 9.25781 68.2656 8.97656 68.125 8.72656C67.9896 8.47135 67.7969 8.26823 67.5469 8.11719C67.3021 7.96615 67.0078 7.89062 66.6641 7.89062C66.2839 7.89062 65.9688 7.96875 65.7188 8.125C65.4688 8.27604 65.2734 8.48438 65.1328 8.75C64.9922 9.01042 64.8906 9.30469 64.8281 9.63281C64.7708 9.95573 64.7422 10.2917 64.7422 10.6406V10.9141C64.7422 11.263 64.7708 11.6016 64.8281 11.9297C64.8854 12.2578 64.9844 12.5521 65.125 12.8125C65.2708 13.0677 65.4688 13.2734 65.7188 13.4297C65.9688 13.5807 66.2865 13.6562 66.6719 13.6562ZM77.25 6.54688V8.04688H73.0781V6.54688H77.25ZM73.5234 6.54688V15H71.6406V6.54688H73.5234ZM78.7266 6.54688V15H76.8359V6.54688H78.7266ZM80.3594 10.8672V10.6875C80.3594 10.0781 80.4479 9.51302 80.625 8.99219C80.8021 8.46615 81.0573 8.01042 81.3906 7.625C81.7292 7.23438 82.1406 6.93229 82.625 6.71875C83.1146 6.5 83.6667 6.39062 84.2812 6.39062C84.901 6.39062 85.4531 6.5 85.9375 6.71875C86.4271 6.93229 86.8411 7.23438 87.1797 7.625C87.5182 8.01042 87.776 8.46615 87.9531 8.99219C88.1302 9.51302 88.2188 10.0781 88.2188 10.6875V10.8672C88.2188 11.4766 88.1302 12.0417 87.9531 12.5625C87.776 13.0833 87.5182 13.5391 87.1797 13.9297C86.8411 14.3151 86.4297 14.6172 85.9453 14.8359C85.4609 15.0495 84.9115 15.1562 84.2969 15.1562C83.6771 15.1562 83.1224 15.0495 82.6328 14.8359C82.1484 14.6172 81.737 14.3151 81.3984 13.9297C81.0599 13.5391 80.8021 13.0833 80.625 12.5625C80.4479 12.0417 80.3594 11.4766 80.3594 10.8672ZM82.2422 10.6875V10.8672C82.2422 11.2474 82.2812 11.6068 82.3594 11.9453C82.4375 12.2839 82.5599 12.5807 82.7266 12.8359C82.8932 13.0911 83.1068 13.2917 83.3672 13.4375C83.6276 13.5833 83.9375 13.6562 84.2969 13.6562C84.6458 13.6562 84.9479 13.5833 85.2031 13.4375C85.4635 13.2917 85.6771 13.0911 85.8438 12.8359C86.0104 12.5807 86.1328 12.2839 86.2109 11.9453C86.2943 11.6068 86.3359 11.2474 86.3359 10.8672V10.6875C86.3359 10.3125 86.2943 9.95833 86.2109 9.625C86.1328 9.28646 86.0078 8.98698 85.8359 8.72656C85.6693 8.46615 85.4557 8.26302 85.1953 8.11719C84.9401 7.96615 84.6354 7.89062 84.2812 7.89062C83.9271 7.89062 83.6198 7.96615 83.3594 8.11719C83.1042 8.26302 82.8932 8.46615 82.7266 8.72656C82.5599 8.98698 82.4375 9.28646 82.3594 9.625C82.2812 9.95833 82.2422 10.3125 82.2422 10.6875ZM93.9062 11.3828H91.2031L91.1875 10.0547H93.4062C93.7708 10.0547 94.0703 10.0182 94.3047 9.94531C94.5443 9.8724 94.7214 9.76302 94.8359 9.61719C94.9505 9.46615 95.0078 9.28385 95.0078 9.07031C95.0078 8.89323 94.974 8.73958 94.9062 8.60938C94.8385 8.47396 94.7344 8.36458 94.5938 8.28125C94.4583 8.19271 94.2865 8.13021 94.0781 8.09375C93.875 8.05208 93.638 8.03125 93.3672 8.03125H91.8281V15H89.9453V6.54688H93.3672C93.9089 6.54688 94.3958 6.59375 94.8281 6.6875C95.2656 6.78125 95.638 6.92448 95.9453 7.11719C96.2526 7.3099 96.487 7.55469 96.6484 7.85156C96.8151 8.14323 96.8984 8.48698 96.8984 8.88281C96.8984 9.14323 96.8411 9.38802 96.7266 9.61719C96.6172 9.84635 96.4531 10.0495 96.2344 10.2266C96.0156 10.4036 95.7474 10.5495 95.4297 10.6641C95.112 10.7734 94.7474 10.8411 94.3359 10.8672L93.9062 11.3828ZM93.9062 15H90.6562L91.4062 13.5156H93.9062C94.2396 13.5156 94.5156 13.474 94.7344 13.3906C94.9531 13.3073 95.1146 13.1875 95.2188 13.0312C95.3281 12.8698 95.3828 12.6797 95.3828 12.4609C95.3828 12.237 95.3307 12.0443 95.2266 11.8828C95.1224 11.7214 94.9609 11.599 94.7422 11.5156C94.5286 11.4271 94.25 11.3828 93.9062 11.3828H91.7578L91.7734 10.0547H94.3281L94.8672 10.5703C95.4036 10.6068 95.849 10.7214 96.2031 10.9141C96.5573 11.1068 96.8229 11.349 97 11.6406C97.1771 11.9323 97.2656 12.25 97.2656 12.5938C97.2656 12.9896 97.1901 13.3385 97.0391 13.6406C96.8932 13.9427 96.6745 14.1953 96.3828 14.3984C96.0964 14.5964 95.7448 14.7474 95.3281 14.8516C94.9115 14.9505 94.4375 15 93.9062 15ZM100.906 6.54688V15H99.0156V6.54688H100.906ZM98.8906 4.32812C98.8906 4.04167 98.9844 3.80469 99.1719 3.61719C99.3646 3.42448 99.6302 3.32812 99.9688 3.32812C100.302 3.32812 100.565 3.42448 100.758 3.61719C100.951 3.80469 101.047 4.04167 101.047 4.32812C101.047 4.60938 100.951 4.84375 100.758 5.03125C100.565 5.21875 100.302 5.3125 99.9688 5.3125C99.6302 5.3125 99.3646 5.21875 99.1719 5.03125C98.9844 4.84375 98.8906 4.60938 98.8906 4.32812ZM115.461 13.5078L115.312 17.5078H113.586V15H112.57V13.5078H115.461ZM102.977 6.54688H104.859V13.5H107.547V6.54688H109.438V13.5H112.117V6.54688H114V15H102.977V6.54688ZM120.586 15.1562C119.961 15.1562 119.396 15.0547 118.891 14.8516C118.391 14.6432 117.964 14.3542 117.609 13.9844C117.26 13.6146 116.992 13.1797 116.805 12.6797C116.617 12.1797 116.523 11.6406 116.523 11.0625V10.75C116.523 10.0885 116.62 9.48958 116.812 8.95312C117.005 8.41667 117.273 7.95833 117.617 7.57812C117.961 7.19271 118.367 6.89844 118.836 6.69531C119.305 6.49219 119.812 6.39062 120.359 6.39062C120.964 6.39062 121.492 6.49219 121.945 6.69531C122.398 6.89844 122.773 7.1849 123.07 7.55469C123.372 7.91927 123.596 8.35417 123.742 8.85938C123.893 9.36458 123.969 9.92188 123.969 10.5312V11.3359H117.438V9.98438H122.109V9.83594C122.099 9.4974 122.031 9.17969 121.906 8.88281C121.786 8.58594 121.602 8.34635 121.352 8.16406C121.102 7.98177 120.768 7.89062 120.352 7.89062C120.039 7.89062 119.76 7.95833 119.516 8.09375C119.276 8.22396 119.076 8.41406 118.914 8.66406C118.753 8.91406 118.628 9.21615 118.539 9.57031C118.456 9.91927 118.414 10.3125 118.414 10.75V11.0625C118.414 11.4323 118.464 11.776 118.562 12.0938C118.667 12.4062 118.818 12.6797 119.016 12.9141C119.214 13.1484 119.453 13.3333 119.734 13.4688C120.016 13.599 120.336 13.6641 120.695 13.6641C121.148 13.6641 121.552 13.5729 121.906 13.3906C122.26 13.2083 122.568 12.9505 122.828 12.6172L123.82 13.5781C123.638 13.8438 123.401 14.099 123.109 14.3438C122.818 14.5833 122.461 14.7786 122.039 14.9297C121.622 15.0807 121.138 15.1562 120.586 15.1562ZM131.211 10.0781V11.5625H126.836V10.0781H131.211ZM127.383 6.54688V15H125.5V6.54688H127.383ZM132.57 6.54688V15H130.688V6.54688H132.57ZM140.352 10.0781V11.5625H135.977V10.0781H140.352ZM136.523 6.54688V15H134.641V6.54688H136.523ZM141.711 6.54688V15H139.828V6.54688H141.711ZM145.5 10.8672H147.453L145.055 15H143.109L145.5 10.8672ZM146.875 6.54688H150.5V15H148.625V8.03125H146.875C146.521 8.03125 146.229 8.09375 146 8.21875C145.771 8.33854 145.602 8.4974 145.492 8.69531C145.383 8.88802 145.328 9.08594 145.328 9.28906C145.328 9.49219 145.378 9.6875 145.477 9.875C145.581 10.0625 145.74 10.2161 145.953 10.3359C146.172 10.4557 146.445 10.5156 146.773 10.5156H149.258V11.8906H146.773C146.253 11.8906 145.786 11.8255 145.375 11.6953C144.964 11.5599 144.615 11.375 144.328 11.1406C144.042 10.901 143.823 10.6224 143.672 10.3047C143.521 9.98177 143.445 9.63021 143.445 9.25C143.445 8.85938 143.523 8.5 143.68 8.17188C143.836 7.84375 144.06 7.55729 144.352 7.3125C144.648 7.06771 145.008 6.88021 145.43 6.75C145.857 6.61458 146.339 6.54688 146.875 6.54688Z" fill="#757575"/>
    <path d="M10 0C7.34784 0 4.8043 1.05357 2.92893 2.92893C1.05357 4.8043 0 7.34784 0 10C0 12.6522 1.05357 15.1957 2.92893 17.0711C4.8043 18.9464 7.34784 20 10 20C12.6522 20 15.1957 18.9464 17.0711 17.0711C18.9464 15.1957 20 12.6522 20 10C20 7.34784 18.9464 4.8043 17.0711 2.92893C15.1957 1.05357 12.6522 0 10 0V0ZM4.0925 5.9075H13.6392C14.1191 5.91449 14.5771 6.10966 14.9145 6.451C15.252 6.79233 15.4419 7.25253 15.4433 7.7325V12.6183C15.4358 13.0972 15.2423 13.5544 14.9037 13.8931C14.5651 14.2319 14.108 14.4256 13.6292 14.4333H6.7C5.72167 14.4333 5 13.6083 5 12.6183V8.7525L3.7525 6.5875C3.49417 6.2375 3.71083 5.9075 4.0925 5.9075ZM6.93833 7.7325C6.64917 7.7325 6.37167 7.9075 6.37167 8.18583C6.37167 8.46417 6.64917 8.63917 6.93833 8.63917H13.5258C13.8142 8.63917 14.0925 8.46417 14.0925 8.18583C14.0925 7.9075 13.8142 7.73167 13.5258 7.73167L6.93833 7.7325ZM6.93833 9.54667C6.64917 9.54667 6.37167 9.72167 6.37167 10C6.37167 10.2783 6.64917 10.4533 6.93833 10.4533H13.5258C13.8142 10.4533 14.0925 10.2783 14.0925 10C14.0925 9.72167 13.8142 9.54667 13.5258 9.54667H6.93833ZM6.9275 11.3717C6.63917 11.3717 6.36083 11.5467 6.36083 11.825C6.36083 12.1033 6.63917 12.2783 6.9275 12.2783H11.7008C11.99 12.2783 12.2675 12.1033 12.2675 11.825C12.2675 11.5467 11.99 11.3708 11.7008 11.3708L6.9275 11.3717Z" fill="#B8BECA"/>
</svg>

