<svg width="20" height="20" viewBox="0 0 20 20" fill="none" xmlns="http://www.w3.org/2000/svg">
    <path d="M15.8183 8.3205C12.9673 2.77688 11.4842 0.671056 6.82628 0.759175C5.16692 0.789678 5.56457 -0.327631 4.29911 0.0960202C3.03614 0.519671 4.12029 1.1399 2.82732 2.09904C-0.801509 4.7912 -0.467637 7.28114 1.21548 13.2156C1.92449 15.7158 -0.493897 15.8378 0.462703 18.2599C1.16171 20.0268 6.31359 20.7668 11.7481 18.9457C17.1838 17.1234 20.6088 13.5071 19.9098 11.7402C18.9532 9.31693 17.02 10.6545 15.8183 8.3205ZM11.1591 17.4522C6.30484 19.079 2.31588 18.1232 2.14707 17.6973C1.85696 16.963 3.71389 14.516 9.26342 12.6553C14.8129 10.7946 17.9103 11.4849 18.2342 12.3039C18.4255 12.7886 16.0146 15.8242 11.1591 17.4522ZM9.59854 13.5049C7.06136 14.3555 5.29822 15.3282 4.1553 16.2038C4.95935 16.8636 6.4649 17.024 7.96419 16.5213C9.87364 15.883 11.0478 14.4132 10.5839 13.2405L10.5639 13.1998C10.25 13.2925 9.92866 13.393 9.59854 13.5049Z" fill="#757575"/>
</svg>
