<svg width="20" height="20" viewBox="0 0 20 20" fill="none" xmlns="http://www.w3.org/2000/svg">
    <circle cx="10" cy="10" r="10" fill="#B8BECA"/>
    <path d="M8.61539 15.5357V12.2813C8.61539 12.0538 8.84615 11.8217 9.07692 11.8217H10.9231C11.1538 11.8217 11.3846 12.0538 11.3846 12.286V15.5357C11.3846 15.6589 11.4332 15.777 11.5198 15.864C11.6064 15.9511 11.7237 16 11.8462 16H15.5385C15.6609 16 15.7783 15.9511 15.8648 15.864C15.9514 15.777 16 15.6589 16 15.5357V9.03616C16.0001 8.97515 15.9883 8.91472 15.9651 8.85832C15.942 8.80192 15.9081 8.75066 15.8652 8.70747L14.6154 7.45119V4.3936C14.6154 4.27047 14.5668 4.15238 14.4802 4.06532C14.3936 3.97825 14.2763 3.92934 14.1538 3.92934H13.2308C13.1084 3.92934 12.991 3.97825 12.9044 4.06532C12.8179 4.15238 12.7692 4.27047 12.7692 4.3936V5.59416L10.3268 3.13639C10.2839 3.09316 10.233 3.05886 10.1769 3.03545C10.1208 3.01205 10.0607 3 10 3C9.93929 3 9.87918 3.01205 9.82311 3.03545C9.76704 3.05886 9.7161 3.09316 9.67323 3.13639L4.13477 8.70747C4.09194 8.75066 4.05799 8.80192 4.03486 8.85832C4.01174 8.91472 3.99989 8.97515 4 9.03616V15.5357C4 15.6589 4.04863 15.777 4.13518 15.864C4.22174 15.9511 4.33913 16 4.46154 16H8.15385C8.27625 16 8.39365 15.9511 8.4802 15.864C8.56676 15.777 8.61539 15.6589 8.61539 15.5357Z" fill="white"/>
</svg>

