<svg width="113" height="40" viewBox="0 0 113 40" fill="none" xmlns="http://www.w3.org/2000/svg">
    <path d="M38.3672 3.625V5.1875H33.0781V15H31.125V3.625H38.3672ZM32.4844 7.99219H35.3438C36.2083 7.99219 36.9479 8.13802 37.5625 8.42969C38.1771 8.71615 38.6458 9.11979 38.9688 9.64062C39.2917 10.1615 39.4531 10.7682 39.4531 11.4609C39.4531 11.9818 39.362 12.4583 39.1797 12.8906C38.9974 13.3229 38.7292 13.6979 38.375 14.0156C38.0208 14.3281 37.5885 14.5703 37.0781 14.7422C36.5729 14.9141 35.9948 15 35.3438 15H31.125V3.625H33.0938V13.4453H35.3438C35.8385 13.4453 36.2448 13.3542 36.5625 13.1719C36.8802 12.9844 37.1146 12.7396 37.2656 12.4375C37.4219 12.1354 37.5 11.8047 37.5 11.4453C37.5 11.0964 37.4219 10.7786 37.2656 10.4922C37.1146 10.2057 36.8802 9.97656 36.5625 9.80469C36.2448 9.63281 35.8385 9.54688 35.3438 9.54688H32.4844V7.99219ZM46.7109 6.54688V8.04688H42.5859V6.54688H46.7109ZM48.1875 6.54688V15H46.3047V6.54688H48.1875ZM42.125 6.54688H43.9844L43.7578 10.7266C43.7266 11.3464 43.6641 11.8932 43.5703 12.3672C43.4818 12.8359 43.362 13.2396 43.2109 13.5781C43.0599 13.9115 42.875 14.1823 42.6562 14.3906C42.4375 14.599 42.1823 14.7526 41.8906 14.8516C41.599 14.9505 41.2708 15 40.9062 15H40.3203L40.3125 13.4531L40.6094 13.4297C40.8021 13.4141 40.9688 13.3646 41.1094 13.2812C41.25 13.1927 41.3698 13.0677 41.4688 12.9062C41.5729 12.7448 41.6562 12.5365 41.7188 12.2812C41.7865 12.026 41.8385 11.724 41.875 11.375C41.9167 11.026 41.9479 10.6198 41.9688 10.1562L42.125 6.54688ZM54.9531 13.3047V9.27344C54.9531 8.97135 54.8984 8.71094 54.7891 8.49219C54.6797 8.27344 54.513 8.10417 54.2891 7.98438C54.0703 7.86458 53.7943 7.80469 53.4609 7.80469C53.1536 7.80469 52.888 7.85677 52.6641 7.96094C52.4401 8.0651 52.2656 8.20573 52.1406 8.38281C52.0156 8.5599 51.9531 8.76042 51.9531 8.98438H50.0781C50.0781 8.65104 50.1589 8.32812 50.3203 8.01562C50.4818 7.70312 50.7161 7.42448 51.0234 7.17969C51.3307 6.9349 51.6979 6.74219 52.125 6.60156C52.5521 6.46094 53.0312 6.39062 53.5625 6.39062C54.1979 6.39062 54.7604 6.4974 55.25 6.71094C55.7448 6.92448 56.1328 7.2474 56.4141 7.67969C56.7005 8.10677 56.8438 8.64323 56.8438 9.28906V13.0469C56.8438 13.4323 56.8698 13.7786 56.9219 14.0859C56.9792 14.388 57.0599 14.651 57.1641 14.875V15H55.2344C55.1458 14.7969 55.0755 14.5391 55.0234 14.2266C54.9766 13.9089 54.9531 13.6016 54.9531 13.3047ZM55.2266 9.85938L55.2422 11.0234H53.8906C53.5417 11.0234 53.2344 11.0573 52.9688 11.125C52.7031 11.1875 52.4818 11.2812 52.3047 11.4062C52.1276 11.5312 51.9948 11.6823 51.9062 11.8594C51.8177 12.0365 51.7734 12.237 51.7734 12.4609C51.7734 12.6849 51.8255 12.8906 51.9297 13.0781C52.0339 13.2604 52.1849 13.4036 52.3828 13.5078C52.5859 13.612 52.8307 13.6641 53.1172 13.6641C53.5026 13.6641 53.8385 13.5859 54.125 13.4297C54.4167 13.2682 54.6458 13.0729 54.8125 12.8438C54.9792 12.6094 55.0677 12.388 55.0781 12.1797L55.6875 13.0156C55.625 13.2292 55.5182 13.4583 55.3672 13.7031C55.2161 13.9479 55.0182 14.1823 54.7734 14.4062C54.5339 14.625 54.2448 14.8047 53.9062 14.9453C53.5729 15.0859 53.1875 15.1562 52.75 15.1562C52.1979 15.1562 51.7057 15.0469 51.2734 14.8281C50.8411 14.6042 50.5026 14.3047 50.2578 13.9297C50.013 13.5495 49.8906 13.1198 49.8906 12.6406C49.8906 12.1927 49.974 11.7969 50.1406 11.4531C50.3125 11.1042 50.5625 10.8125 50.8906 10.5781C51.224 10.3438 51.6302 10.1667 52.1094 10.0469C52.5885 9.92188 53.1354 9.85938 53.75 9.85938H55.2266ZM64.4375 6.54688V8.04688H60.75V15H58.8672V6.54688H64.4375ZM65.0156 10.8672V10.6875C65.0156 10.0781 65.1042 9.51302 65.2812 8.99219C65.4583 8.46615 65.7135 8.01042 66.0469 7.625C66.3854 7.23438 66.7969 6.93229 67.2812 6.71875C67.7708 6.5 68.3229 6.39062 68.9375 6.39062C69.5573 6.39062 70.1094 6.5 70.5938 6.71875C71.0833 6.93229 71.4974 7.23438 71.8359 7.625C72.1745 8.01042 72.4323 8.46615 72.6094 8.99219C72.7865 9.51302 72.875 10.0781 72.875 10.6875V10.8672C72.875 11.4766 72.7865 12.0417 72.6094 12.5625C72.4323 13.0833 72.1745 13.5391 71.8359 13.9297C71.4974 14.3151 71.0859 14.6172 70.6016 14.8359C70.1172 15.0495 69.5677 15.1562 68.9531 15.1562C68.3333 15.1562 67.7786 15.0495 67.2891 14.8359C66.8047 14.6172 66.3932 14.3151 66.0547 13.9297C65.7161 13.5391 65.4583 13.0833 65.2812 12.5625C65.1042 12.0417 65.0156 11.4766 65.0156 10.8672ZM66.8984 10.6875V10.8672C66.8984 11.2474 66.9375 11.6068 67.0156 11.9453C67.0938 12.2839 67.2161 12.5807 67.3828 12.8359C67.5495 13.0911 67.763 13.2917 68.0234 13.4375C68.2839 13.5833 68.5938 13.6562 68.9531 13.6562C69.3021 13.6562 69.6042 13.5833 69.8594 13.4375C70.1198 13.2917 70.3333 13.0911 70.5 12.8359C70.6667 12.5807 70.7891 12.2839 70.8672 11.9453C70.9505 11.6068 70.9922 11.2474 70.9922 10.8672V10.6875C70.9922 10.3125 70.9505 9.95833 70.8672 9.625C70.7891 9.28646 70.6641 8.98698 70.4922 8.72656C70.3255 8.46615 70.112 8.26302 69.8516 8.11719C69.5964 7.96615 69.2917 7.89062 68.9375 7.89062C68.5833 7.89062 68.276 7.96615 68.0156 8.11719C67.7604 8.26302 67.5495 8.46615 67.3828 8.72656C67.2161 8.98698 67.0938 9.28646 67.0156 9.625C66.9375 9.95833 66.8984 10.3125 66.8984 10.6875ZM75.4219 6.54688H77.3047L77.2109 9.52344C77.1849 10.388 77.0859 11.1302 76.9141 11.75C76.7422 12.3698 76.5182 12.8932 76.2422 13.3203C75.9661 13.7422 75.6536 14.0885 75.3047 14.3594C74.9609 14.6302 74.599 14.8438 74.2188 15H73.6641V13.5156L73.9297 13.5C74.1536 13.2604 74.3464 13.0208 74.5078 12.7812C74.6745 12.5365 74.8151 12.2682 74.9297 11.9766C75.0443 11.6797 75.1328 11.3333 75.1953 10.9375C75.263 10.5417 75.3073 10.0703 75.3281 9.52344L75.4219 6.54688ZM75.9219 6.54688H81.2812V15H79.4062V8.14062H75.9219V6.54688ZM73.2344 13.5H82.4375V17.5156H80.5547V15H75.1406V17.5156H73.2266L73.2344 13.5ZM85.7969 6.54688V15H83.9062V6.54688H85.7969ZM83.7812 4.32812C83.7812 4.04167 83.875 3.80469 84.0625 3.61719C84.2552 3.42448 84.5208 3.32812 84.8594 3.32812C85.1927 3.32812 85.4557 3.42448 85.6484 3.61719C85.8411 3.80469 85.9375 4.04167 85.9375 4.32812C85.9375 4.60938 85.8411 4.84375 85.6484 5.03125C85.4557 5.21875 85.1927 5.3125 84.8594 5.3125C84.5208 5.3125 84.2552 5.21875 84.0625 5.03125C83.875 4.84375 83.7812 4.60938 83.7812 4.32812ZM89.8047 12.25L93.125 6.54688H95.0078V15H93.125V9.28906L89.8047 15H87.9219V6.54688H89.8047V12.25ZM92.625 3.29688H94.0234C94.0234 3.72917 93.9193 4.11198 93.7109 4.44531C93.5078 4.77344 93.2161 5.03125 92.8359 5.21875C92.4609 5.40625 92.013 5.5 91.4922 5.5C90.7057 5.5 90.0833 5.29688 89.625 4.89062C89.1719 4.47917 88.9453 3.94792 88.9453 3.29688H90.3438C90.3438 3.58854 90.4297 3.84635 90.6016 4.07031C90.7786 4.28906 91.0755 4.39844 91.4922 4.39844C91.9036 4.39844 92.1953 4.28906 92.3672 4.07031C92.5391 3.84635 92.625 3.58854 92.625 3.29688ZM102.773 10.0781V11.5625H98.3984V10.0781H102.773ZM98.9453 6.54688V15H97.0625V6.54688H98.9453ZM104.133 6.54688V15H102.25V6.54688H104.133ZM108.156 6.54688V15H106.266V6.54688H108.156ZM106.141 4.32812C106.141 4.04167 106.234 3.80469 106.422 3.61719C106.615 3.42448 106.88 3.32812 107.219 3.32812C107.552 3.32812 107.815 3.42448 108.008 3.61719C108.201 3.80469 108.297 4.04167 108.297 4.32812C108.297 4.60938 108.201 4.84375 108.008 5.03125C107.815 5.21875 107.552 5.3125 107.219 5.3125C106.88 5.3125 106.615 5.21875 106.422 5.03125C106.234 4.84375 106.141 4.60938 106.141 4.32812ZM30.6094 30.8672V30.6875C30.6094 30.0781 30.6979 29.513 30.875 28.9922C31.0521 28.4661 31.3073 28.0104 31.6406 27.625C31.9792 27.2344 32.3906 26.9323 32.875 26.7188C33.3646 26.5 33.9167 26.3906 34.5312 26.3906C35.151 26.3906 35.7031 26.5 36.1875 26.7188C36.6771 26.9323 37.0911 27.2344 37.4297 27.625C37.7682 28.0104 38.026 28.4661 38.2031 28.9922C38.3802 29.513 38.4688 30.0781 38.4688 30.6875V30.8672C38.4688 31.4766 38.3802 32.0417 38.2031 32.5625C38.026 33.0833 37.7682 33.5391 37.4297 33.9297C37.0911 34.3151 36.6797 34.6172 36.1953 34.8359C35.7109 35.0495 35.1615 35.1562 34.5469 35.1562C33.9271 35.1562 33.3724 35.0495 32.8828 34.8359C32.3984 34.6172 31.987 34.3151 31.6484 33.9297C31.3099 33.5391 31.0521 33.0833 30.875 32.5625C30.6979 32.0417 30.6094 31.4766 30.6094 30.8672ZM32.4922 30.6875V30.8672C32.4922 31.2474 32.5312 31.6068 32.6094 31.9453C32.6875 32.2839 32.8099 32.5807 32.9766 32.8359C33.1432 33.0911 33.3568 33.2917 33.6172 33.4375C33.8776 33.5833 34.1875 33.6562 34.5469 33.6562C34.8958 33.6562 35.1979 33.5833 35.4531 33.4375C35.7135 33.2917 35.9271 33.0911 36.0938 32.8359C36.2604 32.5807 36.3828 32.2839 36.4609 31.9453C36.5443 31.6068 36.5859 31.2474 36.5859 30.8672V30.6875C36.5859 30.3125 36.5443 29.9583 36.4609 29.625C36.3828 29.2865 36.2578 28.987 36.0859 28.7266C35.9193 28.4661 35.7057 28.263 35.4453 28.1172C35.1901 27.9661 34.8854 27.8906 34.5312 27.8906C34.1771 27.8906 33.8698 27.9661 33.6094 28.1172C33.3542 28.263 33.1432 28.4661 32.9766 28.7266C32.8099 28.987 32.6875 29.2865 32.6094 29.625C32.5312 29.9583 32.4922 30.3125 32.4922 30.6875ZM41.9375 28.1719V38.25H40.0547V26.5469H41.7891L41.9375 28.1719ZM47.4453 30.6953V30.8594C47.4453 31.474 47.3724 32.0443 47.2266 32.5703C47.0859 33.0911 46.875 33.5469 46.5938 33.9375C46.3177 34.3229 45.9766 34.6224 45.5703 34.8359C45.1641 35.0495 44.6953 35.1562 44.1641 35.1562C43.638 35.1562 43.1771 35.0599 42.7812 34.8672C42.3906 34.6693 42.0599 34.3906 41.7891 34.0312C41.5182 33.6719 41.2995 33.25 41.1328 32.7656C40.9714 32.276 40.8568 31.7396 40.7891 31.1562V30.5234C40.8568 29.9036 40.9714 29.3411 41.1328 28.8359C41.2995 28.3307 41.5182 27.8958 41.7891 27.5312C42.0599 27.1667 42.3906 26.8854 42.7812 26.6875C43.1719 26.4896 43.6276 26.3906 44.1484 26.3906C44.6797 26.3906 45.151 26.4948 45.5625 26.7031C45.974 26.9062 46.3203 27.1979 46.6016 27.5781C46.8828 27.9531 47.0938 28.4062 47.2344 28.9375C47.375 29.4635 47.4453 30.0495 47.4453 30.6953ZM45.5625 30.8594V30.6953C45.5625 30.3047 45.526 29.9427 45.4531 29.6094C45.3802 29.2708 45.2656 28.974 45.1094 28.7188C44.9531 28.4635 44.7526 28.2656 44.5078 28.125C44.2682 27.9792 43.9792 27.9062 43.6406 27.9062C43.3073 27.9062 43.0208 27.9635 42.7812 28.0781C42.5417 28.1875 42.3411 28.3411 42.1797 28.5391C42.0182 28.737 41.8932 28.9688 41.8047 29.2344C41.7161 29.4948 41.6536 29.7786 41.6172 30.0859V31.6016C41.6797 31.9766 41.7865 32.3203 41.9375 32.6328C42.0885 32.9453 42.3021 33.1953 42.5781 33.3828C42.8594 33.5651 43.2188 33.6562 43.6562 33.6562C43.9948 33.6562 44.2839 33.5833 44.5234 33.4375C44.763 33.2917 44.9583 33.0911 45.1094 32.8359C45.2656 32.5755 45.3802 32.276 45.4531 31.9375C45.526 31.599 45.5625 31.2396 45.5625 30.8594ZM54.6719 26.5469V28.0469H50.9844V35H49.1016V26.5469H54.6719ZM60.5312 33.3047V29.2734C60.5312 28.9714 60.4766 28.7109 60.3672 28.4922C60.2578 28.2734 60.0911 28.1042 59.8672 27.9844C59.6484 27.8646 59.3724 27.8047 59.0391 27.8047C58.7318 27.8047 58.4661 27.8568 58.2422 27.9609C58.0182 28.0651 57.8438 28.2057 57.7188 28.3828C57.5938 28.5599 57.5312 28.7604 57.5312 28.9844H55.6562C55.6562 28.651 55.737 28.3281 55.8984 28.0156C56.0599 27.7031 56.2943 27.4245 56.6016 27.1797C56.9089 26.9349 57.276 26.7422 57.7031 26.6016C58.1302 26.4609 58.6094 26.3906 59.1406 26.3906C59.776 26.3906 60.3385 26.4974 60.8281 26.7109C61.3229 26.9245 61.7109 27.2474 61.9922 27.6797C62.2786 28.1068 62.4219 28.6432 62.4219 29.2891V33.0469C62.4219 33.4323 62.4479 33.7786 62.5 34.0859C62.5573 34.388 62.638 34.651 62.7422 34.875V35H60.8125C60.724 34.7969 60.6536 34.5391 60.6016 34.2266C60.5547 33.9089 60.5312 33.6016 60.5312 33.3047ZM60.8047 29.8594L60.8203 31.0234H59.4688C59.1198 31.0234 58.8125 31.0573 58.5469 31.125C58.2812 31.1875 58.0599 31.2812 57.8828 31.4062C57.7057 31.5312 57.5729 31.6823 57.4844 31.8594C57.3958 32.0365 57.3516 32.237 57.3516 32.4609C57.3516 32.6849 57.4036 32.8906 57.5078 33.0781C57.612 33.2604 57.763 33.4036 57.9609 33.5078C58.1641 33.612 58.4089 33.6641 58.6953 33.6641C59.0807 33.6641 59.4167 33.5859 59.7031 33.4297C59.9948 33.2682 60.224 33.0729 60.3906 32.8438C60.5573 32.6094 60.6458 32.388 60.6562 32.1797L61.2656 33.0156C61.2031 33.2292 61.0964 33.4583 60.9453 33.7031C60.7943 33.9479 60.5964 34.1823 60.3516 34.4062C60.112 34.625 59.8229 34.8047 59.4844 34.9453C59.151 35.0859 58.7656 35.1562 58.3281 35.1562C57.776 35.1562 57.2839 35.0469 56.8516 34.8281C56.4193 34.6042 56.0807 34.3047 55.8359 33.9297C55.5911 33.5495 55.4688 33.1198 55.4688 32.6406C55.4688 32.1927 55.5521 31.7969 55.7188 31.4531C55.8906 31.1042 56.1406 30.8125 56.4688 30.5781C56.8021 30.3438 57.2083 30.1667 57.6875 30.0469C58.1667 29.9219 58.7135 29.8594 59.3281 29.8594H60.8047ZM70.1641 30.0781V31.5625H65.7891V30.0781H70.1641ZM66.3359 26.5469V35H64.4531V26.5469H66.3359ZM71.5234 26.5469V35H69.6406V26.5469H71.5234ZM75.5469 26.5469V35H73.6562V26.5469H75.5469ZM73.5312 24.3281C73.5312 24.0417 73.625 23.8047 73.8125 23.6172C74.0052 23.4245 74.2708 23.3281 74.6094 23.3281C74.9427 23.3281 75.2057 23.4245 75.3984 23.6172C75.5911 23.8047 75.6875 24.0417 75.6875 24.3281C75.6875 24.6094 75.5911 24.8438 75.3984 25.0312C75.2057 25.2188 74.9427 25.3125 74.6094 25.3125C74.2708 25.3125 74.0052 25.2188 73.8125 25.0312C73.625 24.8438 73.5312 24.6094 73.5312 24.3281ZM81.1094 30.9609H79.4844V30.0078H80.7969C81.1302 30.0078 81.3958 29.9635 81.5938 29.875C81.7969 29.7865 81.9401 29.6641 82.0234 29.5078C82.112 29.3464 82.1562 29.1589 82.1562 28.9453C82.1562 28.7578 82.112 28.5807 82.0234 28.4141C81.9401 28.2422 81.7969 28.1016 81.5938 27.9922C81.3906 27.8828 81.1146 27.8281 80.7656 27.8281C80.4792 27.8281 80.2214 27.875 79.9922 27.9688C79.7682 28.0625 79.5911 28.1927 79.4609 28.3594C79.3307 28.526 79.2656 28.7188 79.2656 28.9375H77.3828C77.3828 28.4115 77.5312 27.9583 77.8281 27.5781C78.1302 27.1979 78.5339 26.9062 79.0391 26.7031C79.5443 26.5 80.099 26.3984 80.7031 26.3984C81.2188 26.3984 81.6823 26.4531 82.0938 26.5625C82.5052 26.6667 82.8542 26.8229 83.1406 27.0312C83.4323 27.2344 83.6536 27.4896 83.8047 27.7969C83.9609 28.099 84.0391 28.4505 84.0391 28.8516C84.0391 29.138 83.9714 29.4089 83.8359 29.6641C83.7005 29.9193 83.5052 30.1458 83.25 30.3438C82.9948 30.5365 82.6849 30.6875 82.3203 30.7969C81.9609 30.9062 81.5573 30.9609 81.1094 30.9609ZM79.4844 30.4141H81.1094C81.6094 30.4141 82.0521 30.4635 82.4375 30.5625C82.8229 30.6562 83.1458 30.7969 83.4062 30.9844C83.6667 31.1719 83.862 31.4036 83.9922 31.6797C84.1276 31.9505 84.1953 32.263 84.1953 32.6172C84.1953 33.013 84.1094 33.3698 83.9375 33.6875C83.7708 34 83.5312 34.2656 83.2188 34.4844C82.9115 34.7031 82.5443 34.8698 82.1172 34.9844C81.6901 35.099 81.2188 35.1562 80.7031 35.1562C80.1406 35.1562 79.5938 35.0625 79.0625 34.875C78.5365 34.6875 78.1016 34.3984 77.7578 34.0078C77.4193 33.612 77.25 33.1094 77.25 32.5H79.1328C79.1328 32.7135 79.1979 32.9141 79.3281 33.1016C79.4583 33.2891 79.6458 33.4427 79.8906 33.5625C80.1354 33.6771 80.4297 33.7344 80.7734 33.7344C81.1276 33.7344 81.4167 33.6797 81.6406 33.5703C81.8646 33.4557 82.0312 33.3073 82.1406 33.125C82.25 32.9375 82.3047 32.7396 82.3047 32.5312C82.3047 32.25 82.25 32.0234 82.1406 31.8516C82.0312 31.6797 81.8646 31.5547 81.6406 31.4766C81.4167 31.3932 81.1354 31.3516 80.7969 31.3516H79.4844V30.4141ZM90.5625 33.3047V29.2734C90.5625 28.9714 90.5078 28.7109 90.3984 28.4922C90.2891 28.2734 90.1224 28.1042 89.8984 27.9844C89.6797 27.8646 89.4036 27.8047 89.0703 27.8047C88.763 27.8047 88.4974 27.8568 88.2734 27.9609C88.0495 28.0651 87.875 28.2057 87.75 28.3828C87.625 28.5599 87.5625 28.7604 87.5625 28.9844H85.6875C85.6875 28.651 85.7682 28.3281 85.9297 28.0156C86.0911 27.7031 86.3255 27.4245 86.6328 27.1797C86.9401 26.9349 87.3073 26.7422 87.7344 26.6016C88.1615 26.4609 88.6406 26.3906 89.1719 26.3906C89.8073 26.3906 90.3698 26.4974 90.8594 26.7109C91.3542 26.9245 91.7422 27.2474 92.0234 27.6797C92.3099 28.1068 92.4531 28.6432 92.4531 29.2891V33.0469C92.4531 33.4323 92.4792 33.7786 92.5312 34.0859C92.5885 34.388 92.6693 34.651 92.7734 34.875V35H90.8438C90.7552 34.7969 90.6849 34.5391 90.6328 34.2266C90.5859 33.9089 90.5625 33.6016 90.5625 33.3047ZM90.8359 29.8594L90.8516 31.0234H89.5C89.151 31.0234 88.8438 31.0573 88.5781 31.125C88.3125 31.1875 88.0911 31.2812 87.9141 31.4062C87.737 31.5312 87.6042 31.6823 87.5156 31.8594C87.4271 32.0365 87.3828 32.237 87.3828 32.4609C87.3828 32.6849 87.4349 32.8906 87.5391 33.0781C87.6432 33.2604 87.7943 33.4036 87.9922 33.5078C88.1953 33.612 88.4401 33.6641 88.7266 33.6641C89.112 33.6641 89.4479 33.5859 89.7344 33.4297C90.026 33.2682 90.2552 33.0729 90.4219 32.8438C90.5885 32.6094 90.6771 32.388 90.6875 32.1797L91.2969 33.0156C91.2344 33.2292 91.1276 33.4583 90.9766 33.7031C90.8255 33.9479 90.6276 34.1823 90.3828 34.4062C90.1432 34.625 89.8542 34.8047 89.5156 34.9453C89.1823 35.0859 88.7969 35.1562 88.3594 35.1562C87.8073 35.1562 87.3151 35.0469 86.8828 34.8281C86.4505 34.6042 86.112 34.3047 85.8672 33.9297C85.6224 33.5495 85.5 33.1198 85.5 32.6406C85.5 32.1927 85.5833 31.7969 85.75 31.4531C85.9219 31.1042 86.1719 30.8125 86.5 30.5781C86.8333 30.3438 87.2396 30.1667 87.7188 30.0469C88.1979 29.9219 88.7448 29.8594 89.3594 29.8594H90.8359ZM94.4844 35V26.5469H96.3672V33.5H99.6797V26.5469H101.57V35H94.4844ZM102.719 33.5078L102.57 37.5078H100.844V35H99.8281V33.5078H102.719ZM106.062 26.5469V35H104.172V26.5469H106.062ZM104.047 24.3281C104.047 24.0417 104.141 23.8047 104.328 23.6172C104.521 23.4245 104.786 23.3281 105.125 23.3281C105.458 23.3281 105.721 23.4245 105.914 23.6172C106.107 23.8047 106.203 24.0417 106.203 24.3281C106.203 24.6094 106.107 24.8438 105.914 25.0312C105.721 25.2188 105.458 25.3125 105.125 25.3125C104.786 25.3125 104.521 25.2188 104.328 25.0312C104.141 24.8438 104.047 24.6094 104.047 24.3281ZM110.164 26.5469V35H108.281V26.5469H110.164ZM106.469 24.375C106.469 24.1198 106.557 23.9062 106.734 23.7344C106.911 23.5573 107.146 23.4688 107.438 23.4688C107.734 23.4688 107.971 23.5573 108.148 23.7344C108.326 23.9062 108.414 24.1198 108.414 24.375C108.414 24.625 108.326 24.8385 108.148 25.0156C107.971 25.1875 107.734 25.2734 107.438 25.2734C107.146 25.2734 106.911 25.1875 106.734 25.0156C106.557 24.8385 106.469 24.625 106.469 24.375ZM110.086 24.3828C110.086 24.1276 110.174 23.9141 110.352 23.7422C110.529 23.5651 110.766 23.4766 111.062 23.4766C111.354 23.4766 111.589 23.5651 111.766 23.7422C111.948 23.9141 112.039 24.1276 112.039 24.3828C112.039 24.6328 111.948 24.8464 111.766 25.0234C111.589 25.1953 111.354 25.2812 111.062 25.2812C110.766 25.2812 110.529 25.1953 110.352 25.0234C110.174 24.8464 110.086 24.6328 110.086 24.3828Z" fill="#757575"/>
    <circle cx="10" cy="10" r="10" fill="#B8BECA"/>
    <path d="M8.61539 15.5357V12.2813C8.61539 12.0538 8.84615 11.8217 9.07692 11.8217H10.9231C11.1538 11.8217 11.3846 12.0538 11.3846 12.286V15.5357C11.3846 15.6589 11.4332 15.777 11.5198 15.864C11.6064 15.9511 11.7237 16 11.8462 16H15.5385C15.6609 16 15.7783 15.9511 15.8648 15.864C15.9514 15.777 16 15.6589 16 15.5357V9.03616C16.0001 8.97515 15.9883 8.91472 15.9651 8.85832C15.942 8.80192 15.9081 8.75066 15.8652 8.70747L14.6154 7.45119V4.3936C14.6154 4.27047 14.5668 4.15238 14.4802 4.06532C14.3936 3.97825 14.2763 3.92934 14.1538 3.92934H13.2308C13.1084 3.92934 12.991 3.97825 12.9044 4.06532C12.8179 4.15238 12.7692 4.27047 12.7692 4.3936V5.59416L10.3268 3.13639C10.2839 3.09316 10.233 3.05886 10.1769 3.03545C10.1208 3.01205 10.0607 3 10 3C9.93929 3 9.87918 3.01205 9.82311 3.03545C9.76704 3.05886 9.7161 3.09316 9.67323 3.13639L4.13477 8.70747C4.09194 8.75066 4.05799 8.80192 4.03486 8.85832C4.01174 8.91472 3.99989 8.97515 4 9.03616V15.5357C4 15.6589 4.04863 15.777 4.13518 15.864C4.22174 15.9511 4.33913 16 4.46154 16H8.15385C8.27625 16 8.39365 15.9511 8.4802 15.864C8.56676 15.777 8.61539 15.6589 8.61539 15.5357Z" fill="white"/>
</svg>
