<svg width="101" height="20" viewBox="0 0 101 20" fill="none" xmlns="http://www.w3.org/2000/svg">
    <path d="M32.3984 3.625H34.1484L37.4375 12.3984L40.7188 3.625H42.4688L38.125 15H36.7344L32.3984 3.625ZM31.6016 3.625H33.2656L33.5547 11.2188V15H31.6016V3.625ZM41.6016 3.625H43.2734V15H41.3125V11.2188L41.6016 3.625ZM45.0547 10.8672V10.6875C45.0547 10.0781 45.1432 9.51302 45.3203 8.99219C45.4974 8.46615 45.7526 8.01042 46.0859 7.625C46.4245 7.23438 46.8359 6.93229 47.3203 6.71875C47.8099 6.5 48.362 6.39062 48.9766 6.39062C49.5964 6.39062 50.1484 6.5 50.6328 6.71875C51.1224 6.93229 51.5365 7.23438 51.875 7.625C52.2135 8.01042 52.4714 8.46615 52.6484 8.99219C52.8255 9.51302 52.9141 10.0781 52.9141 10.6875V10.8672C52.9141 11.4766 52.8255 12.0417 52.6484 12.5625C52.4714 13.0833 52.2135 13.5391 51.875 13.9297C51.5365 14.3151 51.125 14.6172 50.6406 14.8359C50.1562 15.0495 49.6068 15.1562 48.9922 15.1562C48.3724 15.1562 47.8177 15.0495 47.3281 14.8359C46.8438 14.6172 46.4323 14.3151 46.0938 13.9297C45.7552 13.5391 45.4974 13.0833 45.3203 12.5625C45.1432 12.0417 45.0547 11.4766 45.0547 10.8672ZM46.9375 10.6875V10.8672C46.9375 11.2474 46.9766 11.6068 47.0547 11.9453C47.1328 12.2839 47.2552 12.5807 47.4219 12.8359C47.5885 13.0911 47.8021 13.2917 48.0625 13.4375C48.3229 13.5833 48.6328 13.6562 48.9922 13.6562C49.3411 13.6562 49.6432 13.5833 49.8984 13.4375C50.1589 13.2917 50.3724 13.0911 50.5391 12.8359C50.7057 12.5807 50.8281 12.2839 50.9062 11.9453C50.9896 11.6068 51.0312 11.2474 51.0312 10.8672V10.6875C51.0312 10.3125 50.9896 9.95833 50.9062 9.625C50.8281 9.28646 50.7031 8.98698 50.5312 8.72656C50.3646 8.46615 50.151 8.26302 49.8906 8.11719C49.6354 7.96615 49.3307 7.89062 48.9766 7.89062C48.6224 7.89062 48.3151 7.96615 48.0547 8.11719C47.7995 8.26302 47.5885 8.46615 47.4219 8.72656C47.2552 8.98698 47.1328 9.28646 47.0547 9.625C46.9766 9.95833 46.9375 10.3125 46.9375 10.6875ZM56.5312 6.54688V15H54.6484V6.54688H56.5312ZM52.8359 4.375C52.8359 4.11979 52.9245 3.90625 53.1016 3.73438C53.2786 3.55729 53.513 3.46875 53.8047 3.46875C54.1016 3.46875 54.3385 3.55729 54.5156 3.73438C54.6927 3.90625 54.7812 4.11979 54.7812 4.375C54.7812 4.625 54.6927 4.83854 54.5156 5.01562C54.3385 5.1875 54.1016 5.27344 53.8047 5.27344C53.513 5.27344 53.2786 5.1875 53.1016 5.01562C52.9245 4.83854 52.8359 4.625 52.8359 4.375ZM56.4531 4.38281C56.4531 4.1276 56.5417 3.91406 56.7188 3.74219C56.8958 3.5651 57.1328 3.47656 57.4297 3.47656C57.7214 3.47656 57.9557 3.5651 58.1328 3.74219C58.3151 3.91406 58.4062 4.1276 58.4062 4.38281C58.4062 4.63281 58.3151 4.84635 58.1328 5.02344C57.9557 5.19531 57.7214 5.28125 57.4297 5.28125C57.1328 5.28125 56.8958 5.19531 56.7188 5.02344C56.5417 4.84635 56.4531 4.63281 56.4531 4.38281ZM64.1953 6.54688H66.0781L65.9844 9.52344C65.9583 10.388 65.8594 11.1302 65.6875 11.75C65.5156 12.3698 65.2917 12.8932 65.0156 13.3203C64.7396 13.7422 64.4271 14.0885 64.0781 14.3594C63.7344 14.6302 63.3724 14.8438 62.9922 15H62.4375V13.5156L62.7031 13.5C62.9271 13.2604 63.1198 13.0208 63.2812 12.7812C63.4479 12.5365 63.5885 12.2682 63.7031 11.9766C63.8177 11.6797 63.9062 11.3333 63.9688 10.9375C64.0365 10.5417 64.0807 10.0703 64.1016 9.52344L64.1953 6.54688ZM64.6953 6.54688H70.0547V15H68.1797V8.14062H64.6953V6.54688ZM62.0078 13.5H71.2109V17.5156H69.3281V15H63.9141V17.5156H62L62.0078 13.5ZM74.3984 8.17188V18.25H72.5156V6.54688H74.25L74.3984 8.17188ZM79.9062 10.6953V10.8594C79.9062 11.474 79.8333 12.0443 79.6875 12.5703C79.5469 13.0911 79.3359 13.5469 79.0547 13.9375C78.7786 14.3229 78.4375 14.6224 78.0312 14.8359C77.625 15.0495 77.1562 15.1562 76.625 15.1562C76.099 15.1562 75.638 15.0599 75.2422 14.8672C74.8516 14.6693 74.5208 14.3906 74.25 14.0312C73.9792 13.6719 73.7604 13.25 73.5938 12.7656C73.4323 12.276 73.3177 11.7396 73.25 11.1562V10.5234C73.3177 9.90365 73.4323 9.34115 73.5938 8.83594C73.7604 8.33073 73.9792 7.89583 74.25 7.53125C74.5208 7.16667 74.8516 6.88542 75.2422 6.6875C75.6328 6.48958 76.0885 6.39062 76.6094 6.39062C77.1406 6.39062 77.612 6.49479 78.0234 6.70312C78.4349 6.90625 78.7812 7.19792 79.0625 7.57812C79.3438 7.95312 79.5547 8.40625 79.6953 8.9375C79.8359 9.46354 79.9062 10.0495 79.9062 10.6953ZM78.0234 10.8594V10.6953C78.0234 10.3047 77.987 9.94271 77.9141 9.60938C77.8411 9.27083 77.7266 8.97396 77.5703 8.71875C77.4141 8.46354 77.2135 8.26562 76.9688 8.125C76.7292 7.97917 76.4401 7.90625 76.1016 7.90625C75.7682 7.90625 75.4818 7.96354 75.2422 8.07812C75.0026 8.1875 74.8021 8.34115 74.6406 8.53906C74.4792 8.73698 74.3542 8.96875 74.2656 9.23438C74.1771 9.49479 74.1146 9.77865 74.0781 10.0859V11.6016C74.1406 11.9766 74.2474 12.3203 74.3984 12.6328C74.5495 12.9453 74.763 13.1953 75.0391 13.3828C75.3203 13.5651 75.6797 13.6562 76.1172 13.6562C76.4557 13.6562 76.7448 13.5833 76.9844 13.4375C77.224 13.2917 77.4193 13.0911 77.5703 12.8359C77.7266 12.5755 77.8411 12.276 77.9141 11.9375C77.987 11.599 78.0234 11.2396 78.0234 10.8594ZM83.8672 14.0781L86.1641 6.54688H88.1797L84.7891 16.2891C84.7109 16.4974 84.6094 16.724 84.4844 16.9688C84.3594 17.2135 84.1953 17.4453 83.9922 17.6641C83.7943 17.888 83.5469 18.0677 83.25 18.2031C82.9531 18.3438 82.5938 18.4141 82.1719 18.4141C82.0052 18.4141 81.8438 18.3984 81.6875 18.3672C81.5365 18.3411 81.3932 18.3125 81.2578 18.2812L81.25 16.8438C81.3021 16.849 81.3646 16.8542 81.4375 16.8594C81.5156 16.8646 81.5781 16.8672 81.625 16.8672C81.9375 16.8672 82.1979 16.8281 82.4062 16.75C82.6146 16.6771 82.7839 16.5573 82.9141 16.3906C83.0495 16.224 83.1641 16 83.2578 15.7188L83.8672 14.0781ZM82.5703 6.54688L84.5781 12.875L84.9141 14.8594L83.6094 15.1953L80.5391 6.54688H82.5703ZM92.7578 10.9609H91.1328V10.0078H92.4453C92.7786 10.0078 93.0443 9.96354 93.2422 9.875C93.4453 9.78646 93.5885 9.66406 93.6719 9.50781C93.7604 9.34635 93.8047 9.15885 93.8047 8.94531C93.8047 8.75781 93.7604 8.58073 93.6719 8.41406C93.5885 8.24219 93.4453 8.10156 93.2422 7.99219C93.0391 7.88281 92.763 7.82812 92.4141 7.82812C92.1276 7.82812 91.8698 7.875 91.6406 7.96875C91.4167 8.0625 91.2396 8.19271 91.1094 8.35938C90.9792 8.52604 90.9141 8.71875 90.9141 8.9375H89.0312C89.0312 8.41146 89.1797 7.95833 89.4766 7.57812C89.7786 7.19792 90.1823 6.90625 90.6875 6.70312C91.1927 6.5 91.7474 6.39844 92.3516 6.39844C92.8672 6.39844 93.3307 6.45312 93.7422 6.5625C94.1536 6.66667 94.5026 6.82292 94.7891 7.03125C95.0807 7.23438 95.3021 7.48958 95.4531 7.79688C95.6094 8.09896 95.6875 8.45052 95.6875 8.85156C95.6875 9.13802 95.6198 9.40885 95.4844 9.66406C95.349 9.91927 95.1536 10.1458 94.8984 10.3438C94.6432 10.5365 94.3333 10.6875 93.9688 10.7969C93.6094 10.9062 93.2057 10.9609 92.7578 10.9609ZM91.1328 10.4141H92.7578C93.2578 10.4141 93.7005 10.4635 94.0859 10.5625C94.4714 10.6562 94.7943 10.7969 95.0547 10.9844C95.3151 11.1719 95.5104 11.4036 95.6406 11.6797C95.776 11.9505 95.8438 12.263 95.8438 12.6172C95.8438 13.013 95.7578 13.3698 95.5859 13.6875C95.4193 14 95.1797 14.2656 94.8672 14.4844C94.5599 14.7031 94.1927 14.8698 93.7656 14.9844C93.3385 15.099 92.8672 15.1562 92.3516 15.1562C91.7891 15.1562 91.2422 15.0625 90.7109 14.875C90.1849 14.6875 89.75 14.3984 89.4062 14.0078C89.0677 13.612 88.8984 13.1094 88.8984 12.5H90.7812C90.7812 12.7135 90.8464 12.9141 90.9766 13.1016C91.1068 13.2891 91.2943 13.4427 91.5391 13.5625C91.7839 13.6771 92.0781 13.7344 92.4219 13.7344C92.776 13.7344 93.0651 13.6797 93.2891 13.5703C93.513 13.4557 93.6797 13.3073 93.7891 13.125C93.8984 12.9375 93.9531 12.7396 93.9531 12.5312C93.9531 12.25 93.8984 12.0234 93.7891 11.8516C93.6797 11.6797 93.513 11.5547 93.2891 11.4766C93.0651 11.3932 92.7839 11.3516 92.4453 11.3516H91.1328V10.4141ZM99.4609 6.54688V15H97.5703V6.54688H99.4609ZM97.4453 4.32812C97.4453 4.04167 97.5391 3.80469 97.7266 3.61719C97.9193 3.42448 98.1849 3.32812 98.5234 3.32812C98.8568 3.32812 99.1198 3.42448 99.3125 3.61719C99.5052 3.80469 99.6016 4.04167 99.6016 4.32812C99.6016 4.60938 99.5052 4.84375 99.3125 5.03125C99.1198 5.21875 98.8568 5.3125 98.5234 5.3125C98.1849 5.3125 97.9193 5.21875 97.7266 5.03125C97.5391 4.84375 97.4453 4.60938 97.4453 4.32812Z" fill="#757575"/>
    <path d="M10 0C4.48 0 0 4.48 0 10C0 15.52 4.48 20 10 20C15.52 20 20 15.52 20 10C20 4.48 15.52 0 10 0ZM13.61 6.34C14.68 6.34 15.54 7.2 15.54 8.27C15.54 9.34 14.68 10.2 13.61 10.2C12.54 10.2 11.68 9.34 11.68 8.27C11.67 7.2 12.54 6.34 13.61 6.34ZM7.61 4.76C8.91 4.76 9.97 5.82 9.97 7.12C9.97 8.42 8.91 9.48 7.61 9.48C6.31 9.48 5.25 8.42 5.25 7.12C5.25 5.81 6.3 4.76 7.61 4.76ZM7.61 13.89V17.64C5.21 16.89 3.31 15.04 2.47 12.68C3.52 11.56 6.14 10.99 7.61 10.99C8.14 10.99 8.81 11.07 9.51 11.21C7.87 12.08 7.61 13.23 7.61 13.89ZM10 18C9.73 18 9.47 17.99 9.21 17.96V13.89C9.21 12.47 12.15 11.76 13.61 11.76C14.68 11.76 16.53 12.15 17.45 12.91C16.28 15.88 13.39 18 10 18Z" fill="#B8BECA"/>
</svg>
