<svg width="30" height="30" viewBox="0 0 30 30" fill="none" xmlns="http://www.w3.org/2000/svg">
    <path d="M24.5455 9V6H21.8182V3H24.5455V0H27.2727V3H30V6H27.2727V9H24.5455ZM2.72727 30C1.97727 30 1.33545 29.7065 0.801818 29.1195C0.267273 28.5315 0 27.825 0 27V9C0 8.175 0.267273 7.469 0.801818 6.882C1.33545 6.294 1.97727 6 2.72727 6H7.02273L9.54545 3H17.7273V6H10.7386L8.25 9H2.72727V27H24.5455V13.5H27.2727V27C27.2727 27.825 27.0059 28.5315 26.4723 29.1195C25.9377 29.7065 25.2955 30 24.5455 30H2.72727ZM13.6364 24.75C15.3409 24.75 16.79 24.094 17.9836 22.782C19.1764 21.469 19.7727 19.875 19.7727 18C19.7727 16.125 19.1764 14.531 17.9836 13.218C16.79 11.906 15.3409 11.25 13.6364 11.25C11.9318 11.25 10.4827 11.906 9.28909 13.218C8.09636 14.531 7.5 16.125 7.5 18C7.5 19.875 8.09636 21.469 9.28909 22.782C10.4827 24.094 11.9318 24.75 13.6364 24.75ZM13.6364 21.75C12.6818 21.75 11.875 21.3875 11.2159 20.6625C10.5568 19.9375 10.2273 19.05 10.2273 18C10.2273 16.95 10.5568 16.0625 11.2159 15.3375C11.875 14.6125 12.6818 14.25 13.6364 14.25C14.5909 14.25 15.3977 14.6125 16.0568 15.3375C16.7159 16.0625 17.0455 16.95 17.0455 18C17.0455 19.05 16.7159 19.9375 16.0568 20.6625C15.3977 21.3875 14.5909 21.75 13.6364 21.75Z" fill="#359E4C"/>
</svg>
