<svg width="20" height="20" viewBox="0 0 20 20" fill="none" xmlns="http://www.w3.org/2000/svg">
    <path d="M13.84 10.691L13.773 10.711C13.6385 10.7506 13.4992 10.7715 13.359 10.773C12.749 10.773 12.405 10.361 12.589 9.852C12.725 9.48 13.08 9.166 13.514 9.021C14.186 8.776 14.656 8.217 14.656 7.566C14.656 6.689 13.803 5.979 12.751 5.979C11.699 5.979 10.847 6.689 10.847 7.566V12.434C10.847 13.604 10.168 14.631 9.153 15.212C8.57295 15.5425 7.91658 15.7155 7.249 15.714C5.265 15.714 3.651 14.243 3.651 12.434C3.651 11.858 3.815 11.317 4.102 10.847C4.546 10.117 5.286 9.56 6.172 9.306C6.32078 9.25864 6.47586 9.23403 6.632 9.233C7.244 9.233 7.59 9.647 7.405 10.157C7.279 10.504 6.939 10.802 6.544 10.96C6.49709 10.9757 6.45072 10.9931 6.405 11.012C5.777 11.272 5.344 11.81 5.344 12.434C5.344 13.311 6.197 14.021 7.249 14.021C8.301 14.021 9.153 13.311 9.153 12.434V7.566C9.153 6.396 9.832 5.369 10.847 4.788C11.4271 4.45755 12.0834 4.28449 12.751 4.286C14.735 4.286 16.349 5.757 16.349 7.566C16.349 8.142 16.185 8.683 15.898 9.153C15.456 9.879 14.72 10.435 13.84 10.691ZM0 10C0 15.523 4.477 20 10 20C15.523 20 20 15.523 20 10C20 4.477 15.523 0 10 0C4.477 0 0 4.477 0 10Z" fill="#B8BECA"/>
</svg>
