<svg width="94" height="20" viewBox="0 0 94 20" fill="none" xmlns="http://www.w3.org/2000/svg">
    <path d="M40.2422 3.625V15H38.2891V5.1875H33.2344V15H31.2812V3.625H40.2422ZM44.3047 8.17188V18.25H42.4219V6.54688H44.1562L44.3047 8.17188ZM49.8125 10.6953V10.8594C49.8125 11.474 49.7396 12.0443 49.5938 12.5703C49.4531 13.0911 49.2422 13.5469 48.9609 13.9375C48.6849 14.3229 48.3438 14.6224 47.9375 14.8359C47.5312 15.0495 47.0625 15.1562 46.5312 15.1562C46.0052 15.1562 45.5443 15.0599 45.1484 14.8672C44.7578 14.6693 44.4271 14.3906 44.1562 14.0312C43.8854 13.6719 43.6667 13.25 43.5 12.7656C43.3385 12.276 43.224 11.7396 43.1562 11.1562V10.5234C43.224 9.90365 43.3385 9.34115 43.5 8.83594C43.6667 8.33073 43.8854 7.89583 44.1562 7.53125C44.4271 7.16667 44.7578 6.88542 45.1484 6.6875C45.5391 6.48958 45.9948 6.39062 46.5156 6.39062C47.0469 6.39062 47.5182 6.49479 47.9297 6.70312C48.3411 6.90625 48.6875 7.19792 48.9688 7.57812C49.25 7.95312 49.4609 8.40625 49.6016 8.9375C49.7422 9.46354 49.8125 10.0495 49.8125 10.6953ZM47.9297 10.8594V10.6953C47.9297 10.3047 47.8932 9.94271 47.8203 9.60938C47.7474 9.27083 47.6328 8.97396 47.4766 8.71875C47.3203 8.46354 47.1198 8.26562 46.875 8.125C46.6354 7.97917 46.3464 7.90625 46.0078 7.90625C45.6745 7.90625 45.388 7.96354 45.1484 8.07812C44.9089 8.1875 44.7083 8.34115 44.5469 8.53906C44.3854 8.73698 44.2604 8.96875 44.1719 9.23438C44.0833 9.49479 44.0208 9.77865 43.9844 10.0859V11.6016C44.0469 11.9766 44.1536 12.3203 44.3047 12.6328C44.4557 12.9453 44.6693 13.1953 44.9453 13.3828C45.2266 13.5651 45.5859 13.6562 46.0234 13.6562C46.362 13.6562 46.651 13.5833 46.8906 13.4375C47.1302 13.2917 47.3255 13.0911 47.4766 12.8359C47.6328 12.5755 47.7474 12.276 47.8203 11.9375C47.8932 11.599 47.9297 11.2396 47.9297 10.8594ZM51.0547 10.8672V10.6875C51.0547 10.0781 51.1432 9.51302 51.3203 8.99219C51.4974 8.46615 51.7526 8.01042 52.0859 7.625C52.4245 7.23438 52.8359 6.93229 53.3203 6.71875C53.8099 6.5 54.362 6.39062 54.9766 6.39062C55.5964 6.39062 56.1484 6.5 56.6328 6.71875C57.1224 6.93229 57.5365 7.23438 57.875 7.625C58.2135 8.01042 58.4714 8.46615 58.6484 8.99219C58.8255 9.51302 58.9141 10.0781 58.9141 10.6875V10.8672C58.9141 11.4766 58.8255 12.0417 58.6484 12.5625C58.4714 13.0833 58.2135 13.5391 57.875 13.9297C57.5365 14.3151 57.125 14.6172 56.6406 14.8359C56.1562 15.0495 55.6068 15.1562 54.9922 15.1562C54.3724 15.1562 53.8177 15.0495 53.3281 14.8359C52.8438 14.6172 52.4323 14.3151 52.0938 13.9297C51.7552 13.5391 51.4974 13.0833 51.3203 12.5625C51.1432 12.0417 51.0547 11.4766 51.0547 10.8672ZM52.9375 10.6875V10.8672C52.9375 11.2474 52.9766 11.6068 53.0547 11.9453C53.1328 12.2839 53.2552 12.5807 53.4219 12.8359C53.5885 13.0911 53.8021 13.2917 54.0625 13.4375C54.3229 13.5833 54.6328 13.6562 54.9922 13.6562C55.3411 13.6562 55.6432 13.5833 55.8984 13.4375C56.1589 13.2917 56.3724 13.0911 56.5391 12.8359C56.7057 12.5807 56.8281 12.2839 56.9062 11.9453C56.9896 11.6068 57.0312 11.2474 57.0312 10.8672V10.6875C57.0312 10.3125 56.9896 9.95833 56.9062 9.625C56.8281 9.28646 56.7031 8.98698 56.5312 8.72656C56.3646 8.46615 56.151 8.26302 55.8906 8.11719C55.6354 7.96615 55.3307 7.89062 54.9766 7.89062C54.6224 7.89062 54.3151 7.96615 54.0547 8.11719C53.7995 8.26302 53.5885 8.46615 53.4219 8.72656C53.2552 8.98698 53.1328 9.28646 53.0547 9.625C52.9766 9.95833 52.9375 10.3125 52.9375 10.6875ZM64.8125 10.1875V11.4609H61.125V10.1875H64.8125ZM63.9766 13.6562C64.2839 13.6562 64.5599 13.5964 64.8047 13.4766C65.0547 13.3516 65.2552 13.1797 65.4062 12.9609C65.5625 12.7422 65.6484 12.4896 65.6641 12.2031H67.4375C67.4219 12.75 67.2578 13.2474 66.9453 13.6953C66.6328 14.1432 66.2188 14.5 65.7031 14.7656C65.1927 15.026 64.625 15.1562 64 15.1562C63.3542 15.1562 62.7891 15.0469 62.3047 14.8281C61.8255 14.6042 61.4271 14.2969 61.1094 13.9062C60.7917 13.5156 60.5547 13.0651 60.3984 12.5547C60.2422 12.0443 60.1641 11.4974 60.1641 10.9141V10.6406C60.1641 10.0573 60.2422 9.51042 60.3984 9C60.5547 8.48438 60.7917 8.03125 61.1094 7.64062C61.4323 7.25 61.8333 6.94531 62.3125 6.72656C62.7917 6.5026 63.3516 6.39062 63.9922 6.39062C64.6641 6.39062 65.2552 6.52604 65.7656 6.79688C66.2812 7.0625 66.6849 7.4349 66.9766 7.91406C67.2682 8.38802 67.4219 8.9401 67.4375 9.57031H65.6641C65.6484 9.25781 65.5703 8.97656 65.4297 8.72656C65.2943 8.47135 65.1016 8.26823 64.8516 8.11719C64.6068 7.96615 64.3125 7.89062 63.9688 7.89062C63.5885 7.89062 63.2708 7.96875 63.0156 8.125C62.7656 8.27604 62.5703 8.48438 62.4297 8.75C62.2891 9.01042 62.1901 9.30469 62.1328 9.63281C62.0755 9.95573 62.0469 10.2917 62.0469 10.6406V10.9141C62.0469 11.263 62.0755 11.6016 62.1328 11.9297C62.1901 12.2578 62.2891 12.5521 62.4297 12.8125C62.5755 13.0677 62.7734 13.2734 63.0234 13.4297C63.2734 13.5807 63.5911 13.6562 63.9766 13.6562ZM70.9766 6.54688V15H69.0938V6.54688H70.9766ZM76.4922 6.54688L72.6875 11.6328H70.5391L70.2891 9.92969H71.8594L74.1406 6.54688H76.4922ZM74.2891 15L71.7422 11.3125L73.2266 10.2422L76.7656 15H74.2891ZM81.7109 6.54688V15H79.8203V6.54688H81.7109ZM84.4844 6.54688V8.03125H77.0938V6.54688H84.4844ZM87.6875 12.25L91.0078 6.54688H92.8906V15H91.0078V9.28906L87.6875 15H85.8047V6.54688H87.6875V12.25Z" fill="#757575"/>
    <path d="M13.84 10.691L13.773 10.711C13.6385 10.7506 13.4992 10.7715 13.359 10.773C12.749 10.773 12.405 10.361 12.589 9.852C12.725 9.48 13.08 9.166 13.514 9.021C14.186 8.776 14.656 8.217 14.656 7.566C14.656 6.689 13.803 5.979 12.751 5.979C11.699 5.979 10.847 6.689 10.847 7.566V12.434C10.847 13.604 10.168 14.631 9.153 15.212C8.57295 15.5425 7.91658 15.7155 7.249 15.714C5.265 15.714 3.651 14.243 3.651 12.434C3.651 11.858 3.815 11.317 4.102 10.847C4.546 10.117 5.286 9.56 6.172 9.306C6.32078 9.25864 6.47586 9.23403 6.632 9.233C7.244 9.233 7.59 9.647 7.405 10.157C7.279 10.504 6.939 10.802 6.544 10.96C6.49709 10.9757 6.45072 10.9931 6.405 11.012C5.777 11.272 5.344 11.81 5.344 12.434C5.344 13.311 6.197 14.021 7.249 14.021C8.301 14.021 9.153 13.311 9.153 12.434V7.566C9.153 6.396 9.832 5.369 10.847 4.788C11.4271 4.45755 12.0834 4.28449 12.751 4.286C14.735 4.286 16.349 5.757 16.349 7.566C16.349 8.142 16.185 8.683 15.898 9.153C15.456 9.879 14.72 10.435 13.84 10.691ZM0 10C0 15.523 4.477 20 10 20C15.523 20 20 15.523 20 10C20 4.477 15.523 0 10 0C4.477 0 0 4.477 0 10Z" fill="#B8BECA"/>
</svg>
