<svg width="20" height="20" viewBox="0 0 20 20" fill="none" xmlns="http://www.w3.org/2000/svg">
    <circle cx="10" cy="10" r="10" fill="#B8BECA"/>
    <path d="M3.45249 7.9298L7.64942 7.29107L9.52556 3.30812C9.5768 3.19907 9.6611 3.11079 9.76524 3.05713C10.0264 2.92211 10.3438 3.03463 10.4744 3.30812L12.3505 7.29107L16.5474 7.9298C16.6631 7.94711 16.7689 8.00423 16.8499 8.09078C16.9479 8.19617 17.0018 8.33796 17 8.48499C16.9981 8.63202 16.9406 8.77227 16.84 8.87491L13.8035 11.9751L14.5209 16.3527C14.5377 16.4545 14.5269 16.5592 14.4898 16.655C14.4527 16.7508 14.3907 16.8337 14.3108 16.8944C14.231 16.9552 14.1365 16.9912 14.038 16.9986C13.9396 17.0059 13.8412 16.9843 13.7539 16.936L9.99997 14.8692L6.24604 16.936C6.14355 16.9931 6.02454 17.0122 5.91048 16.9914C5.62286 16.9395 5.42946 16.6539 5.47905 16.3527L6.19645 11.9751L3.15992 8.87491C3.07727 8.79009 3.02272 8.67931 3.00619 8.55814C2.96156 8.25522 3.16322 7.9748 3.45249 7.9298Z" fill="white"/>
</svg>
