<svg width="86" height="20" viewBox="0 0 86 20" fill="none" xmlns="http://www.w3.org/2000/svg">
    <path d="M40.6094 9V9.625C40.6094 10.4844 40.4974 11.2552 40.2734 11.9375C40.0495 12.6198 39.7292 13.2005 39.3125 13.6797C38.901 14.1589 38.4062 14.526 37.8281 14.7812C37.25 15.0312 36.6094 15.1562 35.9062 15.1562C35.2083 15.1562 34.5703 15.0312 33.9922 14.7812C33.4193 14.526 32.9219 14.1589 32.5 13.6797C32.0781 13.2005 31.75 12.6198 31.5156 11.9375C31.2865 11.2552 31.1719 10.4844 31.1719 9.625V9C31.1719 8.14062 31.2865 7.3724 31.5156 6.69531C31.7448 6.01302 32.0677 5.43229 32.4844 4.95312C32.9062 4.46875 33.4036 4.10156 33.9766 3.85156C34.5547 3.59635 35.1927 3.46875 35.8906 3.46875C36.5938 3.46875 37.2344 3.59635 37.8125 3.85156C38.3906 4.10156 38.888 4.46875 39.3047 4.95312C39.7214 5.43229 40.0417 6.01302 40.2656 6.69531C40.4948 7.3724 40.6094 8.14062 40.6094 9ZM38.6484 9.625V8.98438C38.6484 8.34896 38.5859 7.78906 38.4609 7.30469C38.3411 6.8151 38.1615 6.40625 37.9219 6.07812C37.6875 5.74479 37.3984 5.49479 37.0547 5.32812C36.7109 5.15625 36.3229 5.07031 35.8906 5.07031C35.4583 5.07031 35.0729 5.15625 34.7344 5.32812C34.3958 5.49479 34.1068 5.74479 33.8672 6.07812C33.6328 6.40625 33.4531 6.8151 33.3281 7.30469C33.2031 7.78906 33.1406 8.34896 33.1406 8.98438V9.625C33.1406 10.2604 33.2031 10.8229 33.3281 11.3125C33.4531 11.8021 33.6354 12.2161 33.875 12.5547C34.1198 12.888 34.4115 13.1406 34.75 13.3125C35.0885 13.4792 35.474 13.5625 35.9062 13.5625C36.3438 13.5625 36.7318 13.4792 37.0703 13.3125C37.4089 13.1406 37.6953 12.888 37.9297 12.5547C38.1641 12.2161 38.3411 11.8021 38.4609 11.3125C38.5859 10.8229 38.6484 10.2604 38.6484 9.625ZM47.6875 2.84375H49.2109C49.2109 3.30729 49.1458 3.6901 49.0156 3.99219C48.8906 4.28906 48.7031 4.53385 48.4531 4.72656C48.2083 4.91406 47.9036 5.0651 47.5391 5.17969C47.1797 5.29427 46.763 5.39844 46.2891 5.49219C45.8516 5.58594 45.4557 5.73438 45.1016 5.9375C44.7526 6.13542 44.4583 6.41406 44.2188 6.77344C43.9844 7.1276 43.8151 7.58333 43.7109 8.14062C43.6068 8.69792 43.5755 9.3776 43.6172 10.1797V10.7109L42.125 10.8438V10.3125C42.125 9.31771 42.2161 8.45052 42.3984 7.71094C42.5807 6.97135 42.8385 6.34896 43.1719 5.84375C43.5104 5.33333 43.9115 4.92708 44.375 4.625C44.8438 4.32292 45.3646 4.11458 45.9375 4C46.3281 3.91667 46.6536 3.83333 46.9141 3.75C47.1745 3.66146 47.3672 3.54948 47.4922 3.41406C47.6224 3.27344 47.6875 3.08333 47.6875 2.84375ZM46.3672 7.02344C46.9297 7.02344 47.4297 7.1224 47.8672 7.32031C48.3047 7.51302 48.6745 7.78385 48.9766 8.13281C49.2786 8.48177 49.5078 8.89323 49.6641 9.36719C49.8255 9.84115 49.9062 10.3568 49.9062 10.9141V11.0859C49.9062 11.6693 49.8203 12.2083 49.6484 12.7031C49.4766 13.1979 49.224 13.6302 48.8906 14C48.5573 14.3646 48.1484 14.651 47.6641 14.8594C47.1849 15.0625 46.6354 15.1641 46.0156 15.1641C45.401 15.1641 44.8516 15.0573 44.3672 14.8438C43.8828 14.6302 43.474 14.3333 43.1406 13.9531C42.8073 13.5677 42.5547 13.1172 42.3828 12.6016C42.2109 12.0859 42.125 11.5234 42.125 10.9141V10.7422C42.1198 10.6328 42.1484 10.526 42.2109 10.4219C42.2786 10.3177 42.3594 10.2057 42.4531 10.0859C42.5469 9.96615 42.6302 9.82812 42.7031 9.67188C42.9635 9.14583 43.2708 8.6849 43.625 8.28906C43.9792 7.89323 44.3828 7.58333 44.8359 7.35938C45.2943 7.13542 45.8047 7.02344 46.3672 7.02344ZM46 8.51562C45.5312 8.51562 45.1484 8.6276 44.8516 8.85156C44.5599 9.07031 44.3438 9.36198 44.2031 9.72656C44.0677 10.0911 44 10.487 44 10.9141V11.0859C44 11.4349 44.0391 11.7656 44.1172 12.0781C44.1953 12.3906 44.3125 12.6667 44.4688 12.9062C44.6302 13.1406 44.8385 13.3255 45.0938 13.4609C45.3542 13.5964 45.6615 13.6641 46.0156 13.6641C46.375 13.6641 46.6797 13.5964 46.9297 13.4609C47.1849 13.3255 47.3906 13.1406 47.5469 12.9062C47.7083 12.6667 47.8255 12.3906 47.8984 12.0781C47.9766 11.7656 48.0156 11.4349 48.0156 11.0859V10.9141C48.0156 10.5911 47.9766 10.2865 47.8984 10C47.8255 9.71354 47.7083 9.46094 47.5469 9.24219C47.3854 9.01823 47.1771 8.84115 46.9219 8.71094C46.6667 8.58073 46.3594 8.51562 46 8.51562ZM53.1328 8.17188V18.25H51.25V6.54688H52.9844L53.1328 8.17188ZM58.6406 10.6953V10.8594C58.6406 11.474 58.5677 12.0443 58.4219 12.5703C58.2812 13.0911 58.0703 13.5469 57.7891 13.9375C57.513 14.3229 57.1719 14.6224 56.7656 14.8359C56.3594 15.0495 55.8906 15.1562 55.3594 15.1562C54.8333 15.1562 54.3724 15.0599 53.9766 14.8672C53.5859 14.6693 53.2552 14.3906 52.9844 14.0312C52.7135 13.6719 52.4948 13.25 52.3281 12.7656C52.1667 12.276 52.0521 11.7396 51.9844 11.1562V10.5234C52.0521 9.90365 52.1667 9.34115 52.3281 8.83594C52.4948 8.33073 52.7135 7.89583 52.9844 7.53125C53.2552 7.16667 53.5859 6.88542 53.9766 6.6875C54.3672 6.48958 54.8229 6.39062 55.3438 6.39062C55.875 6.39062 56.3464 6.49479 56.7578 6.70312C57.1693 6.90625 57.5156 7.19792 57.7969 7.57812C58.0781 7.95312 58.2891 8.40625 58.4297 8.9375C58.5703 9.46354 58.6406 10.0495 58.6406 10.6953ZM56.7578 10.8594V10.6953C56.7578 10.3047 56.7214 9.94271 56.6484 9.60938C56.5755 9.27083 56.4609 8.97396 56.3047 8.71875C56.1484 8.46354 55.9479 8.26562 55.7031 8.125C55.4635 7.97917 55.1745 7.90625 54.8359 7.90625C54.5026 7.90625 54.2161 7.96354 53.9766 8.07812C53.737 8.1875 53.5365 8.34115 53.375 8.53906C53.2135 8.73698 53.0885 8.96875 53 9.23438C52.9115 9.49479 52.849 9.77865 52.8125 10.0859V11.6016C52.875 11.9766 52.9818 12.3203 53.1328 12.6328C53.2839 12.9453 53.4974 13.1953 53.7734 13.3828C54.0547 13.5651 54.4141 13.6562 54.8516 13.6562C55.1901 13.6562 55.4792 13.5833 55.7188 13.4375C55.9583 13.2917 56.1536 13.0911 56.3047 12.8359C56.4609 12.5755 56.5755 12.276 56.6484 11.9375C56.7214 11.599 56.7578 11.2396 56.7578 10.8594ZM65.0078 13.3047V9.27344C65.0078 8.97135 64.9531 8.71094 64.8438 8.49219C64.7344 8.27344 64.5677 8.10417 64.3438 7.98438C64.125 7.86458 63.849 7.80469 63.5156 7.80469C63.2083 7.80469 62.9427 7.85677 62.7188 7.96094C62.4948 8.0651 62.3203 8.20573 62.1953 8.38281C62.0703 8.5599 62.0078 8.76042 62.0078 8.98438H60.1328C60.1328 8.65104 60.2135 8.32812 60.375 8.01562C60.5365 7.70312 60.7708 7.42448 61.0781 7.17969C61.3854 6.9349 61.7526 6.74219 62.1797 6.60156C62.6068 6.46094 63.0859 6.39062 63.6172 6.39062C64.2526 6.39062 64.8151 6.4974 65.3047 6.71094C65.7995 6.92448 66.1875 7.2474 66.4688 7.67969C66.7552 8.10677 66.8984 8.64323 66.8984 9.28906V13.0469C66.8984 13.4323 66.9245 13.7786 66.9766 14.0859C67.0339 14.388 67.1146 14.651 67.2188 14.875V15H65.2891C65.2005 14.7969 65.1302 14.5391 65.0781 14.2266C65.0312 13.9089 65.0078 13.6016 65.0078 13.3047ZM65.2812 9.85938L65.2969 11.0234H63.9453C63.5964 11.0234 63.2891 11.0573 63.0234 11.125C62.7578 11.1875 62.5365 11.2812 62.3594 11.4062C62.1823 11.5312 62.0495 11.6823 61.9609 11.8594C61.8724 12.0365 61.8281 12.237 61.8281 12.4609C61.8281 12.6849 61.8802 12.8906 61.9844 13.0781C62.0885 13.2604 62.2396 13.4036 62.4375 13.5078C62.6406 13.612 62.8854 13.6641 63.1719 13.6641C63.5573 13.6641 63.8932 13.5859 64.1797 13.4297C64.4714 13.2682 64.7005 13.0729 64.8672 12.8438C65.0339 12.6094 65.1224 12.388 65.1328 12.1797L65.7422 13.0156C65.6797 13.2292 65.5729 13.4583 65.4219 13.7031C65.2708 13.9479 65.0729 14.1823 64.8281 14.4062C64.5885 14.625 64.2995 14.8047 63.9609 14.9453C63.6276 15.0859 63.2422 15.1562 62.8047 15.1562C62.2526 15.1562 61.7604 15.0469 61.3281 14.8281C60.8958 14.6042 60.5573 14.3047 60.3125 13.9297C60.0677 13.5495 59.9453 13.1198 59.9453 12.6406C59.9453 12.1927 60.0286 11.7969 60.1953 11.4531C60.3672 11.1042 60.6172 10.8125 60.9453 10.5781C61.2786 10.3438 61.6849 10.1667 62.1641 10.0469C62.6432 9.92188 63.1901 9.85938 63.8047 9.85938H65.2812ZM74.6406 10.0781V11.5625H70.2656V10.0781H74.6406ZM70.8125 6.54688V15H68.9297V6.54688H70.8125ZM76 6.54688V15H74.1172V6.54688H76ZM81.7344 15.1562C81.1094 15.1562 80.5443 15.0547 80.0391 14.8516C79.5391 14.6432 79.112 14.3542 78.7578 13.9844C78.4089 13.6146 78.1406 13.1797 77.9531 12.6797C77.7656 12.1797 77.6719 11.6406 77.6719 11.0625V10.75C77.6719 10.0885 77.7682 9.48958 77.9609 8.95312C78.1536 8.41667 78.4219 7.95833 78.7656 7.57812C79.1094 7.19271 79.5156 6.89844 79.9844 6.69531C80.4531 6.49219 80.9609 6.39062 81.5078 6.39062C82.112 6.39062 82.6406 6.49219 83.0938 6.69531C83.5469 6.89844 83.9219 7.1849 84.2188 7.55469C84.5208 7.91927 84.7448 8.35417 84.8906 8.85938C85.0417 9.36458 85.1172 9.92188 85.1172 10.5312V11.3359H78.5859V9.98438H83.2578V9.83594C83.2474 9.4974 83.1797 9.17969 83.0547 8.88281C82.9349 8.58594 82.75 8.34635 82.5 8.16406C82.25 7.98177 81.9167 7.89062 81.5 7.89062C81.1875 7.89062 80.9089 7.95833 80.6641 8.09375C80.4245 8.22396 80.224 8.41406 80.0625 8.66406C79.901 8.91406 79.776 9.21615 79.6875 9.57031C79.6042 9.91927 79.5625 10.3125 79.5625 10.75V11.0625C79.5625 11.4323 79.612 11.776 79.7109 12.0938C79.8151 12.4062 79.9661 12.6797 80.1641 12.9141C80.362 13.1484 80.6016 13.3333 80.8828 13.4688C81.1641 13.599 81.4844 13.6641 81.8438 13.6641C82.2969 13.6641 82.7005 13.5729 83.0547 13.3906C83.4089 13.2083 83.7161 12.9505 83.9766 12.6172L84.9688 13.5781C84.7865 13.8438 84.5495 14.099 84.2578 14.3438C83.9661 14.5833 83.6094 14.7786 83.1875 14.9297C82.7708 15.0807 82.2865 15.1562 81.7344 15.1562Z" fill="#757575"/>
    <circle cx="10" cy="10" r="10" fill="#B8BECA"/>
    <path d="M3.45249 7.9298L7.64942 7.29107L9.52556 3.30812C9.5768 3.19907 9.6611 3.11079 9.76524 3.05713C10.0264 2.92211 10.3438 3.03463 10.4744 3.30812L12.3505 7.29107L16.5474 7.9298C16.6631 7.94711 16.7689 8.00423 16.8499 8.09078C16.9479 8.19617 17.0018 8.33796 17 8.48499C16.9981 8.63202 16.9406 8.77227 16.84 8.87491L13.8035 11.9751L14.5209 16.3527C14.5377 16.4545 14.5269 16.5592 14.4898 16.655C14.4527 16.7508 14.3907 16.8337 14.3108 16.8944C14.231 16.9552 14.1365 16.9912 14.038 16.9986C13.9396 17.0059 13.8412 16.9843 13.7539 16.936L9.99997 14.8692L6.24604 16.936C6.14355 16.9931 6.02454 17.0122 5.91048 16.9914C5.62286 16.9395 5.42946 16.6539 5.47905 16.3527L6.19645 11.9751L3.15992 8.87491C3.07727 8.79009 3.02272 8.67931 3.00619 8.55814C2.96156 8.25522 3.16322 7.9748 3.45249 7.9298Z" fill="white"/>
</svg>
