<svg width="111" height="20" viewBox="0 0 111 20" fill="none" xmlns="http://www.w3.org/2000/svg">
    <path d="M35.6562 9.85938H32.7578L32.7422 8.42969H35.2734C35.7005 8.42969 36.0625 8.36719 36.3594 8.24219C36.6615 8.11198 36.8906 7.92708 37.0469 7.6875C37.2031 7.44271 37.2812 7.14844 37.2812 6.80469C37.2812 6.42448 37.2083 6.11458 37.0625 5.875C36.9167 5.63542 36.6927 5.46094 36.3906 5.35156C36.0938 5.24219 35.7135 5.1875 35.25 5.1875H33.3516V15H31.3906V3.625H35.25C35.875 3.625 36.4323 3.6849 36.9219 3.80469C37.4167 3.92448 37.8359 4.11198 38.1797 4.36719C38.5286 4.61719 38.7917 4.9349 38.9688 5.32031C39.151 5.70573 39.2422 6.16406 39.2422 6.69531C39.2422 7.16406 39.1302 7.59375 38.9062 7.98438C38.6823 8.36979 38.3516 8.6849 37.9141 8.92969C37.4766 9.17448 36.9323 9.32031 36.2812 9.36719L35.6562 9.85938ZM35.5703 15H32.1406L33.0234 13.4453H35.5703C36.013 13.4453 36.3828 13.3724 36.6797 13.2266C36.9766 13.0755 37.1979 12.8698 37.3438 12.6094C37.4948 12.3438 37.5703 12.0339 37.5703 11.6797C37.5703 11.3099 37.5052 10.9896 37.375 10.7188C37.2448 10.4427 37.0391 10.2318 36.7578 10.0859C36.4766 9.9349 36.1094 9.85938 35.6562 9.85938H33.4531L33.4688 8.42969H36.3359L36.7812 8.96875C37.4062 8.98958 37.9193 9.1276 38.3203 9.38281C38.7266 9.63802 39.0286 9.96875 39.2266 10.375C39.4245 10.7812 39.5234 11.2188 39.5234 11.6875C39.5234 12.4115 39.3646 13.0182 39.0469 13.5078C38.7344 13.9974 38.2839 14.3698 37.6953 14.625C37.1068 14.875 36.3984 15 35.5703 15ZM40.9531 10.8672V10.6875C40.9531 10.0781 41.0417 9.51302 41.2188 8.99219C41.3958 8.46615 41.651 8.01042 41.9844 7.625C42.3229 7.23438 42.7344 6.93229 43.2188 6.71875C43.7083 6.5 44.2604 6.39062 44.875 6.39062C45.4948 6.39062 46.0469 6.5 46.5312 6.71875C47.0208 6.93229 47.4349 7.23438 47.7734 7.625C48.112 8.01042 48.3698 8.46615 48.5469 8.99219C48.724 9.51302 48.8125 10.0781 48.8125 10.6875V10.8672C48.8125 11.4766 48.724 12.0417 48.5469 12.5625C48.3698 13.0833 48.112 13.5391 47.7734 13.9297C47.4349 14.3151 47.0234 14.6172 46.5391 14.8359C46.0547 15.0495 45.5052 15.1562 44.8906 15.1562C44.2708 15.1562 43.7161 15.0495 43.2266 14.8359C42.7422 14.6172 42.3307 14.3151 41.9922 13.9297C41.6536 13.5391 41.3958 13.0833 41.2188 12.5625C41.0417 12.0417 40.9531 11.4766 40.9531 10.8672ZM42.8359 10.6875V10.8672C42.8359 11.2474 42.875 11.6068 42.9531 11.9453C43.0312 12.2839 43.1536 12.5807 43.3203 12.8359C43.487 13.0911 43.7005 13.2917 43.9609 13.4375C44.2214 13.5833 44.5312 13.6562 44.8906 13.6562C45.2396 13.6562 45.5417 13.5833 45.7969 13.4375C46.0573 13.2917 46.2708 13.0911 46.4375 12.8359C46.6042 12.5807 46.7266 12.2839 46.8047 11.9453C46.888 11.6068 46.9297 11.2474 46.9297 10.8672V10.6875C46.9297 10.3125 46.888 9.95833 46.8047 9.625C46.7266 9.28646 46.6016 8.98698 46.4297 8.72656C46.263 8.46615 46.0495 8.26302 45.7891 8.11719C45.5339 7.96615 45.2292 7.89062 44.875 7.89062C44.5208 7.89062 44.2135 7.96615 43.9531 8.11719C43.6979 8.26302 43.487 8.46615 43.3203 8.72656C43.1536 8.98698 43.0312 9.28646 42.9531 9.625C42.875 9.95833 42.8359 10.3125 42.8359 10.6875ZM55.9453 6.54688V8.04688H51.8203V6.54688H55.9453ZM57.4219 6.54688V15H55.5391V6.54688H57.4219ZM51.3594 6.54688H53.2188L52.9922 10.7266C52.9609 11.3464 52.8984 11.8932 52.8047 12.3672C52.7161 12.8359 52.5964 13.2396 52.4453 13.5781C52.2943 13.9115 52.1094 14.1823 51.8906 14.3906C51.6719 14.599 51.4167 14.7526 51.125 14.8516C50.8333 14.9505 50.5052 15 50.1406 15H49.5547L49.5469 13.4531L49.8438 13.4297C50.0365 13.4141 50.2031 13.3646 50.3438 13.2812C50.4844 13.1927 50.6042 13.0677 50.7031 12.9062C50.8073 12.7448 50.8906 12.5365 50.9531 12.2812C51.0208 12.026 51.0729 11.724 51.1094 11.375C51.151 11.026 51.1823 10.6198 51.2031 10.1562L51.3594 6.54688ZM59.0625 10.8672V10.6875C59.0625 10.0781 59.151 9.51302 59.3281 8.99219C59.5052 8.46615 59.7604 8.01042 60.0938 7.625C60.4323 7.23438 60.8438 6.93229 61.3281 6.71875C61.8177 6.5 62.3698 6.39062 62.9844 6.39062C63.6042 6.39062 64.1562 6.5 64.6406 6.71875C65.1302 6.93229 65.5443 7.23438 65.8828 7.625C66.2214 8.01042 66.4792 8.46615 66.6562 8.99219C66.8333 9.51302 66.9219 10.0781 66.9219 10.6875V10.8672C66.9219 11.4766 66.8333 12.0417 66.6562 12.5625C66.4792 13.0833 66.2214 13.5391 65.8828 13.9297C65.5443 14.3151 65.1328 14.6172 64.6484 14.8359C64.1641 15.0495 63.6146 15.1562 63 15.1562C62.3802 15.1562 61.8255 15.0495 61.3359 14.8359C60.8516 14.6172 60.4401 14.3151 60.1016 13.9297C59.763 13.5391 59.5052 13.0833 59.3281 12.5625C59.151 12.0417 59.0625 11.4766 59.0625 10.8672ZM60.9453 10.6875V10.8672C60.9453 11.2474 60.9844 11.6068 61.0625 11.9453C61.1406 12.2839 61.263 12.5807 61.4297 12.8359C61.5964 13.0911 61.8099 13.2917 62.0703 13.4375C62.3307 13.5833 62.6406 13.6562 63 13.6562C63.349 13.6562 63.651 13.5833 63.9062 13.4375C64.1667 13.2917 64.3802 13.0911 64.5469 12.8359C64.7135 12.5807 64.8359 12.2839 64.9141 11.9453C64.9974 11.6068 65.0391 11.2474 65.0391 10.8672V10.6875C65.0391 10.3125 64.9974 9.95833 64.9141 9.625C64.8359 9.28646 64.7109 8.98698 64.5391 8.72656C64.3724 8.46615 64.1589 8.26302 63.8984 8.11719C63.6432 7.96615 63.3385 7.89062 62.9844 7.89062C62.6302 7.89062 62.3229 7.96615 62.0625 8.11719C61.8073 8.26302 61.5964 8.46615 61.4297 8.72656C61.263 8.98698 61.1406 9.28646 61.0625 9.625C60.9844 9.95833 60.9453 10.3125 60.9453 10.6875ZM74.2734 10.0781V11.5625H69.8984V10.0781H74.2734ZM70.4453 6.54688V15H68.5625V6.54688H70.4453ZM75.6328 6.54688V15H73.75V6.54688H75.6328ZM81.5625 6.54688V15H79.6719V6.54688H81.5625ZM84.3359 6.54688V8.03125H76.9453V6.54688H84.3359ZM88.7422 15.1562C88.1172 15.1562 87.5521 15.0547 87.0469 14.8516C86.5469 14.6432 86.1198 14.3542 85.7656 13.9844C85.4167 13.6146 85.1484 13.1797 84.9609 12.6797C84.7734 12.1797 84.6797 11.6406 84.6797 11.0625V10.75C84.6797 10.0885 84.776 9.48958 84.9688 8.95312C85.1615 8.41667 85.4297 7.95833 85.7734 7.57812C86.1172 7.19271 86.5234 6.89844 86.9922 6.69531C87.4609 6.49219 87.9688 6.39062 88.5156 6.39062C89.1198 6.39062 89.6484 6.49219 90.1016 6.69531C90.5547 6.89844 90.9297 7.1849 91.2266 7.55469C91.5286 7.91927 91.7526 8.35417 91.8984 8.85938C92.0495 9.36458 92.125 9.92188 92.125 10.5312V11.3359H85.5938V9.98438H90.2656V9.83594C90.2552 9.4974 90.1875 9.17969 90.0625 8.88281C89.9427 8.58594 89.7578 8.34635 89.5078 8.16406C89.2578 7.98177 88.9245 7.89062 88.5078 7.89062C88.1953 7.89062 87.9167 7.95833 87.6719 8.09375C87.4323 8.22396 87.2318 8.41406 87.0703 8.66406C86.9089 8.91406 86.7839 9.21615 86.6953 9.57031C86.612 9.91927 86.5703 10.3125 86.5703 10.75V11.0625C86.5703 11.4323 86.6198 11.776 86.7188 12.0938C86.8229 12.4062 86.974 12.6797 87.1719 12.9141C87.3698 13.1484 87.6094 13.3333 87.8906 13.4688C88.1719 13.599 88.4922 13.6641 88.8516 13.6641C89.3047 13.6641 89.7083 13.5729 90.0625 13.3906C90.4167 13.2083 90.724 12.9505 90.9844 12.6172L91.9766 13.5781C91.7943 13.8438 91.5573 14.099 91.2656 14.3438C90.974 14.5833 90.6172 14.7786 90.1953 14.9297C89.7786 15.0807 89.2943 15.1562 88.7422 15.1562ZM95.4844 8.17188V18.25H93.6016V6.54688H95.3359L95.4844 8.17188ZM100.992 10.6953V10.8594C100.992 11.474 100.919 12.0443 100.773 12.5703C100.633 13.0911 100.422 13.5469 100.141 13.9375C99.8646 14.3229 99.5234 14.6224 99.1172 14.8359C98.7109 15.0495 98.2422 15.1562 97.7109 15.1562C97.1849 15.1562 96.724 15.0599 96.3281 14.8672C95.9375 14.6693 95.6068 14.3906 95.3359 14.0312C95.0651 13.6719 94.8464 13.25 94.6797 12.7656C94.5182 12.276 94.4036 11.7396 94.3359 11.1562V10.5234C94.4036 9.90365 94.5182 9.34115 94.6797 8.83594C94.8464 8.33073 95.0651 7.89583 95.3359 7.53125C95.6068 7.16667 95.9375 6.88542 96.3281 6.6875C96.7188 6.48958 97.1745 6.39062 97.6953 6.39062C98.2266 6.39062 98.6979 6.49479 99.1094 6.70312C99.5208 6.90625 99.8672 7.19792 100.148 7.57812C100.43 7.95312 100.641 8.40625 100.781 8.9375C100.922 9.46354 100.992 10.0495 100.992 10.6953ZM99.1094 10.8594V10.6953C99.1094 10.3047 99.0729 9.94271 99 9.60938C98.9271 9.27083 98.8125 8.97396 98.6562 8.71875C98.5 8.46354 98.2995 8.26562 98.0547 8.125C97.8151 7.97917 97.526 7.90625 97.1875 7.90625C96.8542 7.90625 96.5677 7.96354 96.3281 8.07812C96.0885 8.1875 95.888 8.34115 95.7266 8.53906C95.5651 8.73698 95.4401 8.96875 95.3516 9.23438C95.263 9.49479 95.2005 9.77865 95.1641 10.0859V11.6016C95.2266 11.9766 95.3333 12.3203 95.4844 12.6328C95.6354 12.9453 95.849 13.1953 96.125 13.3828C96.4062 13.5651 96.7656 13.6562 97.2031 13.6562C97.5417 13.6562 97.8307 13.5833 98.0703 13.4375C98.3099 13.2917 98.5052 13.0911 98.6562 12.8359C98.8125 12.5755 98.9271 12.276 99 11.9375C99.0729 11.599 99.1094 11.2396 99.1094 10.8594ZM104.539 12.25L107.859 6.54688H109.742V15H107.859V9.28906L104.539 15H102.656V6.54688H104.539V12.25Z" fill="#757575"/>
    <path d="M10 0C4.47715 0 0 4.47715 0 10C0 15.5229 4.47715 20 10 20C15.5229 20 20 15.5229 20 10C20 4.47715 15.5229 0 10 0ZM9.97973 5.56042C10.9021 5.57255 11.6661 6.32343 11.92 7.28027C12.0167 7.67067 12.0277 8.06673 11.9301 8.48023C11.783 9.06238 11.4885 9.63103 10.9397 9.98037L11.7395 10.3603L13.6398 11.2804C13.8265 11.3604 13.9197 11.5204 13.9197 11.7604V13.5999C13.9197 13.9793 13.9498 14.3065 13.4796 14.4402H6.47987C6.02763 14.4337 6.0089 13.9757 6.0195 13.5999V11.7604C6.0195 11.5204 6.11965 11.3535 6.31965 11.2601L8.2795 10.3603L9.04002 10C8.69335 9.77333 8.41998 9.46028 8.21998 9.06028C7.97982 8.53222 7.8846 7.84672 8.05978 7.2201C8.28125 6.37073 8.97485 5.60763 9.97973 5.56042ZM6.71985 6.40008C7.0132 6.40008 7.27963 6.487 7.51962 6.66033C7.45307 6.84697 7.3967 7.04382 7.3499 7.2505C7.30325 7.45713 7.27962 7.6735 7.27962 7.90018C7.27962 8.23353 7.32622 8.5535 7.41955 8.86018C7.51287 9.16683 7.64638 9.44713 7.81977 9.70048C7.73975 9.80713 7.63332 9.90037 7.49997 9.98037L6.01947 10.6605C5.81947 10.7671 5.65948 10.9167 5.53948 11.1101C5.41948 11.3034 5.35965 11.5204 5.35965 11.7604V13.5999H3.90005C3.6883 13.5966 3.54528 13.3832 3.53973 13.1605V11.4204C3.53973 11.2204 3.6128 11.0868 3.75947 11.0201L5.97962 10C5.406 9.6474 5.12927 9.01008 5.10007 8.3004C5.11017 7.42603 5.68327 6.47272 6.71985 6.40008ZM13.2795 6.40008C14.201 6.41465 14.8667 7.32827 14.9 8.30042C14.8949 8.94367 14.6438 9.5648 14.0597 9.98038L16.2399 11.0202C16.3866 11.1002 16.4596 11.2337 16.4596 11.4204V13.1605C16.4574 13.367 16.346 13.5789 16.1 13.5999H14.5998V11.7604C14.5998 11.5204 14.54 11.3034 14.42 11.1101C14.3 10.9167 14.14 10.7671 13.94 10.6605C13.3183 10.3715 12.6042 10.1641 12.1397 9.68022C12.4864 9.14688 12.6596 8.55353 12.6596 7.90018C12.6596 7.48685 12.5865 7.07995 12.4399 6.67995C12.6807 6.52093 12.9658 6.40455 13.2795 6.40008Z" fill="#B8BECA"/>
</svg>
