<svg width="184" height="212" viewBox="0 0 184 212" fill="none" xmlns="http://www.w3.org/2000/svg">
    <g filter="url(#filter0_d_451_20998)">
        <rect x="2" y="1" width="180" height="208" rx="10" fill="white"/>
    </g>
    <path d="M130.042 159.96H151.268V156.676H130.042V159.96Z" fill="white" stroke="#263238" stroke-miterlimit="10"/>
    <path d="M149.878 156.737V159.722" stroke="#263238" stroke-miterlimit="10"/>
    <path d="M148.375 156.737V159.722" stroke="#263238" stroke-miterlimit="10"/>
    <path d="M146.876 156.737V159.722" stroke="#263238" stroke-miterlimit="10"/>
    <path d="M145.374 156.737V159.722" stroke="#263238" stroke-miterlimit="10"/>
    <path d="M143.871 158.697V159.722" stroke="#263238" stroke-miterlimit="10"/>
    <path d="M143.871 156.737V157.484" stroke="#263238" stroke-miterlimit="10"/>
    <path d="M142.372 156.737V159.722" stroke="#263238" stroke-miterlimit="10"/>
    <path d="M140.87 158.79V159.722" stroke="#263238" stroke-miterlimit="10"/>
    <path d="M140.87 156.737V158.32" stroke="#263238" stroke-miterlimit="10"/>
    <path d="M138.151 156.737V159.722" stroke="#263238" stroke-miterlimit="10"/>
    <path d="M134.867 158.79V159.722" stroke="#263238" stroke-miterlimit="10"/>
    <path d="M134.867 156.737V157.762" stroke="#263238" stroke-miterlimit="10"/>
    <path d="M133.74 156.737V159.722" stroke="#263238" stroke-miterlimit="10"/>
    <path d="M131.866 158.509V159.722" stroke="#263238" stroke-miterlimit="10"/>
    <path d="M131.866 156.737V157.762" stroke="#263238" stroke-miterlimit="10"/>
    <path d="M152.317 153.318H131.246V156.603H152.317V153.318Z" fill="white" stroke="#263238" stroke-miterlimit="10"/>
    <path d="M132.625 153.38V156.364" stroke="#263238" stroke-miterlimit="10"/>
    <path d="M134.116 153.38V156.364" stroke="#263238" stroke-miterlimit="10"/>
    <path d="M135.607 153.38V156.364" stroke="#263238" stroke-miterlimit="10"/>
    <path d="M137.094 153.38V156.364" stroke="#263238" stroke-miterlimit="10"/>
    <path d="M138.585 155.34V156.364" stroke="#263238" stroke-miterlimit="10"/>
    <path d="M138.585 153.38V154.127" stroke="#263238" stroke-miterlimit="10"/>
    <path d="M140.076 153.38V156.364" stroke="#263238" stroke-miterlimit="10"/>
    <path d="M141.567 155.432V156.364" stroke="#263238" stroke-miterlimit="10"/>
    <path d="M141.567 153.38V154.962" stroke="#263238" stroke-miterlimit="10"/>
    <path d="M144.266 153.38V156.364" stroke="#263238" stroke-miterlimit="10"/>
    <path d="M147.527 155.432V156.364" stroke="#263238" stroke-miterlimit="10"/>
    <path d="M147.527 153.38V154.404" stroke="#263238" stroke-miterlimit="10"/>
    <path d="M148.642 153.38V156.364" stroke="#263238" stroke-miterlimit="10"/>
    <path d="M150.505 155.151V156.364" stroke="#263238" stroke-miterlimit="10"/>
    <path d="M150.505 153.38V154.404" stroke="#263238" stroke-miterlimit="10"/>
    <path d="M129.101 153.153H150.327V149.868H129.101V153.153Z" fill="white" stroke="#263238" stroke-miterlimit="10"/>
    <path d="M148.94 149.926V152.914" stroke="#263238" stroke-miterlimit="10"/>
    <path d="M147.438 149.926V152.914" stroke="#263238" stroke-miterlimit="10"/>
    <path d="M145.935 149.926V152.914" stroke="#263238" stroke-miterlimit="10"/>
    <path d="M144.436 149.926V152.914" stroke="#263238" stroke-miterlimit="10"/>
    <path d="M142.934 151.886V152.914" stroke="#263238" stroke-miterlimit="10"/>
    <path d="M142.934 149.926V150.673" stroke="#263238" stroke-miterlimit="10"/>
    <path d="M141.435 149.926V152.914" stroke="#263238" stroke-miterlimit="10"/>
    <path d="M139.932 151.978V152.914" stroke="#263238" stroke-miterlimit="10"/>
    <path d="M139.932 149.926V151.509" stroke="#263238" stroke-miterlimit="10"/>
    <path d="M137.21 149.926V152.914" stroke="#263238" stroke-miterlimit="10"/>
    <path d="M133.93 151.978V152.914" stroke="#263238" stroke-miterlimit="10"/>
    <path d="M133.93 149.926V150.954" stroke="#263238" stroke-miterlimit="10"/>
    <path d="M132.803 149.926V152.914" stroke="#263238" stroke-miterlimit="10"/>
    <path d="M130.925 151.701V152.914" stroke="#263238" stroke-miterlimit="10"/>
    <path d="M130.925 149.926V150.954" stroke="#263238" stroke-miterlimit="10"/>
    <path d="M149.785 146.511H128.713V149.795H149.785V146.511Z" fill="white" stroke="#263238" stroke-miterlimit="10"/>
    <path d="M130.092 146.568V149.556" stroke="#263238" stroke-miterlimit="10"/>
    <path d="M131.583 146.568V149.556" stroke="#263238" stroke-miterlimit="10"/>
    <path d="M133.074 146.568V149.556" stroke="#263238" stroke-miterlimit="10"/>
    <path d="M134.561 146.568V149.556" stroke="#263238" stroke-miterlimit="10"/>
    <path d="M136.052 148.528V149.556" stroke="#263238" stroke-miterlimit="10"/>
    <path d="M136.052 146.568V147.315" stroke="#263238" stroke-miterlimit="10"/>
    <path d="M137.543 146.568V149.556" stroke="#263238" stroke-miterlimit="10"/>
    <path d="M139.034 148.621V149.556" stroke="#263238" stroke-miterlimit="10"/>
    <path d="M139.034 146.568V148.151" stroke="#263238" stroke-miterlimit="10"/>
    <path d="M141.733 146.568V149.556" stroke="#263238" stroke-miterlimit="10"/>
    <path d="M144.994 148.621V149.556" stroke="#263238" stroke-miterlimit="10"/>
    <path d="M144.994 146.568V147.596" stroke="#263238" stroke-miterlimit="10"/>
    <path d="M146.109 146.568V149.556" stroke="#263238" stroke-miterlimit="10"/>
    <path d="M147.972 148.344V149.556" stroke="#263238" stroke-miterlimit="10"/>
    <path d="M147.972 146.568V147.596" stroke="#263238" stroke-miterlimit="10"/>
    <path d="M129.387 146.345H150.613V143.061H129.387V146.345Z" fill="white" stroke="#263238" stroke-miterlimit="10"/>
    <path d="M149.219 143.118V146.102" stroke="#263238" stroke-miterlimit="10"/>
    <path d="M147.72 143.118V146.102" stroke="#263238" stroke-miterlimit="10"/>
    <path d="M146.218 143.118V146.102" stroke="#263238" stroke-miterlimit="10"/>
    <path d="M144.715 143.118V146.102" stroke="#263238" stroke-miterlimit="10"/>
    <path d="M143.217 145.078V146.103" stroke="#263238" stroke-miterlimit="10"/>
    <path d="M143.217 143.118V143.865" stroke="#263238" stroke-miterlimit="10"/>
    <path d="M141.714 143.118V146.102" stroke="#263238" stroke-miterlimit="10"/>
    <path d="M140.215 145.171V146.103" stroke="#263238" stroke-miterlimit="10"/>
    <path d="M140.215 143.118V144.701" stroke="#263238" stroke-miterlimit="10"/>
    <path d="M137.493 143.118V146.102" stroke="#263238" stroke-miterlimit="10"/>
    <path d="M134.209 145.171V146.103" stroke="#263238" stroke-miterlimit="10"/>
    <path d="M134.209 143.118V144.146" stroke="#263238" stroke-miterlimit="10"/>
    <path d="M133.086 143.118V146.102" stroke="#263238" stroke-miterlimit="10"/>
    <path d="M131.207 144.89V146.103" stroke="#263238" stroke-miterlimit="10"/>
    <path d="M131.207 143.118V144.146" stroke="#263238" stroke-miterlimit="10"/>
    <path d="M152.321 139.699H131.25V142.984H152.321V139.699Z" fill="white" stroke="#263238" stroke-miterlimit="10"/>
    <path d="M132.629 139.761V142.745" stroke="#263238" stroke-miterlimit="10"/>
    <path d="M134.12 139.761V142.745" stroke="#263238" stroke-miterlimit="10"/>
    <path d="M135.611 139.761V142.745" stroke="#263238" stroke-miterlimit="10"/>
    <path d="M137.102 139.761V142.745" stroke="#263238" stroke-miterlimit="10"/>
    <path d="M138.589 141.721V142.745" stroke="#263238" stroke-miterlimit="10"/>
    <path d="M138.589 139.761V140.508" stroke="#263238" stroke-miterlimit="10"/>
    <path d="M140.08 139.761V142.745" stroke="#263238" stroke-miterlimit="10"/>
    <path d="M141.571 141.813V142.745" stroke="#263238" stroke-miterlimit="10"/>
    <path d="M141.571 139.761V141.343" stroke="#263238" stroke-miterlimit="10"/>
    <path d="M144.27 139.761V142.745" stroke="#263238" stroke-miterlimit="10"/>
    <path d="M147.531 141.813V142.745" stroke="#263238" stroke-miterlimit="10"/>
    <path d="M147.531 139.761V140.785" stroke="#263238" stroke-miterlimit="10"/>
    <path d="M148.65 139.761V142.745" stroke="#263238" stroke-miterlimit="10"/>
    <path d="M150.513 141.532V142.745" stroke="#263238" stroke-miterlimit="10"/>
    <path d="M150.513 139.761V140.785" stroke="#263238" stroke-miterlimit="10"/>
    <path d="M131.165 139.534H152.391V136.249H131.165V139.534Z" fill="white" stroke="#263238" stroke-miterlimit="10"/>
    <path d="M151.001 136.311V139.295" stroke="#263238" stroke-miterlimit="10"/>
    <path d="M149.502 136.311V139.295" stroke="#263238" stroke-miterlimit="10"/>
    <path d="M147.999 136.311V139.295" stroke="#263238" stroke-miterlimit="10"/>
    <path d="M146.501 136.311V139.295" stroke="#263238" stroke-miterlimit="10"/>
    <path d="M144.998 138.267V139.295" stroke="#263238" stroke-miterlimit="10"/>
    <path d="M144.998 136.311V137.054" stroke="#263238" stroke-miterlimit="10"/>
    <path d="M143.499 136.311V139.295" stroke="#263238" stroke-miterlimit="10"/>
    <path d="M141.997 138.363V139.295" stroke="#263238" stroke-miterlimit="10"/>
    <path d="M141.997 136.311V137.89" stroke="#263238" stroke-miterlimit="10"/>
    <path d="M139.274 136.311V139.295" stroke="#263238" stroke-miterlimit="10"/>
    <path d="M135.994 138.363V139.295" stroke="#263238" stroke-miterlimit="10"/>
    <path d="M135.994 136.311V137.335" stroke="#263238" stroke-miterlimit="10"/>
    <path d="M134.867 136.311V139.295" stroke="#263238" stroke-miterlimit="10"/>
    <path d="M132.989 138.082V139.295" stroke="#263238" stroke-miterlimit="10"/>
    <path d="M132.989 136.311V137.335" stroke="#263238" stroke-miterlimit="10"/>
    <path d="M151.19 132.892H130.119V136.176H151.19V132.892Z" fill="white" stroke="#263238" stroke-miterlimit="10"/>
    <path d="M131.498 132.953V135.937" stroke="#263238" stroke-miterlimit="10"/>
    <path d="M132.989 132.953V135.937" stroke="#263238" stroke-miterlimit="10"/>
    <path d="M134.48 132.953V135.937" stroke="#263238" stroke-miterlimit="10"/>
    <path d="M135.971 132.953V135.937" stroke="#263238" stroke-miterlimit="10"/>
    <path d="M137.458 134.909V135.937" stroke="#263238" stroke-miterlimit="10"/>
    <path d="M137.458 132.953V133.696" stroke="#263238" stroke-miterlimit="10"/>
    <path d="M138.949 132.953V135.937" stroke="#263238" stroke-miterlimit="10"/>
    <path d="M140.44 135.006V135.937" stroke="#263238" stroke-miterlimit="10"/>
    <path d="M140.44 132.953V134.532" stroke="#263238" stroke-miterlimit="10"/>
    <path d="M143.139 132.953V135.937" stroke="#263238" stroke-miterlimit="10"/>
    <path d="M146.4 135.006V135.937" stroke="#263238" stroke-miterlimit="10"/>
    <path d="M146.4 132.953V133.977" stroke="#263238" stroke-miterlimit="10"/>
    <path d="M147.519 132.953V135.937" stroke="#263238" stroke-miterlimit="10"/>
    <path d="M149.382 134.724V135.937" stroke="#263238" stroke-miterlimit="10"/>
    <path d="M149.382 132.953V133.977" stroke="#263238" stroke-miterlimit="10"/>
    <path d="M130.042 132.726H151.268V129.442H130.042V132.726Z" fill="white" stroke="#263238" stroke-miterlimit="10"/>
    <path d="M149.878 129.499V132.484" stroke="#263238" stroke-miterlimit="10"/>
    <path d="M148.375 129.499V132.484" stroke="#263238" stroke-miterlimit="10"/>
    <path d="M146.876 129.499V132.484" stroke="#263238" stroke-miterlimit="10"/>
    <path d="M145.374 129.499V132.484" stroke="#263238" stroke-miterlimit="10"/>
    <path d="M143.871 131.459V132.484" stroke="#263238" stroke-miterlimit="10"/>
    <path d="M143.871 129.499V130.246" stroke="#263238" stroke-miterlimit="10"/>
    <path d="M142.372 129.499V132.484" stroke="#263238" stroke-miterlimit="10"/>
    <path d="M140.87 131.552V132.484" stroke="#263238" stroke-miterlimit="10"/>
    <path d="M140.87 129.499V131.082" stroke="#263238" stroke-miterlimit="10"/>
    <path d="M138.151 129.499V132.484" stroke="#263238" stroke-miterlimit="10"/>
    <path d="M134.867 131.552V132.484" stroke="#263238" stroke-miterlimit="10"/>
    <path d="M134.867 129.499V130.528" stroke="#263238" stroke-miterlimit="10"/>
    <path d="M133.74 129.499V132.484" stroke="#263238" stroke-miterlimit="10"/>
    <path d="M131.866 131.275V132.484" stroke="#263238" stroke-miterlimit="10"/>
    <path d="M131.866 129.499V130.528" stroke="#263238" stroke-miterlimit="10"/>
    <path d="M149.785 126.08H128.713V129.365H149.785V126.08Z" fill="white" stroke="#263238" stroke-miterlimit="10"/>
    <path d="M130.092 126.142V129.126" stroke="#263238" stroke-miterlimit="10"/>
    <path d="M131.583 126.142V129.126" stroke="#263238" stroke-miterlimit="10"/>
    <path d="M133.074 126.142V129.126" stroke="#263238" stroke-miterlimit="10"/>
    <path d="M134.561 126.142V129.126" stroke="#263238" stroke-miterlimit="10"/>
    <path d="M136.052 128.102V129.126" stroke="#263238" stroke-miterlimit="10"/>
    <path d="M136.052 126.142V126.889" stroke="#263238" stroke-miterlimit="10"/>
    <path d="M137.543 126.142V129.126" stroke="#263238" stroke-miterlimit="10"/>
    <path d="M139.034 128.194V129.126" stroke="#263238" stroke-miterlimit="10"/>
    <path d="M139.034 126.142V127.724" stroke="#263238" stroke-miterlimit="10"/>
    <path d="M141.733 126.142V129.126" stroke="#263238" stroke-miterlimit="10"/>
    <path d="M144.994 128.194V129.126" stroke="#263238" stroke-miterlimit="10"/>
    <path d="M144.994 126.142V127.17" stroke="#263238" stroke-miterlimit="10"/>
    <path d="M146.109 126.142V129.126" stroke="#263238" stroke-miterlimit="10"/>
    <path d="M147.972 127.913V129.126" stroke="#263238" stroke-miterlimit="10"/>
    <path d="M147.972 126.142V127.17" stroke="#263238" stroke-miterlimit="10"/>
    <path d="M130.042 125.884H151.268V122.599H130.042V125.884Z" fill="white" stroke="#263238" stroke-miterlimit="10"/>
    <path d="M149.878 122.657V125.641" stroke="#263238" stroke-miterlimit="10"/>
    <path d="M148.375 122.657V125.641" stroke="#263238" stroke-miterlimit="10"/>
    <path d="M146.876 122.657V125.641" stroke="#263238" stroke-miterlimit="10"/>
    <path d="M145.374 122.657V125.641" stroke="#263238" stroke-miterlimit="10"/>
    <path d="M143.871 124.617V125.641" stroke="#263238" stroke-miterlimit="10"/>
    <path d="M143.871 122.657V123.404" stroke="#263238" stroke-miterlimit="10"/>
    <path d="M142.372 122.657V125.641" stroke="#263238" stroke-miterlimit="10"/>
    <path d="M140.87 124.71V125.641" stroke="#263238" stroke-miterlimit="10"/>
    <path d="M140.87 122.657V124.24" stroke="#263238" stroke-miterlimit="10"/>
    <path d="M138.151 122.657V125.641" stroke="#263238" stroke-miterlimit="10"/>
    <path d="M134.867 124.71V125.641" stroke="#263238" stroke-miterlimit="10"/>
    <path d="M134.867 122.657V123.685" stroke="#263238" stroke-miterlimit="10"/>
    <path d="M133.74 122.657V125.641" stroke="#263238" stroke-miterlimit="10"/>
    <path d="M131.866 124.428V125.641" stroke="#263238" stroke-miterlimit="10"/>
    <path d="M131.866 122.657V123.685" stroke="#263238" stroke-miterlimit="10"/>
    <path d="M152.317 119.238H131.246V122.522H152.317V119.238Z" fill="white" stroke="#263238" stroke-miterlimit="10"/>
    <path d="M132.625 119.3V122.284" stroke="#263238" stroke-miterlimit="10"/>
    <path d="M134.116 119.3V122.284" stroke="#263238" stroke-miterlimit="10"/>
    <path d="M135.607 119.3V122.284" stroke="#263238" stroke-miterlimit="10"/>
    <path d="M137.094 119.3V122.284" stroke="#263238" stroke-miterlimit="10"/>
    <path d="M138.585 121.26V122.284" stroke="#263238" stroke-miterlimit="10"/>
    <path d="M138.585 119.3V120.047" stroke="#263238" stroke-miterlimit="10"/>
    <path d="M140.076 119.3V122.284" stroke="#263238" stroke-miterlimit="10"/>
    <path d="M141.567 121.352V122.284" stroke="#263238" stroke-miterlimit="10"/>
    <path d="M141.567 119.3V120.882" stroke="#263238" stroke-miterlimit="10"/>
    <path d="M144.266 119.3V122.284" stroke="#263238" stroke-miterlimit="10"/>
    <path d="M147.527 121.352V122.284" stroke="#263238" stroke-miterlimit="10"/>
    <path d="M147.527 119.3V120.324" stroke="#263238" stroke-miterlimit="10"/>
    <path d="M148.642 119.3V122.284" stroke="#263238" stroke-miterlimit="10"/>
    <path d="M150.505 121.071V122.284" stroke="#263238" stroke-miterlimit="10"/>
    <path d="M150.505 119.3V120.324" stroke="#263238" stroke-miterlimit="10"/>
    <path d="M137.353 156.676H116.127V159.96H137.353V156.676Z" fill="white" stroke="#263238" stroke-miterlimit="10"/>
    <path d="M117.517 156.737V159.722" stroke="#263238" stroke-miterlimit="10"/>
    <path d="M119.016 156.737V159.722" stroke="#263238" stroke-miterlimit="10"/>
    <path d="M120.519 156.737V159.722" stroke="#263238" stroke-miterlimit="10"/>
    <path d="M122.021 156.737V159.722" stroke="#263238" stroke-miterlimit="10"/>
    <path d="M123.52 158.697V159.722" stroke="#263238" stroke-miterlimit="10"/>
    <path d="M123.52 156.737V157.484" stroke="#263238" stroke-miterlimit="10"/>
    <path d="M125.023 156.737V159.722" stroke="#263238" stroke-miterlimit="10"/>
    <path d="M126.521 158.79V159.722" stroke="#263238" stroke-miterlimit="10"/>
    <path d="M126.521 156.737V158.32" stroke="#263238" stroke-miterlimit="10"/>
    <path d="M129.244 156.737V159.722" stroke="#263238" stroke-miterlimit="10"/>
    <path d="M132.528 158.79V159.722" stroke="#263238" stroke-miterlimit="10"/>
    <path d="M132.528 156.737V157.762" stroke="#263238" stroke-miterlimit="10"/>
    <path d="M133.651 156.737V159.722" stroke="#263238" stroke-miterlimit="10"/>
    <path d="M135.529 158.509V159.722" stroke="#263238" stroke-miterlimit="10"/>
    <path d="M135.529 156.737V157.762" stroke="#263238" stroke-miterlimit="10"/>
    <path d="M115.077 156.603H136.149V153.318H115.077V156.603Z" fill="white" stroke="#263238" stroke-miterlimit="10"/>
    <path d="M134.766 153.38V156.364" stroke="#263238" stroke-miterlimit="10"/>
    <path d="M133.279 153.38V156.364" stroke="#263238" stroke-miterlimit="10"/>
    <path d="M131.788 153.38V156.364" stroke="#263238" stroke-miterlimit="10"/>
    <path d="M130.297 153.38V156.364" stroke="#263238" stroke-miterlimit="10"/>
    <path d="M128.806 155.34V156.364" stroke="#263238" stroke-miterlimit="10"/>
    <path d="M128.806 153.38V154.127" stroke="#263238" stroke-miterlimit="10"/>
    <path d="M127.319 153.38V156.364" stroke="#263238" stroke-miterlimit="10"/>
    <path d="M125.828 155.432V156.364" stroke="#263238" stroke-miterlimit="10"/>
    <path d="M125.828 153.38V154.962" stroke="#263238" stroke-miterlimit="10"/>
    <path d="M123.125 153.38V156.364" stroke="#263238" stroke-miterlimit="10"/>
    <path d="M119.868 155.432V156.364" stroke="#263238" stroke-miterlimit="10"/>
    <path d="M119.868 153.38V154.404" stroke="#263238" stroke-miterlimit="10"/>
    <path d="M118.749 153.38V156.364" stroke="#263238" stroke-miterlimit="10"/>
    <path d="M116.886 155.151V156.364" stroke="#263238" stroke-miterlimit="10"/>
    <path d="M116.886 153.38V154.404" stroke="#263238" stroke-miterlimit="10"/>
    <path d="M138.29 149.868H117.064V153.153H138.29V149.868Z" fill="white" stroke="#263238" stroke-miterlimit="10"/>
    <path d="M118.454 149.926V152.914" stroke="#263238" stroke-miterlimit="10"/>
    <path d="M119.957 149.926V152.914" stroke="#263238" stroke-miterlimit="10"/>
    <path d="M121.456 149.926V152.914" stroke="#263238" stroke-miterlimit="10"/>
    <path d="M122.958 149.926V152.914" stroke="#263238" stroke-miterlimit="10"/>
    <path d="M124.457 151.886V152.914" stroke="#263238" stroke-miterlimit="10"/>
    <path d="M124.457 149.926V150.673" stroke="#263238" stroke-miterlimit="10"/>
    <path d="M125.96 149.926V152.914" stroke="#263238" stroke-miterlimit="10"/>
    <path d="M127.462 151.978V152.914" stroke="#263238" stroke-miterlimit="10"/>
    <path d="M127.462 149.926V151.509" stroke="#263238" stroke-miterlimit="10"/>
    <path d="M130.181 149.926V152.914" stroke="#263238" stroke-miterlimit="10"/>
    <path d="M133.465 151.978V152.914" stroke="#263238" stroke-miterlimit="10"/>
    <path d="M133.465 149.926V150.954" stroke="#263238" stroke-miterlimit="10"/>
    <path d="M134.592 149.926V152.914" stroke="#263238" stroke-miterlimit="10"/>
    <path d="M136.466 151.701V152.914" stroke="#263238" stroke-miterlimit="10"/>
    <path d="M136.466 149.926V150.954" stroke="#263238" stroke-miterlimit="10"/>
    <path d="M117.61 149.791H138.682V146.507H117.61V149.791Z" fill="white" stroke="#263238" stroke-miterlimit="10"/>
    <path d="M137.303 146.568V149.556" stroke="#263238" stroke-miterlimit="10"/>
    <path d="M135.812 146.568V149.556" stroke="#263238" stroke-miterlimit="10"/>
    <path d="M134.321 146.568V149.556" stroke="#263238" stroke-miterlimit="10"/>
    <path d="M132.83 146.568V149.556" stroke="#263238" stroke-miterlimit="10"/>
    <path d="M131.339 148.528V149.556" stroke="#263238" stroke-miterlimit="10"/>
    <path d="M131.339 146.568V147.315" stroke="#263238" stroke-miterlimit="10"/>
    <path d="M129.852 146.568V149.556" stroke="#263238" stroke-miterlimit="10"/>
    <path d="M128.361 148.621V149.556" stroke="#263238" stroke-miterlimit="10"/>
    <path d="M128.361 146.568V148.151" stroke="#263238" stroke-miterlimit="10"/>
    <path d="M125.658 146.568V149.556" stroke="#263238" stroke-miterlimit="10"/>
    <path d="M122.401 148.621V149.556" stroke="#263238" stroke-miterlimit="10"/>
    <path d="M122.401 146.568V147.596" stroke="#263238" stroke-miterlimit="10"/>
    <path d="M121.282 146.568V149.556" stroke="#263238" stroke-miterlimit="10"/>
    <path d="M119.419 148.344V149.556" stroke="#263238" stroke-miterlimit="10"/>
    <path d="M119.419 146.568V147.596" stroke="#263238" stroke-miterlimit="10"/>
    <path d="M138.008 143.057H116.781V146.341H138.008V143.057Z" fill="white" stroke="#263238" stroke-miterlimit="10"/>
    <path d="M118.172 143.118V146.102" stroke="#263238" stroke-miterlimit="10"/>
    <path d="M119.674 143.118V146.102" stroke="#263238" stroke-miterlimit="10"/>
    <path d="M121.173 143.118V146.102" stroke="#263238" stroke-miterlimit="10"/>
    <path d="M122.676 143.118V146.102" stroke="#263238" stroke-miterlimit="10"/>
    <path d="M124.178 145.078V146.103" stroke="#263238" stroke-miterlimit="10"/>
    <path d="M124.178 143.118V143.865" stroke="#263238" stroke-miterlimit="10"/>
    <path d="M125.677 143.118V146.102" stroke="#263238" stroke-miterlimit="10"/>
    <path d="M127.18 145.171V146.103" stroke="#263238" stroke-miterlimit="10"/>
    <path d="M127.18 143.118V144.701" stroke="#263238" stroke-miterlimit="10"/>
    <path d="M129.898 143.118V146.102" stroke="#263238" stroke-miterlimit="10"/>
    <path d="M133.182 145.171V146.103" stroke="#263238" stroke-miterlimit="10"/>
    <path d="M133.182 143.118V144.146" stroke="#263238" stroke-miterlimit="10"/>
    <path d="M134.309 143.118V146.102" stroke="#263238" stroke-miterlimit="10"/>
    <path d="M136.184 144.89V146.103" stroke="#263238" stroke-miterlimit="10"/>
    <path d="M136.184 143.118V144.146" stroke="#263238" stroke-miterlimit="10"/>
    <path d="M115.07 142.987H136.141V139.703H115.07V142.987Z" fill="white" stroke="#263238" stroke-miterlimit="10"/>
    <path d="M134.762 139.761V142.745" stroke="#263238" stroke-miterlimit="10"/>
    <path d="M133.271 139.761V142.745" stroke="#263238" stroke-miterlimit="10"/>
    <path d="M131.784 139.761V142.745" stroke="#263238" stroke-miterlimit="10"/>
    <path d="M130.293 139.761V142.745" stroke="#263238" stroke-miterlimit="10"/>
    <path d="M128.802 141.721V142.745" stroke="#263238" stroke-miterlimit="10"/>
    <path d="M128.802 139.761V140.508" stroke="#263238" stroke-miterlimit="10"/>
    <path d="M127.311 139.761V142.745" stroke="#263238" stroke-miterlimit="10"/>
    <path d="M125.82 141.813V142.745" stroke="#263238" stroke-miterlimit="10"/>
    <path d="M125.82 139.761V141.343" stroke="#263238" stroke-miterlimit="10"/>
    <path d="M123.121 139.761V142.745" stroke="#263238" stroke-miterlimit="10"/>
    <path d="M119.86 141.813V142.745" stroke="#263238" stroke-miterlimit="10"/>
    <path d="M119.86 139.761V140.785" stroke="#263238" stroke-miterlimit="10"/>
    <path d="M118.745 139.761V142.745" stroke="#263238" stroke-miterlimit="10"/>
    <path d="M116.882 141.532V142.745" stroke="#263238" stroke-miterlimit="10"/>
    <path d="M116.882 139.761V140.785" stroke="#263238" stroke-miterlimit="10"/>
    <path d="M136.226 136.249H115V139.534H136.226V136.249Z" fill="white" stroke="#263238" stroke-miterlimit="10"/>
    <path d="M116.39 136.311V139.295" stroke="#263238" stroke-miterlimit="10"/>
    <path d="M117.893 136.311V139.295" stroke="#263238" stroke-miterlimit="10"/>
    <path d="M119.392 136.311V139.295" stroke="#263238" stroke-miterlimit="10"/>
    <path d="M120.894 136.311V139.295" stroke="#263238" stroke-miterlimit="10"/>
    <path d="M122.393 138.267V139.295" stroke="#263238" stroke-miterlimit="10"/>
    <path d="M122.393 136.311V137.054" stroke="#263238" stroke-miterlimit="10"/>
    <path d="M123.896 136.311V139.295" stroke="#263238" stroke-miterlimit="10"/>
    <path d="M125.398 138.363V139.295" stroke="#263238" stroke-miterlimit="10"/>
    <path d="M125.398 136.311V137.89" stroke="#263238" stroke-miterlimit="10"/>
    <path d="M128.117 136.311V139.295" stroke="#263238" stroke-miterlimit="10"/>
    <path d="M131.401 138.363V139.295" stroke="#263238" stroke-miterlimit="10"/>
    <path d="M131.401 136.311V137.335" stroke="#263238" stroke-miterlimit="10"/>
    <path d="M132.528 136.311V139.295" stroke="#263238" stroke-miterlimit="10"/>
    <path d="M134.402 138.082V139.295" stroke="#263238" stroke-miterlimit="10"/>
    <path d="M134.402 136.311V137.335" stroke="#263238" stroke-miterlimit="10"/>
    <path d="M116.201 136.176H137.272V132.892H116.201V136.176Z" fill="white" stroke="#263238" stroke-miterlimit="10"/>
    <path d="M135.893 132.953V135.937" stroke="#263238" stroke-miterlimit="10"/>
    <path d="M134.402 132.953V135.937" stroke="#263238" stroke-miterlimit="10"/>
    <path d="M132.915 132.953V135.937" stroke="#263238" stroke-miterlimit="10"/>
    <path d="M131.424 132.953V135.937" stroke="#263238" stroke-miterlimit="10"/>
    <path d="M129.933 134.909V135.937" stroke="#263238" stroke-miterlimit="10"/>
    <path d="M129.933 132.953V133.696" stroke="#263238" stroke-miterlimit="10"/>
    <path d="M128.442 132.953V135.937" stroke="#263238" stroke-miterlimit="10"/>
    <path d="M126.955 135.006V135.937" stroke="#263238" stroke-miterlimit="10"/>
    <path d="M126.955 132.953V134.532" stroke="#263238" stroke-miterlimit="10"/>
    <path d="M124.252 132.953V135.937" stroke="#263238" stroke-miterlimit="10"/>
    <path d="M120.991 135.006V135.937" stroke="#263238" stroke-miterlimit="10"/>
    <path d="M120.991 132.953V133.977" stroke="#263238" stroke-miterlimit="10"/>
    <path d="M119.876 132.953V135.937" stroke="#263238" stroke-miterlimit="10"/>
    <path d="M118.013 134.724V135.937" stroke="#263238" stroke-miterlimit="10"/>
    <path d="M118.013 132.953V133.977" stroke="#263238" stroke-miterlimit="10"/>
    <path d="M137.353 129.438H116.127V132.722H137.353V129.438Z" fill="white" stroke="#263238" stroke-miterlimit="10"/>
    <path d="M117.517 129.499V132.483" stroke="#263238" stroke-miterlimit="10"/>
    <path d="M119.016 129.499V132.483" stroke="#263238" stroke-miterlimit="10"/>
    <path d="M120.519 129.499V132.483" stroke="#263238" stroke-miterlimit="10"/>
    <path d="M122.021 129.499V132.483" stroke="#263238" stroke-miterlimit="10"/>
    <path d="M123.52 131.459V132.484" stroke="#263238" stroke-miterlimit="10"/>
    <path d="M123.52 129.499V130.246" stroke="#263238" stroke-miterlimit="10"/>
    <path d="M125.023 129.499V132.483" stroke="#263238" stroke-miterlimit="10"/>
    <path d="M126.521 131.552V132.484" stroke="#263238" stroke-miterlimit="10"/>
    <path d="M126.521 129.499V131.082" stroke="#263238" stroke-miterlimit="10"/>
    <path d="M129.244 129.499V132.483" stroke="#263238" stroke-miterlimit="10"/>
    <path d="M132.528 131.552V132.484" stroke="#263238" stroke-miterlimit="10"/>
    <path d="M132.528 129.499V130.527" stroke="#263238" stroke-miterlimit="10"/>
    <path d="M133.651 129.499V132.483" stroke="#263238" stroke-miterlimit="10"/>
    <path d="M135.529 131.274V132.484" stroke="#263238" stroke-miterlimit="10"/>
    <path d="M135.529 129.499V130.527" stroke="#263238" stroke-miterlimit="10"/>
    <path d="M117.61 129.369H138.682V126.084H117.61V129.369Z" fill="white" stroke="#263238" stroke-miterlimit="10"/>
    <path d="M137.303 126.142V129.126" stroke="#263238" stroke-miterlimit="10"/>
    <path d="M135.812 126.142V129.126" stroke="#263238" stroke-miterlimit="10"/>
    <path d="M134.321 126.142V129.126" stroke="#263238" stroke-miterlimit="10"/>
    <path d="M132.83 126.142V129.126" stroke="#263238" stroke-miterlimit="10"/>
    <path d="M131.339 128.102V129.126" stroke="#263238" stroke-miterlimit="10"/>
    <path d="M131.339 126.142V126.889" stroke="#263238" stroke-miterlimit="10"/>
    <path d="M129.852 126.142V129.126" stroke="#263238" stroke-miterlimit="10"/>
    <path d="M128.361 128.194V129.126" stroke="#263238" stroke-miterlimit="10"/>
    <path d="M128.361 126.142V127.724" stroke="#263238" stroke-miterlimit="10"/>
    <path d="M125.658 126.142V129.126" stroke="#263238" stroke-miterlimit="10"/>
    <path d="M122.401 128.194V129.126" stroke="#263238" stroke-miterlimit="10"/>
    <path d="M122.401 126.142V127.17" stroke="#263238" stroke-miterlimit="10"/>
    <path d="M121.282 126.142V129.126" stroke="#263238" stroke-miterlimit="10"/>
    <path d="M119.419 127.913V129.126" stroke="#263238" stroke-miterlimit="10"/>
    <path d="M119.419 126.142V127.17" stroke="#263238" stroke-miterlimit="10"/>
    <path d="M137.353 122.596H116.127V125.88H137.353V122.596Z" fill="white" stroke="#263238" stroke-miterlimit="10"/>
    <path d="M117.517 122.657V125.641" stroke="#263238" stroke-miterlimit="10"/>
    <path d="M119.016 122.657V125.641" stroke="#263238" stroke-miterlimit="10"/>
    <path d="M120.519 122.657V125.641" stroke="#263238" stroke-miterlimit="10"/>
    <path d="M122.021 122.657V125.641" stroke="#263238" stroke-miterlimit="10"/>
    <path d="M123.52 124.617V125.641" stroke="#263238" stroke-miterlimit="10"/>
    <path d="M123.52 122.657V123.404" stroke="#263238" stroke-miterlimit="10"/>
    <path d="M125.023 122.657V125.641" stroke="#263238" stroke-miterlimit="10"/>
    <path d="M126.521 124.709V125.641" stroke="#263238" stroke-miterlimit="10"/>
    <path d="M126.521 122.657V124.24" stroke="#263238" stroke-miterlimit="10"/>
    <path d="M129.244 122.657V125.641" stroke="#263238" stroke-miterlimit="10"/>
    <path d="M132.528 124.709V125.641" stroke="#263238" stroke-miterlimit="10"/>
    <path d="M132.528 122.657V123.685" stroke="#263238" stroke-miterlimit="10"/>
    <path d="M133.651 122.657V125.641" stroke="#263238" stroke-miterlimit="10"/>
    <path d="M135.529 124.428V125.641" stroke="#263238" stroke-miterlimit="10"/>
    <path d="M135.529 122.657V123.685" stroke="#263238" stroke-miterlimit="10"/>
    <path d="M115.077 122.526H136.149V119.242H115.077V122.526Z" fill="white" stroke="#263238" stroke-miterlimit="10"/>
    <path d="M134.766 119.3V122.284" stroke="#263238" stroke-miterlimit="10"/>
    <path d="M133.279 119.3V122.284" stroke="#263238" stroke-miterlimit="10"/>
    <path d="M131.788 119.3V122.284" stroke="#263238" stroke-miterlimit="10"/>
    <path d="M130.297 119.3V122.284" stroke="#263238" stroke-miterlimit="10"/>
    <path d="M128.806 121.26V122.284" stroke="#263238" stroke-miterlimit="10"/>
    <path d="M128.806 119.3V120.047" stroke="#263238" stroke-miterlimit="10"/>
    <path d="M127.319 119.3V122.284" stroke="#263238" stroke-miterlimit="10"/>
    <path d="M125.828 121.352V122.284" stroke="#263238" stroke-miterlimit="10"/>
    <path d="M125.828 119.3V120.882" stroke="#263238" stroke-miterlimit="10"/>
    <path d="M123.125 119.3V122.284" stroke="#263238" stroke-miterlimit="10"/>
    <path d="M119.868 121.352V122.284" stroke="#263238" stroke-miterlimit="10"/>
    <path d="M119.868 119.3V120.324" stroke="#263238" stroke-miterlimit="10"/>
    <path d="M118.749 119.3V122.284" stroke="#263238" stroke-miterlimit="10"/>
    <path d="M116.886 121.071V122.284" stroke="#263238" stroke-miterlimit="10"/>
    <path d="M116.886 119.3V120.324" stroke="#263238" stroke-miterlimit="10"/>
    <path d="M138.29 115.788H117.064V119.072H138.29V115.788Z" fill="white" stroke="#263238" stroke-miterlimit="10"/>
    <path d="M118.454 115.85V118.834" stroke="#263238" stroke-miterlimit="10"/>
    <path d="M119.957 115.85V118.834" stroke="#263238" stroke-miterlimit="10"/>
    <path d="M121.456 115.85V118.834" stroke="#263238" stroke-miterlimit="10"/>
    <path d="M122.958 115.85V118.834" stroke="#263238" stroke-miterlimit="10"/>
    <path d="M124.457 117.806V118.834" stroke="#263238" stroke-miterlimit="10"/>
    <path d="M124.457 115.85V116.593" stroke="#263238" stroke-miterlimit="10"/>
    <path d="M125.96 115.85V118.834" stroke="#263238" stroke-miterlimit="10"/>
    <path d="M127.462 117.902V118.834" stroke="#263238" stroke-miterlimit="10"/>
    <path d="M127.462 115.85V117.428" stroke="#263238" stroke-miterlimit="10"/>
    <path d="M130.181 115.85V118.834" stroke="#263238" stroke-miterlimit="10"/>
    <path d="M133.465 117.902V118.834" stroke="#263238" stroke-miterlimit="10"/>
    <path d="M133.465 115.85V116.874" stroke="#263238" stroke-miterlimit="10"/>
    <path d="M134.592 115.85V118.834" stroke="#263238" stroke-miterlimit="10"/>
    <path d="M136.466 117.621V118.834" stroke="#263238" stroke-miterlimit="10"/>
    <path d="M136.466 115.85V116.874" stroke="#263238" stroke-miterlimit="10"/>
    <path d="M117.61 115.715H138.682V112.43H117.61V115.715Z" fill="white" stroke="#263238" stroke-miterlimit="10"/>
    <path d="M137.303 112.492V115.476" stroke="#263238" stroke-miterlimit="10"/>
    <path d="M135.812 112.492V115.476" stroke="#263238" stroke-miterlimit="10"/>
    <path d="M134.321 112.492V115.476" stroke="#263238" stroke-miterlimit="10"/>
    <path d="M132.83 112.492V115.476" stroke="#263238" stroke-miterlimit="10"/>
    <path d="M131.339 114.448V115.476" stroke="#263238" stroke-miterlimit="10"/>
    <path d="M131.339 112.492V113.235" stroke="#263238" stroke-miterlimit="10"/>
    <path d="M129.852 112.492V115.476" stroke="#263238" stroke-miterlimit="10"/>
    <path d="M128.361 114.544V115.476" stroke="#263238" stroke-miterlimit="10"/>
    <path d="M128.361 112.492V114.071" stroke="#263238" stroke-miterlimit="10"/>
    <path d="M125.658 112.492V115.476" stroke="#263238" stroke-miterlimit="10"/>
    <path d="M122.401 114.544V115.476" stroke="#263238" stroke-miterlimit="10"/>
    <path d="M122.401 112.492V113.516" stroke="#263238" stroke-miterlimit="10"/>
    <path d="M121.282 112.492V115.476" stroke="#263238" stroke-miterlimit="10"/>
    <path d="M119.419 114.263V115.476" stroke="#263238" stroke-miterlimit="10"/>
    <path d="M119.419 112.492V113.516" stroke="#263238" stroke-miterlimit="10"/>
    <path d="M138.008 108.977H116.781V112.261H138.008V108.977Z" fill="white" stroke="#263238" stroke-miterlimit="10"/>
    <path d="M118.172 109.038V112.022" stroke="#263238" stroke-miterlimit="10"/>
    <path d="M119.674 109.038V112.022" stroke="#263238" stroke-miterlimit="10"/>
    <path d="M121.173 109.038V112.022" stroke="#263238" stroke-miterlimit="10"/>
    <path d="M122.676 109.038V112.022" stroke="#263238" stroke-miterlimit="10"/>
    <path d="M124.178 110.998V112.022" stroke="#263238" stroke-miterlimit="10"/>
    <path d="M124.178 109.038V109.785" stroke="#263238" stroke-miterlimit="10"/>
    <path d="M125.677 109.038V112.022" stroke="#263238" stroke-miterlimit="10"/>
    <path d="M127.18 111.09V112.022" stroke="#263238" stroke-miterlimit="10"/>
    <path d="M127.18 109.038V110.621" stroke="#263238" stroke-miterlimit="10"/>
    <path d="M129.898 109.038V112.022" stroke="#263238" stroke-miterlimit="10"/>
    <path d="M133.182 111.09V112.022" stroke="#263238" stroke-miterlimit="10"/>
    <path d="M133.182 109.038V110.066" stroke="#263238" stroke-miterlimit="10"/>
    <path d="M134.309 109.038V112.022" stroke="#263238" stroke-miterlimit="10"/>
    <path d="M136.184 110.813V112.022" stroke="#263238" stroke-miterlimit="10"/>
    <path d="M136.184 109.038V110.066" stroke="#263238" stroke-miterlimit="10"/>
    <path d="M115.07 108.907H136.141V105.623H115.07V108.907Z" fill="white" stroke="#263238" stroke-miterlimit="10"/>
    <path d="M134.762 105.681V108.665" stroke="#263238" stroke-miterlimit="10"/>
    <path d="M133.271 105.681V108.665" stroke="#263238" stroke-miterlimit="10"/>
    <path d="M131.784 105.681V108.665" stroke="#263238" stroke-miterlimit="10"/>
    <path d="M130.293 105.681V108.665" stroke="#263238" stroke-miterlimit="10"/>
    <path d="M128.802 107.641V108.665" stroke="#263238" stroke-miterlimit="10"/>
    <path d="M128.802 105.681V106.428" stroke="#263238" stroke-miterlimit="10"/>
    <path d="M127.311 105.681V108.665" stroke="#263238" stroke-miterlimit="10"/>
    <path d="M125.82 107.733V108.665" stroke="#263238" stroke-miterlimit="10"/>
    <path d="M125.82 105.681V107.263" stroke="#263238" stroke-miterlimit="10"/>
    <path d="M123.121 105.681V108.665" stroke="#263238" stroke-miterlimit="10"/>
    <path d="M119.86 107.733V108.665" stroke="#263238" stroke-miterlimit="10"/>
    <path d="M119.86 105.681V106.709" stroke="#263238" stroke-miterlimit="10"/>
    <path d="M118.745 105.681V108.665" stroke="#263238" stroke-miterlimit="10"/>
    <path d="M116.882 107.452V108.665" stroke="#263238" stroke-miterlimit="10"/>
    <path d="M116.882 105.681V106.709" stroke="#263238" stroke-miterlimit="10"/>
    <path d="M136.226 102.169H115V105.453H136.226V102.169Z" fill="white" stroke="#263238" stroke-miterlimit="10"/>
    <path d="M116.39 102.231V105.215" stroke="#263238" stroke-miterlimit="10"/>
    <path d="M117.893 102.231V105.215" stroke="#263238" stroke-miterlimit="10"/>
    <path d="M119.392 102.231V105.215" stroke="#263238" stroke-miterlimit="10"/>
    <path d="M120.894 102.231V105.215" stroke="#263238" stroke-miterlimit="10"/>
    <path d="M122.393 104.19V105.215" stroke="#263238" stroke-miterlimit="10"/>
    <path d="M122.393 102.231V102.978" stroke="#263238" stroke-miterlimit="10"/>
    <path d="M123.896 102.231V105.215" stroke="#263238" stroke-miterlimit="10"/>
    <path d="M125.398 104.283V105.215" stroke="#263238" stroke-miterlimit="10"/>
    <path d="M125.398 102.231V103.813" stroke="#263238" stroke-miterlimit="10"/>
    <path d="M128.117 102.231V105.215" stroke="#263238" stroke-miterlimit="10"/>
    <path d="M131.401 104.283V105.215" stroke="#263238" stroke-miterlimit="10"/>
    <path d="M131.401 102.231V103.255" stroke="#263238" stroke-miterlimit="10"/>
    <path d="M132.528 102.231V105.215" stroke="#263238" stroke-miterlimit="10"/>
    <path d="M134.402 104.002V105.215" stroke="#263238" stroke-miterlimit="10"/>
    <path d="M134.402 102.231V103.255" stroke="#263238" stroke-miterlimit="10"/>
    <path d="M116.201 102.096H137.272V98.8114H116.201V102.096Z" fill="white" stroke="#263238" stroke-miterlimit="10"/>
    <path d="M135.893 98.873V101.857" stroke="#263238" stroke-miterlimit="10"/>
    <path d="M134.402 98.873V101.857" stroke="#263238" stroke-miterlimit="10"/>
    <path d="M132.915 98.873V101.857" stroke="#263238" stroke-miterlimit="10"/>
    <path d="M131.424 98.873V101.857" stroke="#263238" stroke-miterlimit="10"/>
    <path d="M129.933 100.829V101.857" stroke="#263238" stroke-miterlimit="10"/>
    <path d="M129.933 98.873V99.62" stroke="#263238" stroke-miterlimit="10"/>
    <path d="M128.442 98.873V101.857" stroke="#263238" stroke-miterlimit="10"/>
    <path d="M126.955 100.925V101.857" stroke="#263238" stroke-miterlimit="10"/>
    <path d="M126.955 98.873V100.456" stroke="#263238" stroke-miterlimit="10"/>
    <path d="M124.252 98.873V101.857" stroke="#263238" stroke-miterlimit="10"/>
    <path d="M120.991 100.925V101.857" stroke="#263238" stroke-miterlimit="10"/>
    <path d="M120.991 98.873V99.8972" stroke="#263238" stroke-miterlimit="10"/>
    <path d="M119.876 98.873V101.857" stroke="#263238" stroke-miterlimit="10"/>
    <path d="M118.013 100.644V101.857" stroke="#263238" stroke-miterlimit="10"/>
    <path d="M118.013 98.873V99.8972" stroke="#263238" stroke-miterlimit="10"/>
    <path d="M137.353 95.3615H116.127V98.6459H137.353V95.3615Z" fill="white" stroke="#263238" stroke-miterlimit="10"/>
    <path d="M117.517 95.4192V98.4071" stroke="#263238" stroke-miterlimit="10"/>
    <path d="M119.016 95.4192V98.4071" stroke="#263238" stroke-miterlimit="10"/>
    <path d="M120.519 95.4192V98.4071" stroke="#263238" stroke-miterlimit="10"/>
    <path d="M122.021 95.4192V98.4071" stroke="#263238" stroke-miterlimit="10"/>
    <path d="M123.52 97.3791V98.4072" stroke="#263238" stroke-miterlimit="10"/>
    <path d="M123.52 95.4192V96.1662" stroke="#263238" stroke-miterlimit="10"/>
    <path d="M125.023 95.4192V98.4071" stroke="#263238" stroke-miterlimit="10"/>
    <path d="M126.521 97.4715V98.4072" stroke="#263238" stroke-miterlimit="10"/>
    <path d="M126.521 95.4192V97.0017" stroke="#263238" stroke-miterlimit="10"/>
    <path d="M129.244 95.4192V98.4071" stroke="#263238" stroke-miterlimit="10"/>
    <path d="M132.528 97.4715V98.4072" stroke="#263238" stroke-miterlimit="10"/>
    <path d="M132.528 95.4192V96.4473" stroke="#263238" stroke-miterlimit="10"/>
    <path d="M133.651 95.4192V98.4071" stroke="#263238" stroke-miterlimit="10"/>
    <path d="M135.529 97.1943V98.4072" stroke="#263238" stroke-miterlimit="10"/>
    <path d="M135.529 95.4192V96.4473" stroke="#263238" stroke-miterlimit="10"/>
    <path d="M117.61 95.2844H138.682V92H117.61V95.2844Z" fill="white" stroke="#263238" stroke-miterlimit="10"/>
    <path d="M137.303 92.0616V95.0495" stroke="#263238" stroke-miterlimit="10"/>
    <path d="M135.812 92.0616V95.0495" stroke="#263238" stroke-miterlimit="10"/>
    <path d="M134.321 92.0616V95.0495" stroke="#263238" stroke-miterlimit="10"/>
    <path d="M132.83 92.0616V95.0495" stroke="#263238" stroke-miterlimit="10"/>
    <path d="M131.339 94.0215V95.0496" stroke="#263238" stroke-miterlimit="10"/>
    <path d="M131.339 92.0616V92.8086" stroke="#263238" stroke-miterlimit="10"/>
    <path d="M129.852 92.0616V95.0495" stroke="#263238" stroke-miterlimit="10"/>
    <path d="M128.361 94.1139V95.0496" stroke="#263238" stroke-miterlimit="10"/>
    <path d="M128.361 92.0616V93.6441" stroke="#263238" stroke-miterlimit="10"/>
    <path d="M125.658 92.0616V95.0495" stroke="#263238" stroke-miterlimit="10"/>
    <path d="M122.401 94.1139V95.0496" stroke="#263238" stroke-miterlimit="10"/>
    <path d="M122.401 92.0616V93.0897" stroke="#263238" stroke-miterlimit="10"/>
    <path d="M121.282 92.0616V95.0495" stroke="#263238" stroke-miterlimit="10"/>
    <path d="M119.419 93.8367V95.0496" stroke="#263238" stroke-miterlimit="10"/>
    <path d="M119.419 92.0616V93.0897" stroke="#263238" stroke-miterlimit="10"/>
    <path d="M54.0431 103.231C55.3983 96.3379 52.1118 89.8974 46.7024 88.8461C41.293 87.7948 35.8091 92.5309 34.4539 99.4244C33.0986 106.318 36.3852 112.758 41.7946 113.81C47.204 114.861 52.6879 110.125 54.0431 103.231Z" fill="#FF931E" stroke="#2C2C2C" stroke-miterlimit="10"/>
    <path d="M91.6628 89.3268C91.6628 89.3268 99.6135 77.1209 108.877 79.0961C115.046 80.413 111.421 92.0837 111.421 92.0837" fill="#FF931E"/>
    <path d="M91.6628 89.3268C91.6628 89.3268 99.6135 77.1209 108.877 79.0961C115.046 80.413 111.421 92.0837 111.421 92.0837" stroke="#2C2C2C" stroke-miterlimit="10"/>
    <path d="M109.35 93.2273C109.35 93.2273 109.369 93.2273 109.377 93.2311L109.946 93.0887C109.946 93.0887 113.489 82.3844 108.327 82.5192C103.97 82.6309 98.1071 92.6305 96.3876 95.7416C99.7452 93.4121 104.416 92.3725 109.353 93.2273H109.35Z" fill="#2C2C2C" stroke="#2C2C2C" stroke-miterlimit="10"/>
    <path d="M70.9787 145.343L68.8061 154.873C68.1284 157.838 65.4795 159.94 62.4239 159.94C59.3683 159.94 56.7155 157.838 56.0417 154.873L52.2155 138.1" fill="#2C2C2C"/>
    <path d="M70.9787 145.343L68.8061 154.873C68.1284 157.838 65.4795 159.94 62.4239 159.94C59.3683 159.94 56.7155 157.838 56.0417 154.873L52.2155 138.1" stroke="#2C2C2C" stroke-miterlimit="10"/>
    <path d="M104.187 145.343L102.007 154.907C101.337 157.853 98.7034 159.944 95.6672 159.944C92.6 159.944 89.9472 157.811 89.3082 154.827L87.1318 144.681" fill="#2C2C2C"/>
    <path d="M104.187 145.343L102.007 154.907C101.337 157.853 98.7034 159.944 95.6672 159.944C92.6 159.944 89.9472 157.811 89.3082 154.827L87.1318 144.681" stroke="#2C2C2C" stroke-miterlimit="10"/>
    <path d="M123.338 116.838C123.338 128.482 117.141 138.909 107.363 145.928C99.3851 151.658 89.0256 155.115 77.7018 155.115C52.4982 155.115 32.0658 137.977 32.0658 116.838C32.0658 95.6992 52.4982 78.5609 77.7018 78.5609C102.905 78.5609 123.338 95.6992 123.338 116.838Z" fill="#FF931E" stroke="#2C2C2C" stroke-miterlimit="10"/>
    <path d="M114.949 135.455C112.525 138.863 109.454 141.908 105.88 144.473C103.513 146.171 100.922 147.661 98.1573 148.908" stroke="#2C2C2C" stroke-miterlimit="10"/>
    <path d="M119.899 125.224C119.318 127.284 118.528 129.279 117.552 131.189L119.899 125.224Z" fill="white"/>
    <path d="M119.899 125.224C119.318 127.284 118.528 129.279 117.552 131.189" stroke="#2C2C2C" stroke-miterlimit="10"/>
    <path d="M41.1511 97.2741C42.5879 95.3912 44.2222 93.6277 46.0346 92.0028" stroke="#2C2C2C" stroke-miterlimit="10"/>
    <path d="M38.9785 133.206C36.0159 128.285 34.3506 122.725 34.3506 116.838C34.3506 110.951 36.0198 105.383 38.9863 100.458" stroke="#2C2C2C" stroke-miterlimit="10"/>
    <path d="M98.1574 148.908C92.0656 151.65 85.0986 153.202 77.7018 153.202C69.2399 153.202 61.3434 151.169 54.6708 147.653" stroke="#2C2C2C" stroke-miterlimit="10"/>
    <path d="M98.5989 95.7955C98.5989 98.0288 97.623 99.8423 96.4185 99.8423C95.3303 99.8423 94.428 98.3599 94.2653 96.4232" stroke="#2C2C2C" stroke-miterlimit="10"/>
    <path d="M109.861 94.8329C109.861 96.4886 109.136 97.8324 108.246 97.8324C107.44 97.8324 106.77 96.735 106.65 95.2988" stroke="#2C2C2C" stroke-miterlimit="10"/>
    <path d="M87.1046 81.6182C86.1984 81.9339 85.4704 82.2419 84.9011 82.523C84.4635 82.7386 84.111 82.935 83.84 83.1044C83.2629 83.0351 82.682 82.9774 82.0972 82.9312C80.6527 82.8041 79.185 82.7425 77.7017 82.7425C71.0368 82.7425 64.7165 84.0016 59.0391 86.2579C58.0516 86.6507 57.0796 87.0781 56.1307 87.5286C57.947 85.6342 59.9763 84.2596 61.599 83.3432C66.5909 81.6759 72.0204 80.7634 77.6978 80.7634C80.9238 80.7634 84.0684 81.0598 87.1008 81.622L87.1046 81.6182Z" fill="white" stroke="#2C2C2C" stroke-miterlimit="10"/>
    <path d="M84.9011 82.523L82.0972 82.9273C80.6527 82.8002 79.1849 82.7386 77.7017 82.7386C71.0368 82.7386 64.7165 83.9977 59.0391 86.2541C59.9415 85.5957 60.8167 85.0412 61.6029 84.6023C66.5948 82.9389 72.0243 82.0225 77.7017 82.0225C80.1492 82.0225 82.5542 82.1957 84.9011 82.523Z" fill="#2C2C2C" stroke="#2C2C2C" stroke-miterlimit="10"/>
    <path d="M108.989 123.292C111.654 123.292 113.815 118.237 113.815 112.002C113.815 105.767 111.654 100.713 108.989 100.713C106.324 100.713 104.164 105.767 104.164 112.002C104.164 118.237 106.324 123.292 108.989 123.292Z" fill="#2C2C2C" stroke="#2C2C2C" stroke-miterlimit="10"/>
    <path d="M112.312 119.726C118.583 119.726 123.667 114.672 123.667 108.437C123.667 102.202 118.583 97.147 112.312 97.147C106.041 97.147 100.957 102.202 100.957 108.437C100.957 114.672 106.041 119.726 112.312 119.726Z" fill="#FF931E" stroke="#2C2C2C" stroke-miterlimit="10"/>
    <path d="M115.422 119.726C121.693 119.726 126.777 114.672 126.777 108.437C126.777 102.202 121.693 97.147 115.422 97.147C109.151 97.147 104.067 102.202 104.067 108.437C104.067 114.672 109.151 119.726 115.422 119.726Z" fill="#FF931E" stroke="#2C2C2C" stroke-miterlimit="10"/>
    <path d="M112.142 112.526C113.461 112.526 114.531 110.771 114.531 108.606C114.531 106.441 113.461 104.686 112.142 104.686C110.822 104.686 109.752 106.441 109.752 108.606C109.752 110.771 110.822 112.526 112.142 112.526Z" fill="#2C2C2C" stroke="#2C2C2C" stroke-miterlimit="10"/>
    <path d="M120.7 111.917C122.02 111.917 123.09 110.162 123.09 107.998C123.09 105.833 122.02 104.078 120.7 104.078C119.381 104.078 118.311 105.833 118.311 107.998C118.311 110.162 119.381 111.917 120.7 111.917Z" fill="#2C2C2C" stroke="#2C2C2C" stroke-miterlimit="10"/>
    <path d="M59.9647 145.343L57.7921 154.873C57.1144 157.838 54.4655 159.94 51.4099 159.94C48.3544 159.94 45.7016 157.838 45.0277 154.873L41.2015 138.1" fill="#FF931E"/>
    <path d="M59.9647 145.343L57.7921 154.873C57.1144 157.838 54.4655 159.94 51.4099 159.94C48.3544 159.94 45.7016 157.838 45.0277 154.873L41.2015 138.1" stroke="#2C2C2C" stroke-miterlimit="10"/>
    <path d="M92.4955 145.343L90.3151 154.907C89.6452 157.853 87.0117 159.944 83.9755 159.944C80.9083 159.944 78.2555 157.811 77.6165 154.827L75.4401 144.681" fill="#FF931E"/>
    <path d="M92.4955 145.343L90.3151 154.907C89.6452 157.853 87.0117 159.944 83.9755 159.944C80.9083 159.944 78.2555 157.811 77.6165 154.827L75.4401 144.681" stroke="#2C2C2C" stroke-miterlimit="10"/>
    <path d="M73.4805 95.5683C73.4805 95.5683 74.6307 81.4064 84.3938 77.4097C90.896 74.749 93.5488 85.9191 93.5488 85.9191" fill="#FF931E"/>
    <path d="M73.4805 95.5683C73.4805 95.5683 74.6307 81.4064 84.3938 77.4097C90.896 74.749 93.5488 85.9191 93.5488 85.9191" stroke="#2C2C2C" stroke-miterlimit="10"/>
    <path d="M92.1895 88.033C92.1895 88.033 92.2089 88.0253 92.2166 88.0214L92.6775 87.5709C92.6775 87.5709 90.4545 77.1979 85.6562 80.3783C81.6054 83.0621 81.2762 94.2746 81.2723 97.7014C83.2281 93.9011 87.0891 90.3163 92.1895 88.033Z" fill="#2C2C2C" stroke="#2C2C2C" stroke-miterlimit="10"/>
    <path d="M72.4801 81.9272C77.3132 81.9272 81.2311 78.0317 81.2311 73.2265C81.2311 68.4212 77.3132 64.5258 72.4801 64.5258C67.647 64.5258 63.7291 68.4212 63.7291 73.2265C63.7291 78.0317 67.647 81.9272 72.4801 81.9272Z" fill="white" stroke="#263238" stroke-linejoin="round"/>
    <path d="M71.4501 81.927C76.2831 81.927 80.2011 78.0316 80.2011 73.2263C80.2011 68.421 76.2831 64.5256 71.4501 64.5256C66.617 64.5256 62.699 68.421 62.699 73.2263C62.699 78.0316 66.617 81.927 71.4501 81.927Z" fill="white" stroke="#263238" stroke-linejoin="round"/>
    <path d="M71.4501 80.2192C75.3345 80.2192 78.4835 77.0884 78.4835 73.2262C78.4835 69.3641 75.3345 66.2332 71.4501 66.2332C67.5656 66.2332 64.4166 69.3641 64.4166 73.2262C64.4166 77.0884 67.5656 80.2192 71.4501 80.2192Z" fill="white" stroke="#263238" stroke-linejoin="round"/>
    <path d="M65.0243 73.2262C65.0243 69.4642 68.0117 66.3986 71.7539 66.2396C71.6516 66.2364 71.5524 66.2332 71.4501 66.2332C67.5639 66.2332 64.4166 69.3656 64.4166 73.2262C64.4166 77.0868 67.5671 80.2192 71.4501 80.2192C71.5524 80.2192 71.6516 80.216 71.7539 80.2129C68.0085 80.0539 65.0243 76.9883 65.0243 73.2262Z" fill="white" stroke="#263238" stroke-linejoin="round"/>
    <path d="M77.9719 66.5163H77.3034" stroke="#263238" stroke-linejoin="round"/>
    <path d="M78.8225 67.3019H78.3364" stroke="#263238" stroke-linejoin="round"/>
    <path d="M79.9165 68.5101H79.3696" stroke="#263238" stroke-linejoin="round"/>
    <path d="M80.5243 70.0208H79.795" stroke="#263238" stroke-linejoin="round"/>
    <path d="M81.071 71.6523H80.4025" stroke="#263238" stroke-linejoin="round"/>
    <path d="M81.0711 75.0963H80.3419" stroke="#263238" stroke-linejoin="round"/>
    <path d="M78.2148 79.2048H78.8225" stroke="#263238" stroke-linejoin="round"/>
    <path d="M77.1818 79.9904H77.8503" stroke="#263238" stroke-linejoin="round"/>
    <path d="M76.088 80.8365H76.7564" stroke="#263238" stroke-linejoin="round"/>
    <path d="M76.8172 65.6735H75.7841" stroke="#263238" stroke-linejoin="round"/>
    <path d="M71.092 70.8444C71.092 70.218 71.3446 69.9795 71.786 69.9795C72.2274 69.9795 72.4801 70.218 72.4801 70.8444V71.207H73.7915V70.9303C73.7915 69.7378 73.2861 68.9873 72.3042 68.7869V68.135H71.1687V68.7869C70.1964 69 69.707 69.7537 69.707 70.9303C69.707 73.4394 72.4193 73.5253 72.4193 75.3315C72.4193 75.958 72.1411 76.1838 71.6997 76.1838C71.2583 76.1838 70.98 75.958 70.98 75.3315V74.6415H69.6686V75.2425C69.6686 76.435 70.174 77.1983 71.1687 77.3986V78.0378H72.3042V77.3986C73.2893 77.1983 73.8043 76.4319 73.8043 75.2425C73.8043 72.7334 71.092 72.6476 71.092 70.8413V70.8444Z" fill="#263238"/>
    <path d="M94.8905 59.0087C97.4086 54.9072 96.1057 49.5526 91.9804 47.049C87.8551 44.5455 82.4697 45.8408 79.9516 49.9424C77.4335 54.0439 78.7364 59.3985 82.8617 61.9021C86.9869 64.4056 92.3724 63.1102 94.8905 59.0087Z" fill="white" stroke="#263238" stroke-linejoin="round"/>
    <path d="M89.7729 62.5017C94.2316 60.6473 96.3341 55.5504 94.469 51.1173C92.6039 46.6843 87.4775 44.5939 83.0188 46.4482C78.5601 48.3026 76.4576 53.3996 78.3227 57.8327C80.1878 62.2657 85.3143 64.3561 89.7729 62.5017Z" fill="white" stroke="#263238" stroke-linejoin="round"/>
    <path d="M92.9138 57.1229C94.3809 53.5468 92.6544 49.4653 89.0577 48.0067C85.4609 46.548 81.3558 48.2646 79.8888 51.8406C78.4217 55.4167 80.1481 59.4982 83.7449 60.9568C87.3417 62.4155 91.4467 60.699 92.9138 57.1229Z" fill="white" stroke="#263238" stroke-linejoin="round"/>
    <path d="M79.9678 54.4768C79.9678 50.7148 82.9551 47.6492 86.6973 47.4902C86.595 47.487 86.4958 47.4838 86.3935 47.4838C82.5073 47.4838 79.36 50.6162 79.36 54.4768C79.36 58.3375 82.5105 61.4698 86.3935 61.4698C86.4958 61.4698 86.595 61.4667 86.6973 61.4635C82.9519 61.3045 79.9678 58.2389 79.9678 54.4768Z" fill="white" stroke="#263238" stroke-linejoin="round"/>
    <path d="M92.9183 47.767H92.2498" stroke="#263238" stroke-linejoin="round"/>
    <path d="M93.7692 48.5526H93.283" stroke="#263238" stroke-linejoin="round"/>
    <path d="M94.8599 49.7607H94.313" stroke="#263238" stroke-linejoin="round"/>
    <path d="M95.4677 51.2714H94.7385" stroke="#263238" stroke-linejoin="round"/>
    <path d="M96.0144 52.9022H95.3459" stroke="#263238" stroke-linejoin="round"/>
    <path d="M96.0145 56.3438H95.2853" stroke="#263238" stroke-linejoin="round"/>
    <path d="M93.1614 60.4523H93.7691" stroke="#263238" stroke-linejoin="round"/>
    <path d="M92.1285 61.2379H92.797" stroke="#263238" stroke-linejoin="round"/>
    <path d="M91.0346 62.0831H91.7031" stroke="#263238" stroke-linejoin="round"/>
    <path d="M91.7638 46.9209H90.7307" stroke="#263238" stroke-linejoin="round"/>
    <path d="M88.5108 52.877C89.0929 52.6321 89.4096 52.772 89.5823 53.1759C89.755 53.5798 89.6303 53.9041 89.0513 54.149L88.7155 54.2889L89.2241 55.491L89.4799 55.3829C90.5834 54.9186 91.0856 54.1649 90.8873 53.1854L91.4918 52.931L91.0504 51.8912L90.4459 52.1456C89.8702 51.3378 88.981 51.182 87.8903 51.6399C85.565 52.6162 86.5405 55.1317 84.8645 55.8345C84.2824 56.0793 83.9658 55.9108 83.7963 55.5069C83.6267 55.103 83.7259 54.7596 84.308 54.5179L84.9477 54.2508L84.4391 53.0487L83.8826 53.284C82.7791 53.7483 82.2674 54.5084 82.4657 55.4974L81.874 55.7454L82.3154 56.7853L82.9071 56.5373C83.4764 57.3609 84.3848 57.5358 85.4882 57.0747C87.8135 56.0984 86.838 53.583 88.514 52.8802L88.5108 52.877Z" fill="#263238"/>
    <path d="M78.8128 43.457C82.2303 40.0591 82.2303 34.5501 78.8128 31.1523C75.3953 27.7544 69.8544 27.7545 66.4369 31.1523C63.0194 34.5501 63.0194 40.0591 66.4369 43.457C69.8544 46.8548 75.3953 46.8548 78.8128 43.457Z" fill="white" stroke="#263238" stroke-linejoin="round"/>
    <path d="M74.9703 45.3322C79.4289 43.4778 81.5315 38.3808 79.6663 33.9478C77.8012 29.5147 72.6748 27.4243 68.2161 29.2787C63.7574 31.1331 61.6549 36.23 63.52 40.6631C65.3851 45.0961 70.5116 47.1866 74.9703 45.3322Z" fill="white" stroke="#263238" stroke-linejoin="round"/>
    <path d="M74.3028 43.7584C77.8874 42.2705 79.5801 38.1751 78.0836 34.6111C76.587 31.0471 72.468 29.3641 68.8833 30.852C65.2987 32.3399 63.606 36.4353 65.1025 39.9993C66.5991 43.5633 70.7182 45.2463 74.3028 43.7584Z" fill="white" stroke="#263238" stroke-linejoin="round"/>
    <path d="M65.1651 37.3073C65.1651 33.5453 68.1525 30.4797 71.8947 30.3207C71.7923 30.3175 71.6932 30.3143 71.5908 30.3143C67.7047 30.3143 64.5574 33.4467 64.5574 37.3073C64.5574 41.168 67.7079 44.3004 71.5908 44.3004C71.6932 44.3004 71.7923 44.2972 71.8947 44.294C68.1493 44.135 65.1651 41.0694 65.1651 37.3073Z" fill="white" stroke="#263238" stroke-linejoin="round"/>
    <path d="M78.1159 30.5974H77.4474" stroke="#263238" stroke-linejoin="round"/>
    <path d="M78.9665 31.3822H78.4803" stroke="#263238" stroke-linejoin="round"/>
    <path d="M80.0605 32.5912H79.5135" stroke="#263238" stroke-linejoin="round"/>
    <path d="M80.665 34.1019H79.939" stroke="#263238" stroke-linejoin="round"/>
    <path d="M81.212 35.7295H80.5435" stroke="#263238" stroke-linejoin="round"/>
    <path d="M81.2119 39.1734H80.4826" stroke="#263238" stroke-linejoin="round"/>
    <path d="M78.3588 43.2828H78.9665" stroke="#263238" stroke-linejoin="round"/>
    <path d="M77.3258 44.0676H77.9943" stroke="#263238" stroke-linejoin="round"/>
    <path d="M76.2319 44.9136H76.9004" stroke="#263238" stroke-linejoin="round"/>
    <path d="M76.9612 29.7513H75.928" stroke="#263238" stroke-linejoin="round"/>
    <path d="M70.1069 35.6347C69.7647 35.1099 69.8446 34.7729 70.2156 34.5344C70.5867 34.2958 70.9289 34.3594 71.2711 34.8842L71.4694 35.1895L72.5697 34.4803L72.4194 34.2481C71.7669 33.2496 70.9321 32.8902 69.9949 33.256L69.6367 32.709L68.6836 33.3227L69.0418 33.8697C68.3445 34.5757 68.3445 35.4725 68.9906 36.4615C70.366 38.5635 72.6881 37.1706 73.6764 38.6844C74.0186 39.2091 73.9099 39.5494 73.5421 39.7879C73.171 40.0264 72.816 39.9882 72.4706 39.4635L72.0931 38.8847L70.9929 39.5939L71.3223 40.0995C71.9748 41.0981 72.816 41.4669 73.7628 41.0949L74.1146 41.6323L75.0677 41.0186L74.7159 40.4811C75.4324 39.7815 75.4451 38.8593 74.7927 37.8607C73.4173 35.7587 71.0952 37.1516 70.1069 35.6378V35.6347Z" fill="#263238"/>
    <path d="M33.6484 176.625L36.0625 180.773L38.4766 176.625H40.7344L37.2969 182.258L40.8203 188H38.5391L36.0625 183.773L33.5859 188H31.2969L34.8281 182.258L31.3828 176.625H33.6484ZM41.5469 183.867V183.688C41.5469 183.078 41.6354 182.513 41.8125 181.992C41.9896 181.466 42.2448 181.01 42.5781 180.625C42.9167 180.234 43.3281 179.932 43.8125 179.719C44.3021 179.5 44.8542 179.391 45.4688 179.391C46.0885 179.391 46.6406 179.5 47.125 179.719C47.6146 179.932 48.0286 180.234 48.3672 180.625C48.7057 181.01 48.9635 181.466 49.1406 181.992C49.3177 182.513 49.4062 183.078 49.4062 183.688V183.867C49.4062 184.477 49.3177 185.042 49.1406 185.562C48.9635 186.083 48.7057 186.539 48.3672 186.93C48.0286 187.315 47.6172 187.617 47.1328 187.836C46.6484 188.049 46.099 188.156 45.4844 188.156C44.8646 188.156 44.3099 188.049 43.8203 187.836C43.3359 187.617 42.9245 187.315 42.5859 186.93C42.2474 186.539 41.9896 186.083 41.8125 185.562C41.6354 185.042 41.5469 184.477 41.5469 183.867ZM43.4297 183.688V183.867C43.4297 184.247 43.4688 184.607 43.5469 184.945C43.625 185.284 43.7474 185.581 43.9141 185.836C44.0807 186.091 44.2943 186.292 44.5547 186.438C44.8151 186.583 45.125 186.656 45.4844 186.656C45.8333 186.656 46.1354 186.583 46.3906 186.438C46.651 186.292 46.8646 186.091 47.0312 185.836C47.1979 185.581 47.3203 185.284 47.3984 184.945C47.4818 184.607 47.5234 184.247 47.5234 183.867V183.688C47.5234 183.312 47.4818 182.958 47.3984 182.625C47.3203 182.286 47.1953 181.987 47.0234 181.727C46.8568 181.466 46.6432 181.263 46.3828 181.117C46.1276 180.966 45.8229 180.891 45.4688 180.891C45.1146 180.891 44.8073 180.966 44.5469 181.117C44.2917 181.263 44.0807 181.466 43.9141 181.727C43.7474 181.987 43.625 182.286 43.5469 182.625C43.4688 182.958 43.4297 183.312 43.4297 183.688ZM57.7734 179.547V188H55.8906V179.547H57.7734ZM56.9766 183.289V184.781C56.7474 184.88 56.4896 184.971 56.2031 185.055C55.9219 185.133 55.625 185.198 55.3125 185.25C55 185.297 54.6849 185.32 54.3672 185.32C53.6224 185.32 52.9792 185.206 52.4375 184.977C51.901 184.747 51.487 184.396 51.1953 183.922C50.9089 183.443 50.7656 182.836 50.7656 182.102V179.539H52.6406V182.102C52.6406 182.523 52.7031 182.859 52.8281 183.109C52.9583 183.359 53.151 183.539 53.4062 183.648C53.6615 183.758 53.9818 183.812 54.3672 183.812C54.6901 183.812 54.9948 183.792 55.2812 183.75C55.5677 183.703 55.8516 183.641 56.1328 183.562C56.4141 183.484 56.6953 183.393 56.9766 183.289ZM62.2344 187.078L64.5312 179.547H66.5469L63.1562 189.289C63.0781 189.497 62.9766 189.724 62.8516 189.969C62.7266 190.214 62.5625 190.445 62.3594 190.664C62.1615 190.888 61.9141 191.068 61.6172 191.203C61.3203 191.344 60.9609 191.414 60.5391 191.414C60.3724 191.414 60.2109 191.398 60.0547 191.367C59.9036 191.341 59.7604 191.312 59.625 191.281L59.6172 189.844C59.6693 189.849 59.7318 189.854 59.8047 189.859C59.8828 189.865 59.9453 189.867 59.9922 189.867C60.3047 189.867 60.5651 189.828 60.7734 189.75C60.9818 189.677 61.151 189.557 61.2812 189.391C61.4167 189.224 61.5312 189 61.625 188.719L62.2344 187.078ZM60.9375 179.547L62.9453 185.875L63.2812 187.859L61.9766 188.195L58.9062 179.547H60.9375ZM73.1406 179.547H75.0234L74.9297 182.523C74.9036 183.388 74.8047 184.13 74.6328 184.75C74.4609 185.37 74.237 185.893 73.9609 186.32C73.6849 186.742 73.3724 187.089 73.0234 187.359C72.6797 187.63 72.3177 187.844 71.9375 188H71.3828V186.516L71.6484 186.5C71.8724 186.26 72.0651 186.021 72.2266 185.781C72.3932 185.536 72.5339 185.268 72.6484 184.977C72.763 184.68 72.8516 184.333 72.9141 183.938C72.9818 183.542 73.026 183.07 73.0469 182.523L73.1406 179.547ZM73.6406 179.547H79V188H77.125V181.141H73.6406V179.547ZM70.9531 186.5H80.1562V190.516H78.2734V188H72.8594V190.516H70.9453L70.9531 186.5ZM81.1406 183.867V183.688C81.1406 183.078 81.2292 182.513 81.4062 181.992C81.5833 181.466 81.8385 181.01 82.1719 180.625C82.5104 180.234 82.9219 179.932 83.4062 179.719C83.8958 179.5 84.4479 179.391 85.0625 179.391C85.6823 179.391 86.2344 179.5 86.7188 179.719C87.2083 179.932 87.6224 180.234 87.9609 180.625C88.2995 181.01 88.5573 181.466 88.7344 181.992C88.9115 182.513 89 183.078 89 183.688V183.867C89 184.477 88.9115 185.042 88.7344 185.562C88.5573 186.083 88.2995 186.539 87.9609 186.93C87.6224 187.315 87.2109 187.617 86.7266 187.836C86.2422 188.049 85.6927 188.156 85.0781 188.156C84.4583 188.156 83.9036 188.049 83.4141 187.836C82.9297 187.617 82.5182 187.315 82.1797 186.93C81.8411 186.539 81.5833 186.083 81.4062 185.562C81.2292 185.042 81.1406 184.477 81.1406 183.867ZM83.0234 183.688V183.867C83.0234 184.247 83.0625 184.607 83.1406 184.945C83.2188 185.284 83.3411 185.581 83.5078 185.836C83.6745 186.091 83.888 186.292 84.1484 186.438C84.4089 186.583 84.7188 186.656 85.0781 186.656C85.4271 186.656 85.7292 186.583 85.9844 186.438C86.2448 186.292 86.4583 186.091 86.625 185.836C86.7917 185.581 86.9141 185.284 86.9922 184.945C87.0755 184.607 87.1172 184.247 87.1172 183.867V183.688C87.1172 183.312 87.0755 182.958 86.9922 182.625C86.9141 182.286 86.7891 181.987 86.6172 181.727C86.4505 181.466 86.237 181.263 85.9766 181.117C85.7214 180.966 85.4167 180.891 85.0625 180.891C84.7083 180.891 84.401 180.966 84.1406 181.117C83.8854 181.263 83.6745 181.466 83.5078 181.727C83.3411 181.987 83.2188 182.286 83.1406 182.625C83.0625 182.958 83.0234 183.312 83.0234 183.688ZM96.25 179.547V181.047H92.0781V179.547H96.25ZM92.5234 179.547V188H90.6406V179.547H92.5234ZM97.7266 179.547V188H95.8359V179.547H97.7266ZM99.3594 183.867V183.688C99.3594 183.078 99.4479 182.513 99.625 181.992C99.8021 181.466 100.057 181.01 100.391 180.625C100.729 180.234 101.141 179.932 101.625 179.719C102.115 179.5 102.667 179.391 103.281 179.391C103.901 179.391 104.453 179.5 104.938 179.719C105.427 179.932 105.841 180.234 106.18 180.625C106.518 181.01 106.776 181.466 106.953 181.992C107.13 182.513 107.219 183.078 107.219 183.688V183.867C107.219 184.477 107.13 185.042 106.953 185.562C106.776 186.083 106.518 186.539 106.18 186.93C105.841 187.315 105.43 187.617 104.945 187.836C104.461 188.049 103.911 188.156 103.297 188.156C102.677 188.156 102.122 188.049 101.633 187.836C101.148 187.617 100.737 187.315 100.398 186.93C100.06 186.539 99.8021 186.083 99.625 185.562C99.4479 185.042 99.3594 184.477 99.3594 183.867ZM101.242 183.688V183.867C101.242 184.247 101.281 184.607 101.359 184.945C101.438 185.284 101.56 185.581 101.727 185.836C101.893 186.091 102.107 186.292 102.367 186.438C102.628 186.583 102.938 186.656 103.297 186.656C103.646 186.656 103.948 186.583 104.203 186.438C104.464 186.292 104.677 186.091 104.844 185.836C105.01 185.581 105.133 185.284 105.211 184.945C105.294 184.607 105.336 184.247 105.336 183.867V183.688C105.336 183.312 105.294 182.958 105.211 182.625C105.133 182.286 105.008 181.987 104.836 181.727C104.669 181.466 104.456 181.263 104.195 181.117C103.94 180.966 103.635 180.891 103.281 180.891C102.927 180.891 102.62 180.966 102.359 181.117C102.104 181.263 101.893 181.466 101.727 181.727C101.56 181.987 101.438 182.286 101.359 182.625C101.281 182.958 101.242 183.312 101.242 183.688ZM113.82 185.719L116.336 179.547H117.969L114.461 188H113.18L109.68 179.547H111.312L113.82 185.719ZM110.828 179.547V188H108.945V179.547H110.828ZM116.812 188V179.547H118.703V188H116.812ZM120.453 183.867V183.688C120.453 183.078 120.542 182.513 120.719 181.992C120.896 181.466 121.151 181.01 121.484 180.625C121.823 180.234 122.234 179.932 122.719 179.719C123.208 179.5 123.76 179.391 124.375 179.391C124.995 179.391 125.547 179.5 126.031 179.719C126.521 179.932 126.935 180.234 127.273 180.625C127.612 181.01 127.87 181.466 128.047 181.992C128.224 182.513 128.312 183.078 128.312 183.688V183.867C128.312 184.477 128.224 185.042 128.047 185.562C127.87 186.083 127.612 186.539 127.273 186.93C126.935 187.315 126.523 187.617 126.039 187.836C125.555 188.049 125.005 188.156 124.391 188.156C123.771 188.156 123.216 188.049 122.727 187.836C122.242 187.617 121.831 187.315 121.492 186.93C121.154 186.539 120.896 186.083 120.719 185.562C120.542 185.042 120.453 184.477 120.453 183.867ZM122.336 183.688V183.867C122.336 184.247 122.375 184.607 122.453 184.945C122.531 185.284 122.654 185.581 122.82 185.836C122.987 186.091 123.201 186.292 123.461 186.438C123.721 186.583 124.031 186.656 124.391 186.656C124.74 186.656 125.042 186.583 125.297 186.438C125.557 186.292 125.771 186.091 125.938 185.836C126.104 185.581 126.227 185.284 126.305 184.945C126.388 184.607 126.43 184.247 126.43 183.867V183.688C126.43 183.312 126.388 182.958 126.305 182.625C126.227 182.286 126.102 181.987 125.93 181.727C125.763 181.466 125.549 181.263 125.289 181.117C125.034 180.966 124.729 180.891 124.375 180.891C124.021 180.891 123.714 180.966 123.453 181.117C123.198 181.263 122.987 181.466 122.82 181.727C122.654 181.987 122.531 182.286 122.453 182.625C122.375 182.958 122.336 183.312 122.336 183.688ZM135.516 179.547V181.047H131.828V188H129.945V179.547H135.516ZM140.531 179.547V188H138.641V179.547H140.531ZM143.305 179.547V181.031H135.914V179.547H143.305ZM146.508 185.25L149.828 179.547H151.711V188H149.828V182.289L146.508 188H144.625V179.547H146.508V185.25Z" fill="#2D7581"/>
    <defs>
        <filter id="filter0_d_451_20998" x="0" y="0" width="184" height="212" filterUnits="userSpaceOnUse" color-interpolation-filters="sRGB">
            <feFlood flood-opacity="0" result="BackgroundImageFix"/>
            <feColorMatrix in="SourceAlpha" type="matrix" values="0 0 0 0 0 0 0 0 0 0 0 0 0 0 0 0 0 0 127 0" result="hardAlpha"/>
            <feOffset dy="1"/>
            <feGaussianBlur stdDeviation="1"/>
            <feComposite in2="hardAlpha" operator="out"/>
            <feColorMatrix type="matrix" values="0 0 0 0 0 0 0 0 0 0 0 0 0 0 0 0 0 0 0.25 0"/>
            <feBlend mode="normal" in2="BackgroundImageFix" result="effect1_dropShadow_451_20998"/>
            <feBlend mode="normal" in="SourceGraphic" in2="effect1_dropShadow_451_20998" result="shape"/>
        </filter>
    </defs>
</svg>
