<svg width="24" height="21" viewBox="0 0 24 21" fill="none"
     xmlns="http://www.w3.org/2000/svg">
    <path
            d="M23.841 9.96227C22.8735 7.94457 21.722 6.29902 20.3867 5.02563L18.9863 6.41181C20.1283 7.49204 21.123 8.9052 21.9831 10.6652C19.6931 15.3566 16.4424 17.5852 12 17.5852C10.6665 17.5852 9.43828 17.3819 8.31528 16.9755L6.79785 18.4774C8.35758 19.1903 10.0916 19.5468 12 19.5468C17.2902 19.5468 21.2372 16.8196 23.841 11.3653C23.9457 11.146 24 10.9064 24 10.6638C24 10.4212 23.9457 10.1816 23.841 9.96227ZM22.0913 1.2267L20.9179 0.0639227C20.8975 0.0436582 20.8732 0.0275823 20.8465 0.016614C20.8197 0.00564562 20.7911 0 20.7621 0C20.7332 0 20.7045 0.00564562 20.6778 0.016614C20.6511 0.0275823 20.6268 0.0436582 20.6063 0.0639227L17.596 3.04225C15.9363 2.20313 14.0709 1.78357 12 1.78357C6.70977 1.78357 2.76276 4.51071 0.158941 9.96499C0.0542801 10.1844 0 10.4239 0 10.6665C0 10.9091 0.0542801 11.1487 0.158941 11.3681C1.19918 13.5367 2.45155 15.275 3.91604 16.5829L1.00339 19.465C0.962129 19.5059 0.93895 19.5613 0.93895 19.6191C0.93895 19.6769 0.962129 19.7323 1.00339 19.7732L2.17841 20.9362C2.2197 20.9771 2.27569 21 2.33407 21C2.39244 21 2.44843 20.9771 2.48972 20.9362L22.0913 1.53511C22.1118 1.51487 22.128 1.49083 22.1391 1.46437C22.1502 1.43791 22.1559 1.40955 22.1559 1.38091C22.1559 1.35226 22.1502 1.3239 22.1391 1.29744C22.128 1.27098 22.1118 1.24695 22.0913 1.2267ZM2.01685 10.6652C4.30964 5.97372 7.56028 3.74515 12 3.74515C13.5012 3.74515 14.8661 4.00016 16.1044 4.51861L14.1695 6.43388C13.2531 5.94992 12.2038 5.77031 11.1765 5.92154C10.1491 6.07277 9.19806 6.54683 8.46361 7.27379C7.72917 8.00075 7.25023 8.94212 7.09745 9.95901C6.94466 10.9759 7.12612 12.0145 7.61506 12.9215L5.31896 15.1942C4.04815 14.084 2.95268 12.5799 2.01685 10.6652ZM8.80714 10.6652C8.80762 10.1848 8.92259 9.71123 9.1427 9.28306C9.3628 8.85489 9.68185 8.48415 10.0739 8.20096C10.466 7.91777 10.92 7.73011 11.3991 7.65322C11.8782 7.57634 12.3689 7.61241 12.8312 7.75849L8.9533 11.5969C8.8561 11.2957 8.80679 10.9814 8.80714 10.6652Z"
            fill="#757575"/>
</svg>