<svg width="180" height="25" viewBox="0 0 180 25" fill="none" xmlns="http://www.w3.org/2000/svg">
    <path d="M13.79 2.82C13.95 2.52 14.22 2.31 14.6 2.19C14.98 2.07 15.46 2.01 16.04 2.01C16.62 2.01 17.08 2.06 17.42 2.16C17.76 2.26 18.02 2.38 18.2 2.52C18.38 2.66 18.52 2.86 18.62 3.12C18.72 3.46 18.77 3.98 18.77 4.68V21.33C18.77 21.79 18.75 22.14 18.71 22.38C18.69 22.6 18.6 22.86 18.44 23.16C18.16 23.7 17.38 23.97 16.1 23.97C14.7 23.97 13.88 23.6 13.64 22.86C13.52 22.52 13.46 22 13.46 21.3V15.21H5.51V21.33C5.51 21.79 5.49 22.14 5.45 22.38C5.43 22.6 5.34 22.86 5.18 23.16C4.9 23.7 4.12 23.97 2.84 23.97C1.44 23.97 0.62 23.6 0.38 22.86C0.26 22.52 0.2 22 0.2 21.3V4.65C0.2 4.19 0.21 3.85 0.23 3.63C0.27 3.39 0.37 3.12 0.53 2.82C0.81 2.28 1.59 2.01 2.87 2.01C4.27 2.01 5.1 2.38 5.36 3.12C5.46 3.46 5.51 3.98 5.51 4.68V10.8H13.46V4.65C13.46 4.19 13.47 3.85 13.49 3.63C13.53 3.39 13.63 3.12 13.79 2.82ZM31.4366 9.87C31.5566 8.75 32.3466 8.19 33.8066 8.19C34.5866 8.19 35.1666 8.25 35.5466 8.37C35.9266 8.49 36.1866 8.7 36.3266 9C36.4866 9.3 36.5766 9.57 36.5966 9.81C36.6366 10.03 36.6566 10.37 36.6566 10.83V21.33C36.6566 21.79 36.6366 22.14 36.5966 22.38C36.5766 22.6 36.4966 22.86 36.3566 23.16C36.0766 23.68 35.3866 23.94 34.2866 23.94C33.2066 23.94 32.4766 23.81 32.0966 23.55C31.7366 23.27 31.5266 22.87 31.4666 22.35C30.7266 23.41 29.4866 23.94 27.7466 23.94C26.0266 23.94 24.4266 23.15 22.9466 21.57C21.4666 19.99 20.7266 18.16 20.7266 16.08C20.7266 13.98 21.4666 12.15 22.9466 10.59C24.4466 9.01 26.0866 8.22 27.8666 8.22C28.5466 8.22 29.1666 8.34 29.7266 8.58C30.2866 8.82 30.6766 9.05 30.8966 9.27C31.1166 9.47 31.2966 9.67 31.4366 9.87ZM25.9766 16.11C25.9766 16.77 26.2366 17.37 26.7566 17.91C27.2766 18.43 27.9066 18.69 28.6466 18.69C29.3866 18.69 29.9966 18.42 30.4766 17.88C30.9766 17.34 31.2266 16.75 31.2266 16.11C31.2266 15.45 30.9866 14.84 30.5066 14.28C30.0466 13.72 29.4166 13.44 28.6166 13.44C27.8366 13.44 27.1966 13.72 26.6966 14.28C26.2166 14.84 25.9766 15.45 25.9766 16.11ZM47.8377 8.19C49.8377 8.19 51.4977 8.96 52.8177 10.5C54.1577 12.02 54.8277 13.88 54.8277 16.08V21.36C54.8277 21.82 54.8077 22.17 54.7677 22.41C54.7477 22.63 54.6677 22.88 54.5277 23.16C54.2477 23.7 53.4677 23.97 52.1877 23.97C50.7677 23.97 49.9477 23.6 49.7277 22.86C49.6077 22.52 49.5477 22.01 49.5477 21.33V16.05C49.5477 15.23 49.3077 14.59 48.8277 14.13C48.3677 13.67 47.7377 13.44 46.9377 13.44C46.1577 13.44 45.5177 13.68 45.0177 14.16C44.5377 14.64 44.2977 15.27 44.2977 16.05V21.36C44.2977 21.82 44.2777 22.17 44.2377 22.41C44.2177 22.63 44.1277 22.88 43.9677 23.16C43.7077 23.7 42.9377 23.97 41.6577 23.97C40.3977 23.97 39.6277 23.7 39.3477 23.16C39.2077 22.86 39.1177 22.6 39.0777 22.38C39.0577 22.14 39.0477 21.79 39.0477 21.33V10.71C39.0477 10.27 39.0577 9.94 39.0777 9.72C39.1177 9.48 39.2177 9.22 39.3777 8.94C39.6577 8.44 40.4277 8.19 41.6877 8.19C42.9077 8.19 43.6577 8.42 43.9377 8.88C44.1377 9.22 44.2377 9.63 44.2377 10.11C44.3177 9.97 44.4977 9.77 44.7777 9.51C45.0577 9.25 45.3277 9.04 45.5877 8.88C46.2677 8.42 47.0177 8.19 47.8377 8.19ZM67.831 1.62C67.991 1.32 68.261 1.11 68.641 0.989999C69.021 0.869999 69.521 0.809998 70.141 0.809998C70.781 0.809998 71.291 0.869999 71.671 0.989999C72.051 1.11 72.311 1.32 72.451 1.62C72.611 1.92 72.701 2.19 72.721 2.43C72.761 2.65 72.781 2.99 72.781 3.45V21.36C72.781 21.82 72.761 22.17 72.721 22.41C72.701 22.63 72.611 22.88 72.451 23.16C72.151 23.7 71.301 23.97 69.901 23.97C68.521 23.97 67.751 23.48 67.591 22.5C66.751 23.46 65.581 23.94 64.081 23.94C62.281 23.94 60.641 23.16 59.161 21.6C57.681 20.02 56.941 18.19 56.941 16.11C56.941 14.01 57.681 12.17 59.161 10.59C60.661 9.01 62.301 8.22 64.081 8.22C65.561 8.22 66.711 8.72 67.531 9.72V3.42C67.531 2.96 67.541 2.62 67.561 2.4C67.601 2.16 67.691 1.9 67.831 1.62ZM62.971 17.91C63.491 18.45 64.121 18.72 64.861 18.72C65.601 18.72 66.211 18.45 66.691 17.91C67.191 17.37 67.441 16.78 67.441 16.14C67.441 15.48 67.201 14.87 66.721 14.31C66.261 13.75 65.631 13.47 64.831 13.47C64.031 13.47 63.391 13.75 62.911 14.31C62.431 14.85 62.191 15.45 62.191 16.11C62.191 16.77 62.451 17.37 62.971 17.91ZM85.9386 14.85C85.5786 13.29 83.4786 13.2 82.9386 14.7C82.4286 15.93 82.5186 20.85 82.6086 21.99C82.6386 22.53 82.7586 23.07 82.9986 23.61C83.1786 24.03 83.4786 24.24 83.9286 24.27C85.7586 24.54 85.9686 18.87 86.1186 17.58C86.1786 16.65 86.2086 15.75 85.9386 14.85ZM84.1086 12.99C86.5986 12.87 86.5986 9.3 84.2586 9.75C82.0686 10.05 82.0986 12.81 84.1086 12.99ZM97.2364 11.79C97.1764 10.83 95.8264 10.74 95.4664 11.58C94.9564 12.72 94.8664 17.22 94.6564 19.62C93.0664 14.28 91.7764 10.53 90.5164 10.53C87.9964 10.5 87.5164 21.3 88.2664 23.04C88.7164 24.06 90.3964 23.64 90.6964 22.62C91.5964 20.25 91.4164 17.82 91.4164 15.12C92.4064 18.12 92.7364 19.71 93.5764 22.29C93.9364 23.37 95.5564 23.43 95.9164 22.65C96.7864 20.97 97.3264 14.85 97.2364 11.79ZM120.489 2.82C120.649 2.52 120.919 2.31 121.299 2.19C121.679 2.07 122.159 2.01 122.739 2.01C123.319 2.01 123.779 2.06 124.119 2.16C124.459 2.26 124.719 2.38 124.899 2.52C125.079 2.66 125.219 2.86 125.319 3.12C125.419 3.46 125.469 3.98 125.469 4.68V21.33C125.469 21.79 125.449 22.14 125.409 22.38C125.389 22.6 125.299 22.86 125.139 23.16C124.859 23.7 124.079 23.97 122.799 23.97C121.399 23.97 120.579 23.6 120.339 22.86C120.219 22.52 120.159 22 120.159 21.3V15.21H112.209V21.33C112.209 21.79 112.189 22.14 112.149 22.38C112.129 22.6 112.039 22.86 111.879 23.16C111.599 23.7 110.819 23.97 109.539 23.97C108.139 23.97 107.319 23.6 107.079 22.86C106.959 22.52 106.899 22 106.899 21.3V4.65C106.899 4.19 106.909 3.85 106.929 3.63C106.969 3.39 107.069 3.12 107.229 2.82C107.509 2.28 108.289 2.01 109.569 2.01C110.969 2.01 111.799 2.38 112.059 3.12C112.159 3.46 112.209 3.98 112.209 4.68V10.8H120.159V4.65C120.159 4.19 120.169 3.85 120.189 3.63C120.229 3.39 120.329 3.12 120.489 2.82ZM138.136 9.87C138.256 8.75 139.046 8.19 140.506 8.19C141.286 8.19 141.866 8.25 142.246 8.37C142.626 8.49 142.886 8.7 143.026 9C143.186 9.3 143.276 9.57 143.296 9.81C143.336 10.03 143.356 10.37 143.356 10.83V21.33C143.356 21.79 143.336 22.14 143.296 22.38C143.276 22.6 143.196 22.86 143.056 23.16C142.776 23.68 142.086 23.94 140.986 23.94C139.906 23.94 139.176 23.81 138.796 23.55C138.436 23.27 138.226 22.87 138.166 22.35C137.426 23.41 136.186 23.94 134.446 23.94C132.726 23.94 131.126 23.15 129.646 21.57C128.166 19.99 127.426 18.16 127.426 16.08C127.426 13.98 128.166 12.15 129.646 10.59C131.146 9.01 132.786 8.22 134.566 8.22C135.246 8.22 135.866 8.34 136.426 8.58C136.986 8.82 137.376 9.05 137.596 9.27C137.816 9.47 137.996 9.67 138.136 9.87ZM132.676 16.11C132.676 16.77 132.936 17.37 133.456 17.91C133.976 18.43 134.606 18.69 135.346 18.69C136.086 18.69 136.696 18.42 137.176 17.88C137.676 17.34 137.926 16.75 137.926 16.11C137.926 15.45 137.686 14.84 137.206 14.28C136.746 13.72 136.116 13.44 135.316 13.44C134.536 13.44 133.896 13.72 133.396 14.28C132.916 14.84 132.676 15.45 132.676 16.11ZM154.537 8.19C156.537 8.19 158.197 8.96 159.517 10.5C160.857 12.02 161.527 13.88 161.527 16.08V21.36C161.527 21.82 161.507 22.17 161.467 22.41C161.447 22.63 161.367 22.88 161.227 23.16C160.947 23.7 160.167 23.97 158.887 23.97C157.467 23.97 156.647 23.6 156.427 22.86C156.307 22.52 156.247 22.01 156.247 21.33V16.05C156.247 15.23 156.007 14.59 155.527 14.13C155.067 13.67 154.437 13.44 153.637 13.44C152.857 13.44 152.217 13.68 151.717 14.16C151.237 14.64 150.997 15.27 150.997 16.05V21.36C150.997 21.82 150.977 22.17 150.937 22.41C150.917 22.63 150.827 22.88 150.667 23.16C150.407 23.7 149.637 23.97 148.357 23.97C147.097 23.97 146.327 23.7 146.047 23.16C145.907 22.86 145.817 22.6 145.777 22.38C145.757 22.14 145.747 21.79 145.747 21.33V10.71C145.747 10.27 145.757 9.94 145.777 9.72C145.817 9.48 145.917 9.22 146.077 8.94C146.357 8.44 147.127 8.19 148.387 8.19C149.607 8.19 150.357 8.42 150.637 8.88C150.837 9.22 150.937 9.63 150.937 10.11C151.017 9.97 151.197 9.77 151.477 9.51C151.757 9.25 152.027 9.04 152.287 8.88C152.967 8.42 153.717 8.19 154.537 8.19ZM174.53 1.62C174.69 1.32 174.96 1.11 175.34 0.989999C175.72 0.869999 176.22 0.809998 176.84 0.809998C177.48 0.809998 177.99 0.869999 178.37 0.989999C178.75 1.11 179.01 1.32 179.15 1.62C179.31 1.92 179.4 2.19 179.42 2.43C179.46 2.65 179.48 2.99 179.48 3.45V21.36C179.48 21.82 179.46 22.17 179.42 22.41C179.4 22.63 179.31 22.88 179.15 23.16C178.85 23.7 178 23.97 176.6 23.97C175.22 23.97 174.45 23.48 174.29 22.5C173.45 23.46 172.28 23.94 170.78 23.94C168.98 23.94 167.34 23.16 165.86 21.6C164.38 20.02 163.64 18.19 163.64 16.11C163.64 14.01 164.38 12.17 165.86 10.59C167.36 9.01 169 8.22 170.78 8.22C172.26 8.22 173.41 8.72 174.23 9.72V3.42C174.23 2.96 174.24 2.62 174.26 2.4C174.3 2.16 174.39 1.9 174.53 1.62ZM169.67 17.91C170.19 18.45 170.82 18.72 171.56 18.72C172.3 18.72 172.91 18.45 173.39 17.91C173.89 17.37 174.14 16.78 174.14 16.14C174.14 15.48 173.9 14.87 173.42 14.31C172.96 13.75 172.33 13.47 171.53 13.47C170.73 13.47 170.09 13.75 169.61 14.31C169.13 14.85 168.89 15.45 168.89 16.11C168.89 16.77 169.15 17.37 169.67 17.91Z" fill="white"/>
</svg>
